<?xml version="1.0" encoding="UTF-8"?>
<svg width="52px" height="52px" viewBox="0 0 52 52" version="1.1" xmlns="http://www.w3.org/2000/svg" xmlns:xlink="http://www.w3.org/1999/xlink">
    <!-- Generator: Sketch 64 (93537) - https://sketch.com -->
    <title>akakce</title>
    <desc>Created with Sketch.</desc>
    <defs>
        <rect id="path-1" x="0" y="0" width="44" height="44" rx="22"></rect>
        <filter x="-17.0%" y="-10.2%" width="134.1%" height="134.1%" filterUnits="objectBoundingBox" id="filter-2">
            <feOffset dx="0" dy="3" in="SourceAlpha" result="shadowOffsetOuter1"></feOffset>
            <feGaussianBlur stdDeviation="2" in="shadowOffsetOuter1" result="shadowBlurOuter1"></feGaussianBlur>
            <feColorMatrix values="0 0 0 0 0   0 0 0 0 0   0 0 0 0 0  0 0 0 0.105868253 0" type="matrix" in="shadowBlurOuter1"></feColorMatrix>
        </filter>
    </defs>
    <g id="Page-1" stroke="none" stroke-width="1" fill="none" fill-rule="evenodd">
        <g id="Artboard" transform="translate(-37.000000, -2713.000000)">
            <g id="Platform-Logo-Setleri-Vector" transform="translate(41.000000, 2090.000000)">
                <g id="akakce" transform="translate(0.000000, 624.000000)">
                    <g id="Rectangle">
                        <use fill="black" fill-opacity="1" filter="url(#filter-2)" xlink:href="#path-1"></use>
                        <use fill="#FFFFFF" fill-rule="evenodd" xlink:href="#path-1"></use>
                    </g>
                    <g id="akakçe-icon" transform="translate(5.000000, 6.000000)" fill="#1B75BC">
                        <path d="M11.8286778,0.632899269 C14.7328082,-0.21927355 17.8841433,-0.210884646 20.7840719,0.65806598 C23.2169026,1.39349322 25.4683564,2.72942616 27.2674186,4.52395252 C28.8668963,6.09827014 30.1176262,8.02352358 30.9054599,10.1228468 C30.9418754,10.2242127 30.9726884,10.3269768 31,10.4318381 C30.5497092,10.2228146 30.1701484,9.88795747 29.7093532,9.69710991 C28.8893058,9.26298413 27.9908251,9.01201609 27.088843,8.81208055 C26.2421843,8.62263114 25.3731161,8.57579309 24.5103506,8.51497354 C24.1286889,8.49679758 23.7477275,8.52545967 23.3681667,8.56181158 C21.6986594,8.60445518 20.0494606,8.9211363 18.4275735,9.2979379 C17.456262,9.53352628 16.5038585,9.8362259 15.5507547,10.1326338 C14.6858883,10.4556066 13.8028142,10.737334 12.9659596,11.1288162 C13.2327727,11.8306878 13.5990278,12.4906149 13.8973542,13.1792041 C14.2236925,13.8405293 14.5101138,14.5221278 14.8455559,15.1778604 C17.2804875,14.0460575 19.9367129,13.3973156 22.6167483,13.2393246 C23.2960361,13.2428199 23.9739233,13.1379586 24.6525108,13.2267412 C25.4326413,13.2008754 26.2316798,13.3127275 26.9305759,13.6755476 C27.7751337,14.134141 28.3654838,14.9835175 28.59238,15.906996 C28.682018,16.3026726 28.7737568,16.70534 28.7618518,17.1129009 C28.3227658,17.1024148 27.891383,17.0073406 27.4550982,16.9639979 C26.3374246,16.8402616 25.2141487,16.7395947 24.088772,16.7549744 C23.623775,16.696252 23.1580777,16.7277104 22.6923804,16.7598679 C22.0200955,16.733303 21.3520125,16.816493 20.6825289,16.8675255 C19.0809503,17.0513823 17.4744697,17.3519847 15.9828378,17.9818516 C14.9772117,18.4236672 13.9925946,18.979432 13.2376747,19.7910585 C12.3125828,20.6516202 11.7593484,21.837951 11.4386125,23.0424578 C11.1360844,24.1455987 11.1325829,25.3333277 11.4785294,26.4266815 C11.9729389,28.0806937 13.110921,29.4753489 14.4498883,30.5344481 C14.6739832,30.7273929 14.9541019,30.8581199 15.1333779,31.1 C12.7026481,30.9413099 10.3188381,30.1667344 8.23825666,28.9070007 C6.12546154,27.6318873 4.32639935,25.8478471 3.03365166,23.749223 C1.37114731,21.0752599 0.562304633,17.8909718 0.719171092,14.7500263 C0.849426277,12.0753642 1.68277934,9.43635481 3.12679111,7.17904059 C5.11003134,4.04368777 8.26276704,1.67242427 11.8286778,0.632899269" id="Fill-2"></path>
                        <path d="M33.4171875,15.5186326 C33.9448893,15.1563897 34.4662923,14.76747 35.0492839,14.5 C35.2592448,14.6537426 35.3845215,14.900152 35.5,15.1297129 C35.3691243,15.2680111 35.2137533,15.3796324 35.0660807,15.497572 C33.0266602,17.1431095 31.3028809,19.1361474 29.6868815,21.1902611 C27.862321,23.5209712 26.1791341,25.9780451 24.8549805,28.6323869 C24.728304,28.9047711 24.4322591,29.0170944 24.1915039,29.1624128 C23.4622396,29.5625648 22.7154785,29.9556967 21.9183268,30.2 C21.5270996,29.2073422 21.1211751,28.2181944 20.6676595,27.2515114 C20.261735,26.4392729 19.8341146,25.6003577 19.1370443,24.9980236 C18.8906901,24.7733769 18.5785482,24.646311 18.3,24.4708058 C18.7395182,23.9316536 19.3127116,23.4956984 19.9488932,23.2176981 C20.4143066,23.0190261 21.0238932,22.9558442 21.4109212,23.34687 C22.3165527,24.1963155 22.7161784,25.409408 23.2592773,26.4926265 C24.5169434,24.3528662 26.0524577,22.3865051 27.7286458,20.5619522 C29.4608236,18.7079145 31.328776,16.9662001 33.4171875,15.5186326" id="Fill-3"></path>
                    </g>
                </g>
            </g>
        </g>
    </g>
</svg>