<?xml version="1.0" encoding="UTF-8"?>
<svg width="326px" height="150px" viewBox="0 0 326 150" version="1.1" xmlns="http://www.w3.org/2000/svg" xmlns:xlink="http://www.w3.org/1999/xlink">
    <!-- Generator: Sketch 64 (93537) - https://sketch.com -->
    <title>aras</title>
    <desc>Created with Sketch.</desc>
    <g id="Page-1" stroke="none" stroke-width="1" fill="none" fill-rule="evenodd">
        <g id="Artboard" transform="translate(-2077.000000, -209.000000)">
            <g id="aras" transform="translate(2077.000000, 209.000000)">
                <path d="M260.989781,4.31111111 L321.299781,64.6092593 C326.945508,70.2518519 326.945508,79.4481481 321.299781,85.1962963 L260.989781,145.494444 C255.240327,151.137037 246.04194,151.137037 240.396213,145.494444 L180.084361,85.1962963 C174.336758,79.4481481 174.336758,70.2518519 180.084361,64.6092593 L240.396213,4.31111111 C246.04194,-1.43703704 255.240327,-1.43703704 260.989781,4.31111111" id="Fill-2" fill="#D82332"></path>
                <path d="M277.817679,29.1833333 C277.817679,29.1833333 278.026986,67.1166667 277.817679,75.2685185 C277.817679,78.5074074 274.891088,81.2259259 271.649611,81.2259259 C271.12727,81.2259259 270.501202,81.2259259 270.395622,81.2259259 L241.23344,81.2259259 L277.817679,29.1833333" id="Fill-3" fill="#FFFFFE"></path>
                <path d="M276.772997,29.287037 L229.108463,81.2259259 L201.826338,81.2259259 C200.468622,81.2259259 199.527667,80.1796296 199.946281,78.8222222 C200.153736,78.0907407 200.885383,77.3592593 201.513304,76.9407407 C210.085622,71.5055556 276.772997,29.287037 276.772997,29.287037" id="Fill-4" fill="#FFFFFE"></path>
                <path d="M136.915292,82.6888889 C131.480724,82.6888889 126.253611,81.8518519 121.341383,80.5981481 L125.73127,70.1481481 C129.285781,71.7148148 133.047747,73.0740741 137.439486,73.0740741 C140.679111,73.0740741 145.696917,72.0296296 147.26394,67.6388889 C149.877497,60.3240741 132.212372,54.5777778 136.498531,42.5592593 C139.528849,34.0944444 147.473247,28.3462963 161.270827,28.3462963 C166.392361,28.3462963 171.619474,29.0777778 176.427974,30.0185185 L172.351122,40.2592593 C169.633838,39.0055556 166.496088,37.8555556 162.628542,37.8555556 C158.344236,37.8555556 153.745042,38.3796296 152.176167,42.8722222 C149.771917,49.4555556 167.333315,55.6222222 162.734122,68.5796296 C158.866577,79.3444444 145.696917,82.6888889 136.915292,82.6888889" id="Fill-5" fill="#123368"></path>
                <path d="M107.649383,70.2518519 C109.216406,66.4907407 111.202042,61.5777778 114.024906,54.5777778 C106.917736,59.3833333 89.669372,58.8611111 86.3260197,68.162963 C84.6534174,73.0740741 88.7302697,74.6407407 92.9108492,74.3277778 C99.5994061,73.9092593 107.649383,70.2518519 107.649383,70.2518519 Z M85.9074061,82.6888889 C69.0776561,83.3148148 70.8558379,72.6555556 72.5265879,67.9537037 C80.0542242,46.8444444 114.44352,53.637037 118.414792,42.35 C120.191122,37.3333333 114.756554,36.2888889 110.992736,36.6018519 C106.080508,37.1240741 103.257645,37.7518519 99.0770651,38.7962963 L102.42227,30.2277778 C107.962417,29.3925926 110.051781,28.8685185 117.683145,28.3462963 C126.881531,27.6148148 137.230179,30.5407407 133.153327,41.8277778 C130.436042,49.2481481 122.804679,65.7592593 117.264531,81.4333333 L103.363224,81.5388889 C103.991145,80.0759259 104.72094,77.8814815 104.72094,77.8814815 C104.72094,77.8814815 94.7927583,82.3740741 85.9074061,82.6888889 L85.9074061,82.6888889 Z" id="Fill-6" fill="#123368"></path>
                <path d="M181.653236,38.2740741 C182.071849,36.3925926 182.59419,34.7222222 183.116531,32.8407407 L184.685406,32.8407407 C185.102167,32.8407407 185.626361,33.05 185.415202,33.7814815 C185.207747,34.7222222 184.476099,34.9296296 183.638872,34.9296296 C183.429565,34.9296296 183.116531,34.8259259 183.012804,34.8259259 C183.325838,35.9759259 183.744452,37.1240741 184.057486,38.2740741 L185.626361,38.2740741 C185.102167,37.3333333 184.685406,36.3925926 184.266792,35.4537037 C184.892861,35.4537037 186.252429,35.2444444 186.565463,33.6759259 C186.880349,32.5259259 186.252429,32.1092593 185.102167,32.1092593 L182.175577,32.1092593 C181.653236,34.0944444 181.025315,36.1851852 180.502974,38.2740741 L181.653236,38.2740741 Z M182.175577,40.5740741 C185.730088,40.5740741 188.343645,38.1703704 189.075292,35.1388889 C189.80694,32.4222222 188.656679,30.0185185 185.102167,30.0185185 C181.653236,30.0185185 178.935952,32.4222222 178.204304,35.4537037 C177.576383,38.1703704 178.621065,40.5740741 182.175577,40.5740741 Z M182.384883,39.737037 C179.771327,39.737037 178.830372,37.7518519 179.354565,35.4537037 C179.980633,32.8407407 182.281156,30.8555556 184.892861,30.8555556 C187.506417,30.8555556 188.552952,32.8407407 187.925031,35.1388889 C187.297111,37.7518519 184.99844,39.737037 182.384883,39.737037 L182.384883,39.737037 Z" id="Fill-7" fill="#123368"></path>
                <path d="M36.0479288,70.2518519 C37.6168038,66.4907407 39.7061674,61.5777778 42.5290311,54.5777778 C35.4200083,59.3833333 18.0697697,58.8611111 14.8301447,68.162963 C13.0519629,73.0740741 17.2325424,74.6407407 21.413122,74.3277778 C27.9998038,73.9092593 36.0479288,70.2518519 36.0479288,70.2518519 Z M14.3059515,82.6888889 C-2.41821895,83.3148148 -0.640037128,72.6555556 1.03071287,67.9537037 C8.45276969,46.8444444 42.8420651,53.637037 46.9189174,42.35 C48.695247,37.3333333 43.2606788,36.2888889 39.3931333,36.6018519 C34.4790538,37.1240741 31.7617697,37.7518519 27.5811901,38.7962963 L30.8208151,30.2277778 C36.3609629,29.3925926 38.4521788,28.8685185 46.1872697,28.3462963 C55.2800765,27.6148148 65.6287242,30.5407407 61.551872,41.8277778 C58.9383151,49.2481481 51.3088038,65.7592593 45.6649288,81.4333333 L31.7617697,81.5388889 C32.4934174,80.0759259 33.2250651,77.8814815 33.2250651,77.8814815 C33.2250651,77.8814815 23.2950311,82.3740741 14.3059515,82.6888889 L14.3059515,82.6888889 Z" id="Fill-8" fill="#123368"></path>
                <path d="M78.2760424,45.0666667 C74.9308379,54.0537037 64.4784629,81.4333333 64.4784629,81.4333333 L50.1585424,81.5388889 C50.5771561,80.5981481 58.6252811,59.5925926 64.3747356,44.3351852 C70.6465311,29.8092593 78.0685879,27.5111111 89.2526106,28.0333333 C92.3885083,28.137037 95.8374401,28.7648148 98.7640311,29.287037 L94.8964856,38.2740741 C89.0433038,36.9166667 81.5175197,36.1851852 78.2760424,45.0666667" id="Fill-9" fill="#123368"></path>
            </g>
        </g>
    </g>
</svg>