<?xml version="1.0" encoding="UTF-8"?>
<svg id="katman_1" xmlns="http://www.w3.org/2000/svg" xmlns:xlink="http://www.w3.org/1999/xlink" viewBox="0 0 700 200">
  <defs>
    <style>
      .cls-1 {
        fill: url(#linear-gradient-2);
      }

      .cls-2 {
        fill: url(#linear-gradient-4);
      }

      .cls-3 {
        fill: url(#linear-gradient-3);
      }

      .cls-4 {
        fill: #ea555b;
      }

      .cls-5 {
        fill: #010101;
      }

      .cls-6 {
        fill: url(#linear-gradient);
      }
    </style>
    <linearGradient id="linear-gradient" x1="82.25" y1="66.5" x2="39.5" y2="157.77" gradientUnits="userSpaceOnUse">
      <stop offset="0" stop-color="#5cbdec"/>
      <stop offset="1" stop-color="#416ab2"/>
    </linearGradient>
    <linearGradient id="linear-gradient-2" x1="93.03" y1="121.78" x2="89.24" y2="34.55" gradientUnits="userSpaceOnUse">
      <stop offset="0" stop-color="#ef7b60"/>
      <stop offset="1" stop-color="#fab74d"/>
    </linearGradient>
    <linearGradient id="linear-gradient-3" x1="93.58" y1="172.31" x2="147.63" y2="55.67" gradientUnits="userSpaceOnUse">
      <stop offset="0" stop-color="#5eb6e7"/>
      <stop offset=".03" stop-color="#60b3e5"/>
      <stop offset="1" stop-color="#e83974"/>
    </linearGradient>
    <linearGradient id="linear-gradient-4" x1="135.45" y1="191.71" x2="189.5" y2="75.08" xlink:href="#linear-gradient-3"/>
  </defs>
  <g>
    <path class="cls-4" d="M143.61,172.73c-.16.09-.32.17-.49.26v-.02c.16-.08.32-.16.49-.24Z"/>
    <path class="cls-6" d="M99.23,79.04c-2.3,3.72-7.18,4.88-10.9,2.59-6.4-3.94-13.75-6.21-21.26-6.55-7.73-.35-15.46,1.38-22.36,4.98-6.9,3.61-12.73,8.97-16.86,15.51-4.01,6.36-6.35,13.69-6.77,21.19-.44,7.88,1.28,15.78,4.96,22.82,9.45,18.09,29.78,26.9,48.82,22.6,4.67,4.54,10.07,8.3,16.02,11.12-8.13,3.87-16.87,5.84-25.67,5.84-6.03,0-12.09-.92-18.01-2.78-15.28-4.79-27.78-15.25-35.2-29.45-4.97-9.51-7.3-20.15-6.75-30.81,0-.07,0-.15.01-.22.57-10.19,3.74-20.14,9.19-28.77,4.34-6.88,10.06-12.79,16.75-17.39,1.98-1.36,4.04-2.6,6.17-3.71,3.93-2.05,8.06-3.66,12.31-4.79,5.88-1.58,11.99-2.25,18.1-1.98,10.2.46,20.18,3.53,28.87,8.89,3.72,2.3,4.88,7.18,2.59,10.9Z"/>
    <path class="cls-1" d="M149.01,91.32c-.34,1.41-.72,2.82-1.16,4.22-4.79,15.28-15.25,27.78-29.44,35.2-1.17.61-2.43.9-3.66.9-2.86,0-5.62-1.55-7.03-4.26-2.03-3.88-.53-8.67,3.35-10.69,10.44-5.46,18.14-14.65,21.66-25.9,3.53-11.24,2.46-23.19-3-33.63-3.68-7.04-9.18-12.96-15.9-17.1-.07-.04-.13-.08-.2-.12-.01,0-.02-.01-.03-.02-6.34-3.86-13.61-6.08-21.03-6.41-7.73-.35-15.46,1.38-22.36,4.98-6.9,3.61-12.73,8.97-16.86,15.51-1.45,2.29-2.68,4.71-3.67,7.22-4.25,1.13-8.38,2.74-12.31,4.79-2.13,1.12-4.19,2.36-6.17,3.71,1.14-8.57,4.13-16.85,8.75-24.18,5.62-8.9,13.54-16.2,22.92-21.1,9.38-4.9,19.89-7.24,30.41-6.77,10.2.46,20.18,3.53,28.87,8.89h0c9.15,5.65,16.63,13.69,21.63,23.26,3.52,6.74,5.69,13.93,6.49,21.26.74,6.71.32,13.53-1.26,20.23Z"/>
    <g>
      <path class="cls-3" d="M172.57,137.79c-4.56,14.54-14.25,26.57-27.41,34.09,0,0-.02.01-.02.02-.44.25-.89.5-1.34.74-.06.03-.12.06-.18.09-.16.08-.33.16-.49.24-8.33,4.1-17.33,6.18-26.39,6.18-6.03,0-12.09-.92-18.01-2.78-2.7-.85-5.32-1.87-7.84-3.06-5.96-2.82-11.35-6.57-16.02-11.12-4.51-4.39-8.34-9.52-11.34-15.26-5-9.57-7.33-20.3-6.74-31.04.24-4.37,3.98-7.71,8.35-7.47,4.37.24,7.72,3.98,7.47,8.35-.44,7.89,1.28,15.78,4.96,22.82,5.46,10.44,14.65,18.14,25.9,21.66,11.01,3.45,22.68,2.5,32.97-2.66,10.12-5.49,17.57-14.54,21.02-25.56,3.53-11.24,2.46-23.19-3-33.63-1.52-2.91-3.35-5.62-5.44-8.09,1.58-6.7,2-13.52,1.26-20.23,7.6,5.44,13.86,12.63,18.23,20.99,7.42,14.2,8.86,30.43,4.07,45.71Z"/>
      <path class="cls-2" d="M145.13,171.89c-.22.15-.46.29-.71.42-.21.11-.43.22-.64.33.45-.24.9-.49,1.34-.74Z"/>
    </g>
    <path class="cls-4" d="M143.61,11.19c-.16.09-.32.17-.49.26v-.02c.16-.08.32-.16.49-.24Z"/>
  </g>
  <g>
    <path class="cls-5" d="M218.2,138.09c-6.88-6.88-10.33-15.68-10.33-26.39s3.44-19.5,10.45-26.26c7.01-6.88,15.94-10.33,27.03-10.33,14.4,0,27.15,7.14,32.89,19.89l-15.94,8.54c-4.08-6.63-9.56-9.94-16.57-9.94-5.23,0-9.43,1.78-12.88,5.23s-5.1,7.78-5.1,12.88,1.66,9.69,4.97,13.13c3.44,3.44,7.65,5.1,12.75,5.1,7.01,0,13.51-4.08,16.44-9.82l16.19,9.56c-6.12,11.35-18.48,18.61-33.14,18.61-10.96,0-19.89-3.44-26.77-10.2Z"/>
    <path class="cls-5" d="M392.21,82.64c5.48,5.1,8.16,12.37,8.16,21.67v42.45h-20.01v-38.63c0-9.69-5.23-14.79-12.88-14.79-8.29,0-14.28,5.86-14.28,15.42v37.99h-20.01v-38.5c0-9.31-5.35-14.91-13.13-14.91-8.16,0-14.15,5.86-14.15,15.55v37.86h-20.01v-69.86h19.5v9.94c3.95-7.52,12.49-11.98,21.54-11.86,8.54,0,16.32,3.82,20.01,11.86,5.23-7.65,14.66-11.86,24.73-11.86,8.29,0,15.04,2.55,20.52,7.65Z"/>
    <path class="cls-5" d="M471.24,78.56h7.39v68.2h-7.39v-13.26c-5.74,9.31-15.55,14.91-26.9,14.91-9.69,0-17.72-3.44-24.22-10.33-6.5-7.01-9.69-15.55-9.69-25.75s3.19-18.48,9.56-25.24c6.5-6.76,14.53-10.2,24.35-10.2,11.34,0,21.16,5.48,26.9,14.79v-13.13ZM464.23,132.99c5.1-5.61,7.65-12.49,7.65-20.65s-2.55-14.66-7.65-20.14c-5.1-5.48-11.6-8.29-19.5-8.29s-14.28,2.8-19.25,8.29c-4.97,5.48-7.39,12.37-7.39,20.4s2.42,15.04,7.39,20.52c4.97,5.48,11.47,8.29,19.25,8.29s14.4-2.8,19.5-8.41Z"/>
    <path class="cls-5" d="M550.92,87.23c6.5,6.88,9.69,15.3,9.69,25.37s-3.19,18.48-9.69,25.37c-6.5,6.88-14.53,10.33-24.22,10.33-11.73,0-21.54-5.61-27.28-15.17v41.68h-7.65v-96.24h7.65v13.9c5.74-9.82,15.55-15.68,27.28-15.68,9.69,0,17.72,3.44,24.22,10.45ZM545.44,132.99c4.97-5.48,7.52-12.37,7.52-20.4s-2.55-14.91-7.52-20.4c-4.97-5.48-11.35-8.29-19.12-8.29s-14.41,2.8-19.5,8.41c-5.1,5.61-7.65,12.49-7.65,20.52s2.55,14.66,7.65,20.14c5.1,5.48,11.6,8.29,19.5,8.29s14.15-2.8,19.12-8.29Z"/>
    <path class="cls-5" d="M630.72,87.23c6.5,6.88,9.69,15.3,9.69,25.37s-3.19,18.48-9.69,25.37c-6.5,6.88-14.53,10.33-24.22,10.33-11.73,0-21.54-5.61-27.28-15.17v41.68h-7.65v-96.24h7.65v13.9c5.74-9.82,15.55-15.68,27.28-15.68,9.69,0,17.72,3.44,24.22,10.45ZM625.24,132.99c4.97-5.48,7.52-12.37,7.52-20.4s-2.55-14.91-7.52-20.4c-4.97-5.48-11.35-8.29-19.12-8.29s-14.4,2.8-19.5,8.41c-5.1,5.61-7.65,12.49-7.65,20.52s2.55,14.66,7.65,20.14c5.1,5.48,11.6,8.29,19.5,8.29s14.15-2.8,19.12-8.29Z"/>
    <path class="cls-5" d="M647.54,133.37l6.12-3.82c3.95,7.9,9.94,11.86,17.97,11.86,9.18,0,15.55-5.86,15.55-12.88,0-4.46-2.93-8.16-8.67-11.09-1.53-.76-4.21-1.91-8.16-3.44-3.95-1.66-6.63-2.8-8.16-3.7-7.27-3.7-10.84-9.05-10.84-15.93,0-10.33,8.16-18.1,20.91-18.1,9.31,0,16.19,3.57,20.52,10.71l-5.35,4.33c-3.19-5.48-8.29-8.29-15.3-8.29-8.54,0-13.38,4.59-13.38,11.09,0,4.46,2.42,7.9,7.39,10.33l7.65,3.31c3.95,1.66,7.01,2.93,9.05,3.95,7.78,3.7,11.98,8.54,11.98,16.32,0,5.74-2.17,10.45-6.5,14.41-4.33,3.95-9.94,5.86-16.7,5.86-10.07,0-19.12-4.84-24.09-14.91Z"/>
  </g>
</svg>