<?xml version="1.0" encoding="iso-8859-1"?>
<!-- Generator: Adobe Illustrator 19.0.0, SVG Export Plug-In . SVG Version: 6.00 Build 0)  -->
<svg xmlns="http://www.w3.org/2000/svg" xmlns:xlink="http://www.w3.org/1999/xlink" version="1.1" id="Capa_1" x="0px" y="0px" viewBox="0 0 479.998 479.998" style="enable-background:new 0 0 479.998 479.998;" xml:space="preserve" width="512px" height="512px">
<g>
	<g>
		<path d="M141.656,402.342l-40-40c-3.124-3.123-8.188-3.123-11.312,0l-40,40c-3.124,3.125-3.123,8.19,0.002,11.314    c1.5,1.499,3.534,2.342,5.654,2.342h8v56c0,4.418,3.582,8,8,8h48c4.418,0,8-3.582,8-8v-56h8c4.418-0.001,7.999-3.583,7.998-8.002    C143.998,405.876,143.155,403.842,141.656,402.342z M112,407.998v56H80v-56c0.002-3.337-2.067-6.325-5.192-7.496L96,379.31    l21.192,21.192C114.067,401.674,111.998,404.661,112,407.998z" fill="#5d6e76"/>
	</g>
</g>
<g>
	<g>
		<path d="M216,375.998h-48c-4.418,0-8,3.582-8,8v88c0,4.418,3.582,8,8,8h48c4.418,0,8-3.582,8-8v-88    C224,379.58,220.418,375.998,216,375.998z M208,463.998h-32v-72h32V463.998z" fill="#5d6e76"/>
	</g>
</g>
<g>
	<g>
		<path d="M312,375.998h-48c-4.418,0-8,3.582-8,8v88c0,4.418,3.582,8,8,8h48c4.418,0,8-3.582,8-8v-88    C320,379.58,316.418,375.998,312,375.998z M304,463.998h-32v-72h32V463.998z" fill="#5d6e76"/>
	</g>
</g>
<g>
	<g>
		<path d="M408,375.998h-48c-4.418,0-8,3.582-8,8v88c0,4.418,3.582,8,8,8h48c4.418,0,8-3.582,8-8v-88    C416,379.58,412.418,375.998,408,375.998z M400,463.998h-32v-72h32V463.998z" fill="#5d6e76"/>
	</g>
</g>
<g>
	<g>
		<path d="M312,255.998h-48c-4.418,0-8,3.582-8,8v88c0,4.418,3.582,8,8,8h48c4.418,0,8-3.582,8-8v-88    C320,259.58,316.418,255.998,312,255.998z M304,343.998h-32v-72h32V343.998z" fill="#5d6e76"/>
	</g>
</g>
<g>
	<g>
		<path d="M408,255.998h-48c-4.418,0-8,3.582-8,8v88c0,4.418,3.582,8,8,8h48c4.418,0,8-3.582,8-8v-88    C416,259.58,412.418,255.998,408,255.998z M400,343.998h-32v-72h32V343.998z" fill="#5d6e76"/>
	</g>
</g>
<g>
	<g>
		<path d="M408,135.998h-48c-4.418,0-8,3.582-8,8v88c0,4.418,3.582,8,8,8h48c4.418,0,8-3.582,8-8v-88    C416,139.58,412.418,135.998,408,135.998z M400,223.998h-32v-72h32V223.998z" fill="#5d6e76"/>
	</g>
</g>
<g>
	<g>
		<path d="M237.656,282.342l-40-40c-3.124-3.123-8.188-3.123-11.312,0l-40,40c-3.124,3.125-3.123,8.19,0.002,11.314    c1.5,1.499,3.534,2.342,5.654,2.342h8v56c0,4.418,3.582,8,8,8h48c4.418,0,8-3.582,8-8v-56h8c4.418-0.001,7.999-3.583,7.998-8.002    C239.998,285.876,239.155,283.842,237.656,282.342z M208,287.998v56h-32v-56c0.002-3.337-2.067-6.325-5.192-7.496L192,259.31    l21.192,21.192C210.067,281.674,207.998,284.661,208,287.998z" fill="#5d6e76"/>
	</g>
</g>
<g>
	<g>
		<path d="M333.656,162.342l-40-40c-3.124-3.123-8.188-3.123-11.312,0l-40,40c-3.124,3.125-3.123,8.19,0.002,11.314    c1.5,1.499,3.534,2.342,5.654,2.342h8v56c0,4.418,3.582,8,8,8h48c4.418,0,8-3.582,8-8v-56h8c4.418-0.001,7.999-3.583,7.998-8.002    C335.998,165.876,335.155,163.842,333.656,162.342z M304,167.998v56h-32v-56c0.002-3.337-2.067-6.325-5.192-7.496L288,139.31    l21.192,21.192C306.067,161.674,303.998,164.661,304,167.998z" fill="#5d6e76"/>
	</g>
</g>
<g>
	<g>
		<path d="M429.656,42.342l-40-40c-3.124-3.123-8.188-3.123-11.312,0l-40,40c-3.124,3.125-3.123,8.19,0.002,11.314    c1.5,1.499,3.534,2.342,5.654,2.342h8v56c0,4.418,3.582,8,8,8h48c4.418,0,8-3.582,8-8v-56h8c4.418-0.001,7.999-3.583,7.998-8.002    C431.998,45.876,431.155,43.842,429.656,42.342z M400,47.998v56h-32v-56c0.002-3.337-2.067-6.325-5.192-7.496L384,19.31    l21.192,21.192C402.067,41.674,399.998,44.661,400,47.998z" fill="#5d6e76"/>
	</g>
</g>
<g>
	<g>
		<rect x="48" y="23.998" width="104" height="16" fill="#5d6e76"/>
	</g>
</g>
<g>
	<g>
		<rect x="48" y="55.998" width="104" height="16" fill="#5d6e76"/>
	</g>
</g>
<g>
	<g>
		<rect x="48" y="87.998" width="72" height="16" fill="#5d6e76"/>
	</g>
</g>
<g>
	<g>
		<rect x="48" y="119.998" width="72" height="16" fill="#5d6e76"/>
	</g>
</g>
<g>
</g>
<g>
</g>
<g>
</g>
<g>
</g>
<g>
</g>
<g>
</g>
<g>
</g>
<g>
</g>
<g>
</g>
<g>
</g>
<g>
</g>
<g>
</g>
<g>
</g>
<g>
</g>
<g>
</g>
</svg>
