<?xml version="1.0" encoding="UTF-8"?>
<svg width="527px" height="157px" viewBox="0 0 527 157" version="1.1" xmlns="http://www.w3.org/2000/svg" xmlns:xlink="http://www.w3.org/1999/xlink">
    <!-- Generator: Sketch 52.2 (67145) - http://www.bohemiancoding.com/sketch -->
    <title>29111</title>
    <desc>Created with Sketch.</desc>
    <g id="29111" stroke="none" stroke-width="1" fill="none" fill-rule="evenodd">
        <g id="Kargo" transform="translate(336.000000, 13.000000)">
            <polyline id="Fill-37" fill="#F0ECDB" points="110.171 99.007 93.345 89.293 110.171 79.578 121.16 99.007 110.171 99.007"></polyline>
            <polyline id="Fill-38" fill="#F0ECDB" points="85.068 85.445 68.242 75.731 85.068 66.016 96.058 85.445 85.068 85.445"></polyline>
            <polyline id="Fill-39" fill="#F0ECDB" points="36.172 120.259 11.114 105.792 61.673 76.602 47.161 120.259 36.172 120.259"></polyline>
            <polyline id="Fill-40" fill="#F0ECDB" points="39.224 84.134 13.9 69.513 38 55.599 50.208 84.134 39.224 84.134"></polyline>
            <polyline id="Fill-41" fill="#B68D66" points="74.309 14.969 74.309 70.224 63.498 76.464 60.798 78.024 50.208 84.134 50.208 28.88 60.798 22.769 74.309 14.969"></polyline>
            <polyline id="Fill-42" fill="#987656" points="50.208 28.88 50.208 84.134 38.738 77.514 36.028 75.944 24.889 69.514 24.889 14.259 36.028 20.699 38.738 22.259 50.208 28.88"></polyline>
            <path d="M44.295,32.904 L48.426,35.288 L48.426,30.551 L44.295,28.165 L44.295,32.904 Z M48.738,35.83 L43.982,33.084 L43.982,27.623 L48.738,30.37 L48.738,35.83 Z" id="Fill-43" fill="#70543C"></path>
            <polyline id="Fill-44" fill="#70543C" points="46.885 34.082 45.836 33.476 45.836 30.726 46.885 31.332 46.885 34.082"></polyline>
            <polyline id="Fill-45" fill="#70543C" points="47.916 32.451 44.804 30.654 46.36 29.675 47.916 32.451"></polyline>
            <polyline id="Fill-46" fill="#DBAA7D" points="50.213 28.882 24.889 14.261 48.989 0.346 74.313 14.967 50.213 28.882"></polyline>
            <polyline id="Fill-47" fill="#E0BF9C" points="60.796 22.771 35.472 8.151 38.175 6.59 63.499 21.21 60.796 22.771"></polyline>
            <polyline id="Fill-48" fill="#86684A" points="38.738 22.259 38.738 77.514 36.028 75.944 36.028 20.699 38.738 22.259"></polyline>
            <polyline id="Fill-49" fill="#423E36" points="38.736 22.256 36.032 20.695 38.737 22.256 38.736 22.256"></polyline>
            <path d="M38.737,22.256 L36.033,20.694 L46.615,14.584 L49.32,16.145 L38.736,22.256 M52.023,14.585 L49.319,13.024 L60.133,6.78 L62.837,8.341 L52.023,14.585" id="Fill-50" fill="#E6C096"></path>
            <polyline id="Fill-51" fill="#EBD0B0" points="49.32 16.145 46.615 14.584 49.319 13.024 52.023 14.585 49.32 16.145"></polyline>
            <polyline id="Fill-52" fill="#70543C" points="24.889 14.26 50.213 28.882 36.885 21.571 24.889 14.26"></polyline>
            <polyline id="Fill-53" fill="#70543C" points="74.313 14.967 50.213 28.882 63.541 21.571 74.313 14.967"></polyline>
            <polyline id="Fill-54" fill="#C09B7B" points="36.645 7.473 36.836 7.363 49.247 14.529 61.4 7.512 61.586 7.619 49.434 14.635 62.16 21.984 61.969 22.094 49.242 14.746 37.485 21.533 37.3 21.427 49.056 14.639 36.645 7.473"></polyline>
            <polyline id="Fill-55" fill="#C9A27A" points="63.498 21.21 63.498 76.464 60.798 78.024 60.798 22.769 63.498 21.21"></polyline>
            <polyline id="Fill-56" fill="#B68D66" points="96.058 85.445 112.883 75.731 112.883 56.423 96.058 66.137 96.058 85.445"></polyline>
            <polyline id="Fill-57" fill="#70543C" points="112.883 56.423 96.058 66.137 105.136 61.28 112.883 56.423"></polyline>
            <polyline id="Fill-58" fill="#987656" points="96.058 85.445 79.232 75.731 79.232 56.423 96.058 66.137 96.058 85.445"></polyline>
            <path d="M91.714,68.444 L94.797,70.224 L94.797,66.687 L91.714,64.906 L91.714,68.444 Z M95.031,70.628 L91.48,68.578 L91.48,64.502 L95.031,66.552 L95.031,70.628 Z" id="Fill-59" fill="#70543C"></path>
            <polyline id="Fill-60" fill="#70543C" points="93.646 69.323 92.863 68.871 92.863 66.818 93.646 67.27 93.646 69.323"></polyline>
            <polyline id="Fill-61" fill="#70543C" points="94.417 68.106 92.094 66.764 93.255 66.033 94.417 68.106"></polyline>
            <polyline id="Fill-62" fill="#DBAA7D" points="96.058 66.137 79.232 56.423 96.058 46.709 112.883 56.423 96.058 66.137"></polyline>
            <polyline id="Fill-63" fill="#C9A27A" points="103.64 69.387 106.343 67.826 106.343 60.199 103.64 61.76 103.64 69.387"></polyline>
            <polyline id="Fill-64" fill="#E0BF9C" points="103.64 61.76 86.814 52.046 89.518 50.485 106.343 60.199 103.64 61.76"></polyline>
            <polyline id="Fill-65" fill="#70543C" points="79.232 56.423 96.058 66.137 86.979 61.28 79.232 56.423"></polyline>
            <polyline id="Fill-66" fill="#86684A" points="88.759 69.551 86.056 67.991 86.056 60.363 88.759 61.924 88.759 69.551"></polyline>
            <path d="M88.759,61.924 L86.056,60.363 L93.638,55.985 L96.341,57.546 L88.759,61.924 M99.045,55.985 L96.341,54.424 L102.881,50.649 L105.584,52.21 L99.045,55.985" id="Fill-67" fill="#E6C096"></path>
            <polyline id="Fill-68" fill="#EBD0B0" points="96.341 57.546 93.638 55.985 96.341 54.424 99.045 55.985 96.341 57.546"></polyline>
            <polyline id="Fill-69" fill="#9A8165" points="88.759 61.924 88.759 61.924 86.056 60.363 88.759 61.924"></polyline>
            <polyline id="Fill-70" fill="#C09B7B" points="87.509 61.202 104.334 51.488 104.148 51.38 87.322 61.094 87.509 61.202"></polyline>
            <polyline id="Fill-71" fill="#C09B7B" points="87.322 61.094 96.263 55.933 88.172 51.262 88.332 51.169 96.423 55.84 104.148 51.38 104.334 51.488 96.609 55.947 105.158 60.883 104.997 60.976 96.448 56.041 87.509 61.202 87.322 61.094"></polyline>
            <polyline id="Fill-72" fill="#987656" points="88.759 61.924 88.759 62.239 87.11 61.357 86.056 60.695 86.056 60.363 88.759 61.924"></polyline>
            <polyline id="Fill-73" fill="#987656" points="105.136 61.28 103.64 62.081 103.64 61.76 106.343 60.199 106.343 60.524 105.136 61.28"></polyline>
            <polyline id="Fill-74" fill="#B68D66" points="121.16 99.007 137.985 89.293 137.985 77.226 121.16 86.94 121.16 99.007"></polyline>
            <polyline id="Fill-75" fill="#987656" points="121.16 99.007 104.334 89.293 104.334 77.226 121.16 86.94 121.16 99.007"></polyline>
            <path d="M116.735,89.54 L119.818,91.321 L119.818,87.783 L116.735,86.003 L116.735,89.54 Z M120.053,91.725 L116.501,89.675 L116.501,85.599 L120.053,87.649 L120.053,91.725 Z" id="Fill-76" fill="#70543C"></path>
            <polyline id="Fill-77" fill="#70543C" points="118.668 90.42 117.885 89.968 117.885 87.915 118.668 88.367 118.668 90.42"></polyline>
            <polyline id="Fill-78" fill="#70543C" points="119.439 89.202 117.115 87.861 118.276 87.13 119.439 89.202"></polyline>
            <polyline id="Fill-79" fill="#DBAA7D" points="121.16 86.94 104.334 77.226 121.16 67.512 137.985 77.226 121.16 86.94"></polyline>
            <polyline id="Fill-80" fill="#86684A" points="113.933 90.395 111.23 88.834 111.23 81.207 113.933 82.768 113.933 90.395"></polyline>
            <polyline id="Fill-81" fill="#423E36" points="128.37 71.674 128.055 71.492 128.37 71.674"></polyline>
            <polyline id="Fill-82" fill="#B89878" points="113.933 82.768 113.933 82.768 111.712 81.486 113.933 82.768"></polyline>
            <polyline id="Fill-83" fill="#E6C096" points="113.933 82.768 111.712 81.486 111.23 81.207 128.055 71.492 128.37 71.674 130.758 73.053 113.933 82.768"></polyline>
            <polyline id="Fill-84" fill="#A98F6F" points="113.933 82.768 111.23 81.207 111.712 81.486 113.933 82.768"></polyline>
            <polyline id="Fill-85" fill="#70543C" points="104.334 77.226 121.16 86.94 112.081 82.083 104.334 77.226"></polyline>
            <polyline id="Fill-86" fill="#C09B7B" points="112.683 82.046 129.508 72.332 129.322 72.224 112.496 81.938 112.683 82.046"></polyline>
            <polyline id="Fill-87" fill="#F0ECDB" points="16.825 93.444 0 83.73 16.825 74.015 27.815 93.444 16.825 93.444"></polyline>
            <polyline id="Fill-88" fill="#B68D66" points="27.815 93.444 44.641 83.73 44.641 64.423 27.815 74.137 27.815 93.444"></polyline>
            <polyline id="Fill-89" fill="#987656" points="27.815 93.444 10.989 83.73 10.989 64.423 27.815 74.137 27.815 93.444"></polyline>
            <path d="M23.347,76.531 L26.43,78.312 L26.43,74.775 L23.347,72.995 L23.347,76.531 Z M26.664,78.717 L23.112,76.666 L23.112,72.59 L26.664,74.64 L26.664,78.717 Z" id="Fill-90" fill="#70543C"></path>
            <polyline id="Fill-91" fill="#70543C" points="25.28 77.411 24.497 76.959 24.497 74.906 25.28 75.359 25.28 77.411"></polyline>
            <polyline id="Fill-92" fill="#70543C" points="26.05 76.194 23.727 74.852 24.889 74.122 26.05 76.194"></polyline>
            <polyline id="Fill-93" fill="#DBAA7D" points="27.815 74.137 10.989 64.423 27.815 54.708 44.641 64.423 27.815 74.137"></polyline>
            <polyline id="Fill-94" fill="#C9A27A" points="35.397 77.386 38.101 75.825 38.101 68.198 35.397 69.759 35.397 77.386"></polyline>
            <polyline id="Fill-95" fill="#E0BF9C" points="35.397 69.759 18.571 60.045 21.275 58.484 38.101 68.198 35.397 69.759"></polyline>
            <polyline id="Fill-96" fill="#C09B7B" points="36.649 69.037 19.822 59.322 19.975 59.235 36.801 68.949 36.649 69.037"></polyline>
            <polyline id="Fill-97" fill="#70543C" points="10.989 64.423 27.815 74.137 18.735 69.28 10.989 64.423"></polyline>
            <polyline id="Fill-98" fill="#B68D66" points="47.161 120.259 97.72 91.069 97.72 84.381 47.161 113.571 47.161 120.259"></polyline>
            <polyline id="Fill-99" fill="#987656" points="47.161 120.259 22.103 105.792 22.103 99.104 47.161 113.57 47.161 120.259"></polyline>
            <path d="M43.337,115.321 L45.944,116.827 L45.944,113.836 L43.337,112.331 L43.337,115.321 Z M46.142,117.169 L43.14,115.435 L43.14,111.989 L46.142,113.722 L46.142,117.169 Z" id="Fill-100" fill="#70543C"></path>
            <polyline id="Fill-101" fill="#70543C" points="44.972 116.065 44.31 115.683 44.31 113.947 44.972 114.329 44.972 116.065"></polyline>
            <polyline id="Fill-102" fill="#70543C" points="45.622 115.036 43.658 113.902 44.641 113.284 45.622 115.036"></polyline>
            <polyline id="Fill-103" fill="#DBAA7D" points="47.161 113.57 22.103 99.104 72.662 69.914 97.72 84.381 47.161 113.57"></polyline>
            <polyline id="Fill-104" fill="#C9A27A" points="71.609 104.635 74.313 103.073 74.313 97.894 71.609 99.455 71.609 104.635"></polyline>
            <polyline id="Fill-105" fill="#E0BF9C" points="71.609 99.455 46.552 84.988 49.255 83.427 74.313 97.894 71.609 99.455"></polyline>
            <polyline id="Fill-106" fill="#70543C" points="22.103 99.104 47.161 113.57 33.966 106.337 22.103 99.104"></polyline>
            <polyline id="Fill-107" fill="#86684A" points="35.746 112.16 33.043 110.599 33.043 105.42 35.746 106.981 35.746 112.16"></polyline>
            <polyline id="Fill-108" fill="#E6C096" points="35.746 106.981 33.924 105.928 33.043 105.42 57.492 91.304 58.758 92.036 34.31 106.151 34.496 106.259 58.945 92.143 60.195 92.865 35.746 106.981"></polyline>
            <path d="M60.195,92.865 L58.945,92.143 L60.277,91.374 L61.527,92.096 L60.195,92.865 M58.758,92.036 L57.492,91.304 L58.825,90.535 L60.091,91.267 L58.758,92.036" id="Fill-109" fill="#EBD0B0"></path>
            <polyline id="Fill-110" fill="#9A8165" points="35.746 106.981 35.746 106.981 33.924 105.928 35.746 106.981"></polyline>
            <path d="M71.609,86.275 L71.609,84.831 L85.055,77.069 L86.305,77.791 L71.609,86.275 M71.609,84.616 L71.609,84.092 L81.55,78.352 L81.896,78.153 L84.414,76.699 L84.901,76.98 L84.868,76.961 L71.609,84.616" id="Fill-111" fill="#E6C096"></path>
            <polyline id="Fill-112" fill="#A98F6F" points="35.746 106.981 33.043 105.42 33.924 105.928 35.746 106.981"></polyline>
            <polyline id="Fill-113" fill="#C09B7B" points="34.496 106.259 85.055 77.069 84.868 76.961 34.31 106.151 34.496 106.259"></polyline>
            <polyline id="Fill-114" fill="#C09B7B" points="35.746 106.981 35.746 107.295 34.099 106.414 33.043 105.752 33.043 105.42 35.746 106.981"></polyline>
            <polyline id="Fill-115" fill="#B3825D" points="71.608 92.144 64.353 92.144 62.899 91.304 66.529 89.208 71.606 92.139 71.608 92.144"></polyline>
            <polyline id="Fill-116" fill="#B58F6E" points="64.353 92.144 61.608 92.144 61.527 92.096 62.899 91.304 64.353 92.144"></polyline>
            <polyline id="Fill-117" fill="#B9906B" points="62.899 91.304 61.648 90.582 65.279 88.486 66.529 89.208 62.899 91.304"></polyline>
            <polyline id="Fill-118" fill="#BD9A7A" points="61.527 92.096 60.277 91.374 61.648 90.582 62.899 91.304 61.527 92.096"></polyline>
            <polyline id="Fill-119" fill="#CBB8A2" points="47.891 84.215 47.889 84.214 48.027 84.134 48.031 84.134 47.891 84.215"></polyline>
            <polyline id="Fill-120" fill="#C0AD92" points="48.031 84.134 48.027 84.134 49.118 83.505 49.119 83.506 48.031 84.134"></polyline>
            <polyline id="Fill-121" fill="#966B4B" points="50.208 82.877 50.208 82.875 54.784 80.233 54.784 80.235 50.208 82.877"></polyline>
            <polyline id="Fill-122" fill="#7E593F" points="49.119 83.506 49.118 83.505 50.208 82.875 50.208 82.877 49.255 83.428 49.255 83.427 49.119 83.506"></polyline>
            <polyline id="Fill-123" fill="#B3825D" points="60.195 89.743 49.255 83.427 50.208 82.877 54.784 80.235 54.784 82.428 63.826 87.647 60.195 89.743"></polyline>
            <polyline id="Fill-124" fill="#B58F6E" points="58.825 90.535 47.891 84.215 48.031 84.134 49.119 83.506 49.255 83.427 60.195 89.743 58.825 90.535"></polyline>
            <polyline id="Fill-125" fill="#B9906B" points="61.462 90.475 60.195 89.743 63.826 87.647 65.092 88.379 61.462 90.475"></polyline>
            <polyline id="Fill-126" fill="#BD9A7A" points="60.091 91.267 58.825 90.535 60.195 89.743 61.462 90.475 60.091 91.267"></polyline>
            <polyline id="Fill-127" fill="#9D7659" points="60.277 91.374 60.091 91.267 61.462 90.475 65.092 88.379 65.279 88.486 60.277 91.374"></polyline>
            <polyline id="Fill-128" fill="#B68D66" points="71.609 92.141 88.436 82.427 88.436 74.377 71.609 84.092 71.609 92.141"></polyline>
            <polyline id="Fill-129" fill="#987656" points="71.609 92.141 54.784 82.428 54.784 74.377 71.609 84.092 71.609 92.141"></polyline>
            <path d="M67.976,86.188 L70.583,87.694 L70.583,84.703 L67.976,83.198 L67.976,86.188 Z M70.78,88.035 L67.778,86.302 L67.778,82.856 L70.78,84.589 L70.78,88.035 Z" id="Fill-130" fill="#70543C"></path>
            <polyline id="Fill-131" fill="#70543C" points="69.61 86.932 68.948 86.55 68.948 84.814 69.61 85.197 69.61 86.932"></polyline>
            <polyline id="Fill-132" fill="#70543C" points="70.262 85.903 68.297 84.769 69.279 84.151 70.262 85.903"></polyline>
            <polyline id="Fill-133" fill="#DBAA7D" points="71.609 84.092 54.784 74.377 71.609 64.663 88.436 74.377 71.609 84.092"></polyline>
            <polyline id="Fill-134" fill="#C9A27A" points="79.192 87.341 81.896 85.78 81.896 78.153 79.192 79.714 79.192 87.341"></polyline>
            <polyline id="Fill-135" fill="#E0BF9C" points="79.191 79.714 62.366 69.999 65.069 68.439 81.896 78.153 79.191 79.714"></polyline>
            <polyline id="Fill-136" fill="#70543C" points="54.784 74.377 71.609 84.092 62.53 79.234 54.784 74.377"></polyline>
            <polyline id="Fill-137" fill="#86684A" points="64.312 87.505 61.607 85.944 61.607 78.317 64.312 79.878 64.312 87.505"></polyline>
            <polyline id="Fill-138" fill="#423E36" points="79.232 69.063 78.433 68.603 78.434 68.602 79.232 69.063"></polyline>
            <polyline id="Fill-139" fill="#B89878" points="81.137 70.163 79.232 69.063 81.137 70.163"></polyline>
            <path d="M64.312,79.878 L61.607,78.317 L69.19,73.939 L71.894,75.5 L64.312,79.878 M74.597,73.939 L71.893,72.378 L78.434,68.602 L79.232,69.063 L81.137,70.163 L74.597,73.939" id="Fill-140" fill="#E6C096"></path>
            <polyline id="Fill-141" fill="#EBD0B0" points="71.894 75.5 69.19 73.939 71.893 72.378 74.597 73.939 71.894 75.5"></polyline>
            <polyline id="Fill-142" fill="#C09B7B" points="62.875 79.049 71.814 73.887 63.724 69.216 63.885 69.123 71.976 73.794 79.7 69.334 79.887 69.442 72.162 73.902 80.711 78.837 80.55 78.93 72.001 73.994 63.061 79.155 62.875 79.049"></polyline>
            <polyline id="Fill-143" fill="#C09B7B" points="64.312 79.878 64.312 80.193 62.663 79.311 61.607 78.649 61.607 78.317 64.312 79.878"></polyline>
            <polyline id="Fill-144" fill="#70543C" points="88.436 74.377 71.609 84.092 80.688 79.234 88.436 74.377"></polyline>
            <polyline id="Fill-145" fill="#C09B7B" points="80.688 79.234 79.192 80.035 79.192 79.714 81.896 78.153 81.896 78.478 80.688 79.234"></polyline>
        </g>
        <path d="M56.12,42 L67.6,42 C77.24,42 81.52,48.48 81.52,55.8 C81.52,63.12 77.4,70 67.6,70 L56.12,70 L56.12,42 Z M62.28,47.64 L62.28,64.24 L67.6,64.24 C73.68,64.24 75.36,59.76 75.36,55.72 C75.36,51.68 73.44,47.64 67.6,47.64 L62.28,47.64 Z M104.8,62 L90.28,62 C90.56,63.92 92.4,65.48 95.64,65.48 C97.2,65.48 99.36,65.12 100.76,63.92 L104,67.52 C101.88,69.6 98.48,70.44 95.52,70.44 C88.36,70.44 84.44,66.24 84.44,59.92 C84.44,53.92 88.48,49.72 94.92,49.72 C101.64,49.72 106.04,53.92 104.8,62 Z M90.28,57.8 L99.64,57.8 C99.52,55.64 97.32,54.64 94.92,54.64 C92.6,54.64 90.84,55.84 90.28,57.8 Z M123.92,52.24 L121.08,55.84 C119.6,54.8 118.2,54.4 116.4,54.4 C114.52,54.4 113.56,55.08 113.56,56.04 C113.56,57.12 114.56,57.72 116.48,57.76 C120.36,57.88 125.04,58.68 125.08,64.12 C125.12,67.32 122.72,70.76 116.44,70.76 C113.52,70.76 110.52,70.2 107.16,67.4 L109.64,63.32 C112.08,65.32 114.44,65.76 116.52,65.8 C118.2,65.84 119.52,65.16 119.48,64.12 C119.48,63.2 118.8,62.44 116.12,62.36 C112.44,62.2 107.84,60.68 107.84,56.04 C107.84,51.56 112.08,49.68 116.36,49.68 C119.4,49.68 121.84,50.44 123.92,52.24 Z M134.28,50.2 L134.28,70 L128.52,70 L128.52,50.2 L134.28,50.2 Z M128.12,45 C128.12,40.68 134.68,40.68 134.68,45 C134.68,49.32 128.12,49.32 128.12,45 Z M76.2,110 L76.2,97.36 L60.2,97.36 L60.2,110 L56.72,110 L56.72,82 L60.2,82 L60.2,94.12 L76.2,94.12 L76.2,82 L79.68,82 L79.68,110 L76.2,110 Z M104.12,106.84 L104.08,106.84 C102.08,109.2 98.64,110.36 95.56,110.36 C89.44,110.36 85.16,106.32 85.16,100.04 C85.16,94.08 89.44,89.8 95.4,89.8 C101.44,89.8 106.04,93.52 105.28,101.4 L88.48,101.4 C88.84,105.04 91.84,107.32 95.64,107.32 C97.88,107.32 100.6,106.44 101.92,104.84 L104.12,106.84 Z M102.158241,98.64 C101.981622,94.8255576 99.3465063,92.76 95.48,92.76 C92.04,92.76 89.04,94.84 88.48,98.64 L102.158241,98.64 Z M122.56,94.6 L122.52,94.64 C120.8,93.08 119,92.72 116.96,92.72 C114.24,92.68 112.04,93.64 112.08,95.6 C112.12,97.64 114.52,98.24 117,98.52 C120.6,98.96 125.4,99.68 125.32,104.56 C125.24,108.52 121.48,110.48 117.04,110.48 C113.72,110.48 110.44,109.56 108.2,106.76 L110.08,104.48 C111.84,106.64 114.68,107.52 117.12,107.52 C119.28,107.52 122.04,106.84 122.12,104.44 C122.16,102.28 119.84,101.64 116.8,101.28 C113,100.8 108.92,99.8 108.92,95.6 C108.88,91.4 113.12,89.76 116.92,89.8 C119.88,89.8 122.32,90.52 124.44,92.44 L122.56,94.6 Z M146.12,110 L146.04,110.08 L145.96,106.48 C144.4,109.2 141.4,110.48 138.68,110.48 C133,110.48 128.56,106.56 128.56,100.12 C128.56,93.72 133.08,89.88 138.72,89.92 C141.68,89.92 144.6,91.28 146.04,93.84 L146.08,90.24 L149.28,90.24 L149.28,110 L146.12,110 Z M138.88,93 L138.84,93.04 C134.92,93.04 131.76,95.84 131.76,100.24 C131.76,104.64 134.92,107.48 138.84,107.48 C148.36,107.48 148.36,93 138.88,93 Z M155.28,119.32 L155.28,90.32 L158.4,90.32 L158.56,94.12 C160.12,91.48 163.04,89.96 166.16,89.96 C171.84,90.08 176,94.08 176,100.16 C176,106.4 171.88,110.44 165.96,110.44 C163.16,110.44 160.04,109.24 158.48,106.44 L158.48,119.32 L155.28,119.32 Z M165.76,107.36 C169.72,107.36 172.72,104.68 172.72,100.24 C172.72,95.8 169.8,93.16 165.76,93.16 C161.64,93.16 158.84,96.2 158.84,100.24 C158.84,104.28 161.76,107.32 165.76,107.36 Z M184.28,82 L184.28,110 L181,110 L181,82 L184.28,82 Z M206.84,110 L206.76,110.08 L206.68,106.48 C205.12,109.2 202.12,110.48 199.4,110.48 C193.72,110.48 189.28,106.56 189.28,100.12 C189.28,93.72 193.8,89.88 199.44,89.92 C202.4,89.92 205.32,91.28 206.76,93.84 L206.8,90.24 L210,90.24 L210,110 L206.84,110 Z M199.6,93 L199.56,93.04 C195.64,93.04 192.48,95.84 192.48,100.24 C192.48,104.64 195.64,107.48 199.56,107.48 C209.08,107.48 209.08,93 199.6,93 Z M216,90.24 L216.04,90.28 L219.08,90.28 L219.28,93.16 C220.48,90.84 222.88,89.92 225.12,89.92 C227.84,89.92 230.64,91.08 231.76,94.24 C233.2,91.2 235.92,89.92 238.72,89.92 C243.92,89.92 247.04,93.32 247.04,98.72 L247.04,110 L243.76,110 L243.76,98.72 C243.76,95.48 241.88,93 238.64,93 C235.4,93 233.24,95.56 233.24,98.8 L233.24,110 L229.96,110 L229.96,98.8 C229.96,95.56 227.92,93 224.64,93 C221.4,93 219.28,95.56 219.28,98.8 L219.28,110 L216,110 L216,90.24 Z M269.12,110 L269.04,110.08 L268.96,106.48 C267.4,109.2 264.4,110.48 261.68,110.48 C256,110.48 251.56,106.56 251.56,100.12 C251.56,93.72 256.08,89.88 261.72,89.92 C264.68,89.92 267.6,91.28 269.04,93.84 L269.08,90.24 L272.28,90.24 L272.28,110 L269.12,110 Z M261.88,93 L261.84,93.04 C257.92,93.04 254.76,95.84 254.76,100.24 C254.76,104.64 257.92,107.48 261.84,107.48 C271.36,107.48 271.36,93 261.88,93 Z" id="Desi-Hesaplama" fill="#3F3F3F"></path>
    </g>
</svg>