<?xml version="1.0" encoding="UTF-8"?>
<svg width="199px" height="69px" viewBox="0 0 199 69" version="1.1" xmlns="http://www.w3.org/2000/svg" xmlns:xlink="http://www.w3.org/1999/xlink">
    <title>Gelir İdaresi Logo Beyaz</title>
    <g id="Page-1" stroke="none" stroke-width="1" fill="none" fill-rule="evenodd">
        <g id="Artboard" transform="translate(-319.000000, -3535.000000)" fill="#FFFFFF">
            <g id="Gelir-İdaresi-Logo-Beyaz" transform="translate(319.000000, 3535.000000)">
                <path d="M25.1742705,27.1053437 L45.0066819,27.3903257 L39.5838115,64.633086 L25.5779304,64.633086 L31.148856,34.7496902 L22.0273994,34.7496902 L25.1742705,27.1053437 Z M44.6072123,10.3206691 C47.7038005,11.2160283 49.1920345,15.4649778 47.9286768,19.8079923 C46.6667158,24.1517036 43.1329458,26.9485687 40.0363575,26.0532096 C36.9418644,25.1578504 35.4536305,20.9089009 36.714893,16.5651896 C37.9782508,12.2221751 41.5127192,9.42530999 44.6072123,10.3206691 L44.6072123,10.3206691 Z M45.2483192,0 C29.6620188,9.36120646 19.2325086,26.4050822 19.2325086,45.8751375 C19.2325086,52.3252073 20.3785395,58.5077145 22.4764536,64.2345293 L5.34185911,64.2345293 C1.9205272,57.1915017 0,49.2886507 0,40.9377717 C0,24.5126344 7.42440896,9.81689898 19.1033094,0 L45.2483192,0 Z" id="Fill-114"></path>
                <path d="M196.053562,64.8388444 L198.998603,64.8388444 L198.998603,50.2845549 L196.053562,50.2845549 L196.053562,64.8388444 Z M186.25189,46.6118404 L187.61302,46.6118404 C187.5355,47.5099866 187.219835,48.2179126 186.666025,48.7293474 C186.108723,49.2449628 185.392192,49.4985898 184.510146,49.4985898 C183.626005,49.4985898 182.910172,49.2449628 182.356362,48.7293474 C181.802552,48.2179126 181.48549,47.5099866 181.405177,46.6118404 L182.770498,46.6118404 C182.814495,47.082862 182.980708,47.4347347 183.265644,47.6793036 C183.551279,47.9196918 183.965415,48.0416279 184.510146,48.0416279 C185.052782,48.0416279 185.467616,47.9196918 185.752553,47.6793036 C186.037489,47.4347347 186.203702,47.082862 186.25189,46.6118404 L186.25189,46.6118404 Z M184.384439,59.4882896 L184.384439,57.0349358 L190.731257,57.0349358 L190.731257,62.8328219 C190.113197,63.4292634 189.219977,63.9539369 188.048106,64.4089327 C186.876236,64.859051 185.691096,65.0855037 184.491988,65.0855037 C182.967439,65.0855037 181.635641,64.7677731 180.500784,64.1302217 C179.367323,63.4898831 178.515308,62.5784981 177.94334,61.3890988 C177.373467,60.1996995 177.088531,58.9085707 177.088531,57.5122284 C177.088531,55.9981308 177.407687,54.6491695 178.043207,53.4709186 C178.681521,52.2940613 179.611754,51.3896441 180.842288,50.7625443 C181.775315,50.2782839 182.940202,50.0378956 184.332759,50.0378956 C186.142245,50.0378956 187.559943,50.4176394 188.57468,51.1729462 C189.593607,51.9324338 190.24938,52.9789937 190.5413,54.3168066 L187.61721,54.8630802 C187.409793,54.1474896 187.022196,53.582403 186.455116,53.1685172 C185.888735,52.7553281 185.181981,52.5483851 184.332759,52.5483851 C183.044958,52.5483851 182.023238,52.9546065 181.262011,53.7684426 C180.500784,54.5850659 180.12436,55.7918847 180.12436,57.3937763 C180.12436,59.1189975 180.507767,60.4163973 181.280169,61.2810982 C182.046284,62.1451024 183.056132,62.5757109 184.302729,62.5757109 C184.920091,62.5757109 185.538152,62.4530781 186.160403,62.2126898 C186.778463,61.9723016 187.311322,61.6775647 187.756186,61.3354469 L187.756186,59.4882896 L184.384439,59.4882896 Z M169.148024,64.8388444 L172.091668,64.8388444 L172.091668,50.2845549 L169.148024,50.2845549 L169.148024,64.8388444 Z M154.174197,64.8388444 L154.174197,50.403007 L157.117841,50.403007 L157.117841,62.3854907 L164.440986,62.3854907 L164.440986,64.8388444 L154.174197,64.8388444 Z M136.709272,64.8388444 L136.709272,50.2845549 L139.576793,50.2845549 L145.547189,60.003905 L145.547189,50.2845549 L148.284114,50.2845549 L148.284114,64.8388444 L145.325804,64.8388444 L139.446896,55.3473406 L139.446896,64.8388444 L136.709272,64.8388444 Z M127.000483,59.0813715 L124.989866,53.6799519 L123.020452,59.0813715 L127.000483,59.0813715 Z M132.424052,64.8388444 L129.218517,64.8388444 L127.943986,61.5312414 L122.113265,61.5312414 L120.909967,64.8388444 L117.785444,64.8388444 L123.467411,50.2845549 L126.581459,50.2845549 L132.424052,64.8388444 Z M101.894653,64.8388444 L101.894653,50.2845549 L104.838996,50.2845549 L104.838996,56.7471667 L110.789138,50.2845549 L114.750313,50.2845549 L109.257605,55.9542338 L115.049217,64.8388444 L111.238192,64.8388444 L107.230227,58.0076373 L104.838996,60.4400877 L104.838996,64.8388444 L101.894653,64.8388444 Z M88.1737083,68.8404379 L88.1737083,67.6684581 C88.8602095,67.7395294 89.4845554,67.7771554 90.0551266,67.7771554 C90.646649,67.7771554 91.0845292,67.6712452 91.3694656,67.458728 C91.5866597,67.3026499 91.695606,67.0957069 91.695606,66.844867 C91.695606,66.6177175 91.5936435,66.4247102 91.3904168,66.2588771 C91.1829998,66.093044 90.8638431,66.0115211 90.4329467,66.0115211 C90.0083356,66.0115211 89.5732489,66.0756246 89.1311784,66.2080123 L89.3888782,65.225556 C89.906373,65.0492713 90.4629767,64.9572966 91.0600861,64.9572966 C91.8897538,64.9572966 92.5210835,65.1405491 92.95198,65.5028735 C93.3828764,65.8693784 93.5972771,66.312529 93.5972771,66.8344154 C93.5972771,67.4176182 93.3598301,67.8886398 92.8807459,68.254448 C92.2389406,68.7491601 91.3149924,69 90.1158851,69 C89.2610759,69 88.6115885,68.9463481 88.1737083,68.8404379 L88.1737083,68.8404379 Z M84.820817,60.1049377 L87.6883387,59.8241364 C87.8573451,60.7863862 88.2079286,61.4908283 88.7372957,61.9416434 C89.2638694,62.3889746 89.9741153,62.616124 90.8708269,62.616124 C91.8185197,62.616124 92.5343526,62.4154521 93.0134368,62.0127147 C93.496013,61.6127644 93.7362534,61.1452266 93.7362534,60.6101015 C93.7362534,60.2644998 93.6356877,59.9732468 93.4310642,59.7321617 C93.2299326,59.4882896 92.8786508,59.2785595 92.3709332,59.1022748 C92.0287302,58.9803388 91.2402665,58.7699119 90.0139226,58.4654201 C88.4355984,58.0752247 87.327978,57.5944482 86.6924581,57.0244842 C85.7964448,56.2252803 85.3473906,55.2490949 85.3473906,54.0966249 C85.3473906,53.3552536 85.5589978,52.6633534 85.9794187,52.0167439 C86.4005379,51.3729214 87.0088213,50.8816932 87.8000785,50.5423626 C88.5955259,50.2072126 89.5488058,50.0378956 90.6696953,50.0378956 C92.5043225,50.0378956 93.87942,50.4371491 94.8068601,51.2370498 C95.7308082,52.0404343 96.2161778,53.1078975 96.2636672,54.4464072 L93.3186261,54.5753111 C93.1936172,53.8255784 92.9219499,53.2869694 92.507116,52.9615742 C92.0929805,52.6326952 91.4721265,52.4703461 90.6424587,52.4703461 C89.7876495,52.4703461 89.1151158,52.6431469 88.6318413,52.9957163 C88.3196684,53.2193819 88.1632327,53.5210866 88.1632327,53.8973465 C88.1632327,54.2429482 88.3091928,54.5376851 88.6018113,54.7815572 C88.9719492,55.0937136 89.8749462,55.4184119 91.3080087,55.7542587 C92.7417695,56.0928926 93.8019006,56.4419781 94.4877034,56.8015153 C95.1742045,57.1638397 95.709857,57.6550678 96.1002478,58.2821676 C96.4871468,58.9085707 96.6812946,59.6819938 96.6812946,60.5996498 C96.6812946,61.4329957 96.4508313,62.2161737 95.9857146,62.9408224 C95.5205978,63.6696517 94.8641267,64.2124414 94.0156029,64.5643141 C93.1663806,64.9203674 92.1062496,65.0966521 90.8407968,65.0966521 C88.9949956,65.0966521 87.5793924,64.6730114 86.5918923,63.822246 C85.6029954,62.9714806 85.0121714,61.7319133 84.820817,60.1049377 L84.820817,60.1049377 Z M75.8851277,59.0813715 L73.8752087,53.6799519 L71.905097,59.0813715 L75.8851277,59.0813715 Z M81.3100933,64.8388444 L78.1031621,64.8388444 L76.8307255,61.5312414 L70.9979098,61.5312414 L69.7967073,64.8388444 L66.6714858,64.8388444 L72.3541512,50.2845549 L75.4681987,50.2845549 L81.3100933,64.8388444 Z M53.6984992,58.4953816 L53.6984992,62.3854907 L56.4221559,62.3854907 C57.4850804,62.3854907 58.1576141,62.3583163 58.4425505,62.2976967 C58.8804307,62.2189608 59.237998,62.0231663 59.5131571,61.7179778 C59.7876179,61.4093053 59.9265943,60.9961162 59.9265943,60.4811976 C59.9265943,60.0436213 59.8190448,59.675026 59.6074376,59.3698374 C59.3930369,59.0646488 59.0878477,58.8409832 58.6869813,58.7016277 C58.2868132,58.562969 57.4138463,58.4953816 56.0757626,58.4953816 L53.6984992,58.4953816 Z M53.6984992,52.7079472 L53.6984992,56.072686 L55.6274068,56.072686 C56.7755329,56.072686 57.4892707,56.0559634 57.7672233,56.0218213 C58.2693539,55.9646855 58.6674268,55.7918847 58.9551567,55.5034188 C59.2442833,55.2149528 59.3860532,54.8359059 59.3860532,54.3648842 C59.3860532,53.9140692 59.2652345,53.5482609 59.0166136,53.2674596 C58.7658975,52.9852647 58.3950611,52.8159477 57.9061997,52.758812 C57.6142795,52.7246699 56.7755329,52.7079472 55.3899598,52.7079472 L53.6984992,52.7079472 Z M50.7492678,50.2845549 L56.5820835,50.2845549 C57.7357965,50.2845549 58.5996846,50.3326325 59.1667639,50.4301814 C59.7331448,50.5256399 60.2387672,50.7256151 60.6878214,51.0308036 C61.1361772,51.3352954 61.5063152,51.7387296 61.8045207,52.2473772 C62.1034246,52.7518442 62.2535749,53.3211115 62.2535749,53.9482113 C62.2535749,54.6289629 62.070601,55.2560627 61.7039549,55.8246332 C61.3331186,56.3945972 60.8337815,56.8210251 60.2059437,57.1060071 C61.0914813,57.363118 61.7772841,57.8041782 62.2535749,58.4243103 C62.7326591,59.0472294 62.9694077,59.7795426 62.9694077,60.6198563 C62.9694077,61.2810982 62.8171623,61.9242239 62.5084812,62.5513237 C62.1991017,63.1749396 61.7772841,63.6766195 61.2444251,64.0493955 C60.7108677,64.4221715 60.0523015,64.6521081 59.268028,64.739902 C58.7791666,64.7914636 57.5940267,64.8249089 55.7161003,64.8388444 L50.7492678,64.8388444 L50.7492678,50.2845549 Z M196.166699,27.1919531 L198.911307,27.1919531 L198.911307,24.5525597 L196.166699,24.5525597 L196.166699,27.1919531 Z M196.054959,42.5795887 L199,42.5795887 L199,28.0259959 L196.054959,28.0259959 L196.054959,42.5795887 Z M181.806044,37.8456819 L184.673565,37.5641838 C184.843969,38.5264336 185.193155,39.2315725 185.722523,39.6823876 C186.249096,40.1297188 186.959342,40.3561715 187.856054,40.3561715 C188.803747,40.3561715 189.519579,40.1561963 189.998664,39.7534589 C190.48124,39.3535086 190.722877,38.8859708 190.722877,38.3501489 C190.722877,38.0045472 190.620914,37.7132942 190.416291,37.472906 C190.216556,37.2290338 189.863878,37.018607 189.357557,36.8423223 C189.013957,36.721083 188.225493,36.5106562 187.000546,36.2054676 C185.420825,35.8159689 184.313205,35.3344956 183.677685,34.7652284 C182.781672,33.9660245 182.332617,32.9898392 182.332617,31.8380659 C182.332617,31.095301 182.544225,30.4040977 182.966042,29.7567913 C183.385765,29.1136656 183.994048,28.6217407 184.785305,28.2831068 C185.580753,27.9479568 186.535429,27.7786398 187.654922,27.7786398 C189.489549,27.7786398 190.864647,28.1785901 191.792087,28.9770972 C192.716035,29.7811785 193.201405,30.8486417 193.248894,32.1871514 L190.303853,32.3153585 C190.178844,31.5670194 189.907177,31.0284103 189.492343,30.7030152 C189.079604,30.3734394 188.457353,30.2110903 187.627685,30.2110903 C186.772876,30.2110903 186.100343,30.3838911 185.617068,30.7371573 C185.304895,30.9601261 185.149856,31.2618308 185.149856,31.6380907 C185.149856,31.9836924 185.295816,32.2784293 185.587736,32.5223014 C185.957176,32.833761 186.86157,33.1591561 188.293934,33.4950029 C189.726996,33.8336368 190.787127,34.1827223 191.47293,34.5422596 C192.159431,34.9045839 192.695084,35.3958121 193.086871,36.0229119 C193.47377,36.6493149 193.666521,37.4220412 193.666521,38.340394 C193.666521,39.17374 193.436058,39.9569179 192.970941,40.6815666 C192.505825,41.4103959 191.849353,41.9524889 191.00083,42.3050583 C190.151607,42.6611116 189.091476,42.8373964 187.826024,42.8373964 C185.981619,42.8373964 184.564619,42.4130588 183.577119,41.5629902 C182.588222,40.7122248 181.997398,39.4726575 181.806044,37.8456819 L181.806044,37.8456819 Z M168.961558,42.5795887 L168.961558,28.0259959 L179.775174,28.0259959 L179.775174,30.4891045 L171.906599,30.4891045 L171.906599,33.7144878 L179.229744,33.7144878 L179.229744,36.1650545 L171.906599,36.1650545 L171.906599,40.1262349 L180.055221,40.1262349 L180.055221,42.5795887 L168.961558,42.5795887 Z M157.200948,34.1792385 L159.377778,34.1792385 C160.791286,34.1792385 161.673332,34.1214059 162.026709,34.0029537 C162.375896,33.8845015 162.651753,33.6775586 162.852186,33.3863056 C163.048429,33.0943558 163.15109,32.7320315 163.15109,32.2951519 C163.15109,31.8039238 163.018399,31.4102444 162.756509,31.1092365 C162.496016,30.8075319 162.125179,30.6180084 161.646095,30.5371822 C161.408648,30.5058272 160.691419,30.4891045 159.496501,30.4891045 L157.200948,30.4891045 L157.200948,34.1792385 Z M154.251716,42.5795887 L154.251716,28.0259959 L160.453972,28.0259959 C162.01344,28.0259959 163.144106,28.1576868 163.85086,28.4182816 C164.556916,28.6788764 165.124694,29.1436271 165.548606,29.81114 C165.973218,30.4821367 166.184126,31.2444114 166.184126,32.1049317 C166.184126,33.1960853 165.860779,34.1011994 165.218974,34.8126093 C164.577867,35.521232 163.613413,35.9713503 162.332596,36.1546028 C162.97091,36.5273788 163.497483,36.9342969 163.911619,37.3781442 C164.326453,37.8219915 164.883056,38.6079566 165.58562,39.7402201 L167.369965,42.5795887 L163.84667,42.5795887 L161.717329,39.4113411 C160.960292,38.2797744 160.444893,37.5676677 160.164845,37.2729308 C159.886892,36.9781939 159.592179,36.7782187 159.280006,36.6660375 C158.967134,36.558037 158.473384,36.5036884 157.794565,36.5036884 L157.200948,36.5036884 L157.200948,42.5795887 L154.251716,42.5795887 Z M147.260299,36.8221157 L145.249682,31.4206961 L143.278173,36.8221157 L147.260299,36.8221157 Z M152.683169,42.5795887 L149.477635,42.5795887 L148.203802,39.2726824 L142.373081,39.2726824 L141.169783,42.5795887 L138.044562,42.5795887 L143.727227,28.0259959 L146.841275,28.0259959 L152.683169,42.5795887 Z M127.747743,30.4891045 L127.747743,40.1262349 L129.945524,40.1262349 C130.766113,40.1262349 131.361127,40.0823379 131.727773,39.9868794 C132.204064,39.8684272 132.60074,39.668452 132.916405,39.3841668 C133.232768,39.0998815 133.487675,38.6288599 133.688108,37.9773729 C133.884351,37.3272794 133.987012,36.436101 133.987012,35.3108052 C133.987012,34.1862062 133.884351,33.3249892 133.688108,32.7222766 C133.487675,32.1188672 133.209722,31.6478456 132.852155,31.3126956 C132.491794,30.9733649 132.037851,30.7462154 131.486834,30.6277633 C131.076191,30.5330015 130.270966,30.4891045 129.068367,30.4891045 L127.747743,30.4891045 Z M124.802701,28.0259959 L130.186463,28.0259959 C131.398141,28.0259959 132.322788,28.1172737 132.961101,28.3033133 C133.816609,28.5541532 134.549901,29.0014844 135.158882,29.6453069 C135.769959,30.2856455 136.235076,31.0716106 136.554233,32.000415 C136.870596,32.9320066 137.029825,34.0782057 137.029825,35.4431929 C137.029825,36.6388632 136.879675,37.6728811 136.581469,38.5403692 C136.218315,39.5973807 135.698725,40.4551139 135.019208,41.1086912 C134.509395,41.6068872 133.820799,41.9935987 132.949927,42.2709162 C132.302535,42.4778591 131.432361,42.5795887 130.3422,42.5795887 L124.802701,42.5795887 L124.802701,28.0259959 Z M119.172414,27.1919531 L121.917022,27.1919531 L121.917022,24.5525597 L119.172414,24.5525597 L119.172414,27.1919531 Z M119.059278,42.5795887 L122.004319,42.5795887 L122.004319,28.0259959 L119.059278,28.0259959 L119.059278,42.5795887 Z M101.250753,34.1792385 L103.427583,34.1792385 C104.840393,34.1792385 105.723137,34.1214059 106.076514,34.0029537 C106.427097,33.8845015 106.70086,33.6775586 106.901991,33.3863056 C107.099631,33.0943558 107.200197,32.7320315 107.200197,32.2951519 C107.200197,31.8039238 107.068204,31.4102444 106.806314,31.1092365 C106.545821,30.8075319 106.174984,30.6180084 105.6959,30.5371822 C105.458453,30.5058272 104.741223,30.4891045 103.546306,30.4891045 L101.250753,30.4891045 L101.250753,34.1792385 Z M98.3029179,42.5795887 L98.3029179,28.0259959 L104.503776,28.0259959 C106.062546,28.0259959 107.193911,28.1576868 107.899967,28.4182816 C108.606721,28.6788764 109.174499,29.1436271 109.598411,29.81114 C110.022324,30.4821367 110.233931,31.2444114 110.233931,32.1049317 C110.233931,33.1960853 109.910584,34.1011994 109.269477,34.8126093 C108.626974,35.521232 107.66252,35.9713503 106.381703,36.1546028 C107.020715,36.5273788 107.54659,36.9342969 107.961424,37.3781442 C108.376258,37.8219915 108.932861,38.6079566 109.635425,39.7402201 L111.419071,42.5795887 L107.897173,42.5795887 L105.767134,39.4113411 C105.010097,38.2797744 104.493999,37.5676677 104.216047,37.2729308 C103.936697,36.9781939 103.641984,36.7782187 103.329112,36.6660375 C103.016939,36.558037 102.524586,36.5036884 101.845068,36.5036884 L101.250753,36.5036884 L101.250753,42.5795887 L98.3029179,42.5795887 Z M92.6544729,27.1919531 L95.3990808,27.1919531 L95.3990808,24.5525597 L92.6544729,24.5525597 L92.6544729,27.1919531 Z M92.5427331,42.5795887 L95.4863775,42.5795887 L95.4863775,28.0259959 L92.5427331,28.0259959 L92.5427331,42.5795887 Z M80.2639297,42.5795887 L80.2639297,28.144448 L83.2089709,28.144448 L83.2089709,40.1262349 L90.5321157,40.1262349 L90.5321157,42.5795887 L80.2639297,42.5795887 Z M66.5939663,42.5795887 L66.5939663,28.0259959 L77.407582,28.0259959 L77.407582,30.4891045 L69.5390075,30.4891045 L69.5390075,33.7144878 L76.8607555,33.7144878 L76.8607555,36.1650545 L69.5390075,36.1650545 L69.5390075,40.1262349 L77.6862331,40.1262349 L77.6862331,42.5795887 L66.5939663,42.5795887 Z M57.5283796,37.2290338 L57.5283796,34.77568 L63.8765949,34.77568 L63.8765949,40.5735661 C63.2585344,41.1693109 62.3653146,41.6946812 61.1934439,42.1496769 C60.0222714,42.5997952 58.8364332,42.8269447 57.6380242,42.8269447 C56.1127764,42.8269447 54.7816765,42.5085173 53.6468195,41.8709659 C52.5133593,41.2306273 51.6606452,40.319939 51.0893757,39.1305398 C50.5188045,37.9404437 50.2338681,36.6493149 50.2338681,35.2536694 C50.2338681,33.738875 50.5530248,32.3906105 51.1885447,31.2102693 C51.8268581,30.0348056 52.7570916,29.1303883 53.9862291,28.5039853 C54.9206528,28.0190281 56.0855399,27.7786398 57.4780967,27.7786398 C59.2882809,27.7786398 60.7052808,28.1576868 61.7200175,28.9129937 C62.7389445,29.6724812 63.3954156,30.7190411 63.6873357,32.0582476 L60.7625474,32.6031276 C60.5551304,31.8882339 60.1682315,31.3224505 59.6004538,30.9099582 C59.0333745,30.4960723 58.3266205,30.2891294 57.4780967,30.2891294 C56.1902959,30.2891294 55.1685754,30.6960475 54.4080467,31.5084901 C53.6468195,32.3258102 53.2703962,33.5319321 53.2703962,35.1345205 C53.2703962,36.8597417 53.6538033,38.1571415 54.425506,39.0211457 C55.1923201,39.8851499 56.2014699,40.3164552 57.4480666,40.3164552 C58.0661272,40.3164552 58.6841878,40.1938223 59.3057402,39.9534341 C59.9238008,39.712349 60.4573582,39.4183089 60.9015237,39.0754943 L60.9015237,37.2290338 L57.5283796,37.2290338 Z" id="Fill-116"></path>
            </g>
        </g>
    </g>
</svg>