<?xml version="1.0" encoding="UTF-8"?>
<svg width="109px" height="30px" viewBox="0 0 109 30" version="1.1" xmlns="http://www.w3.org/2000/svg" xmlns:xlink="http://www.w3.org/1999/xlink">
    <title>eLogoWhite</title>
    <g id="Page-1" stroke="none" stroke-width="1" fill="none" fill-rule="evenodd">
        <g id="Artboard" transform="translate(-361.000000, -4665.000000)" fill="#FFFFFF" fill-rule="nonzero">
            <g id="elogo-grup" transform="translate(49.000000, 4654.000000)">
                <g id="eLogoWhite" transform="translate(312.000000, 11.000000)">
                    <path d="M51.3029842,15.3488372 C51.3029842,15.9069767 50.7469814,16.4651163 50.1909787,16.4651163 L40.4609306,16.4651163 L41.2949347,6.69767442 C41.2949347,6.13953488 41.8509374,5.58139535 42.4069402,5.58139535 L52.1369883,5.58139535 L51.3029842,15.3488372 Z M56.4460096,18.5581395 L57.8360165,3.34883721 C57.9750172,1.81395349 56.8630117,0.279069767 55.3340041,0.139534884 C55.1950034,0.139534884 55.0560027,0.139534884 54.9170021,0.139534884 L39.7659271,0.139534884 C37.9589182,0.139534884 36.4299106,1.53488372 36.2909099,3.34883721 L34.9009031,18.5581395 C34.7619024,20.0930233 35.8739079,21.627907 37.4029154,21.7674419 C37.5419161,21.7674419 37.6809168,21.7674419 37.8199175,21.7674419 L52.9709924,21.7674419 C54.7780014,21.9069767 56.3070089,20.5116279 56.4460096,18.5581395" id="Path_43"></path>
                    <path d="M102.455237,15.3488372 C102.455237,15.9069767 101.899234,16.4651163 101.343232,16.4651163 L91.6131835,16.4651163 L92.4471877,6.69767442 C92.4471877,6.13953488 93.0031904,5.58139535 93.5591932,5.58139535 L103.289241,5.58139535 L102.455237,15.3488372 Z M107.598263,18.5581395 L108.988269,3.34883721 C109.12727,1.81395349 108.015265,0.279069767 106.486257,0.139534884 C106.347256,0.139534884 106.208256,0.139534884 106.069255,0.139534884 L90.9181801,0.139534884 C89.1111712,0.139534884 87.5821636,1.53488372 87.3041622,3.34883721 L85.9141554,18.5581395 C85.7751547,20.0930233 86.8871602,21.627907 88.4161677,21.7674419 C88.5551684,21.7674419 88.6941691,21.7674419 88.8331698,21.7674419 L103.984245,21.7674419 C105.791254,21.9069767 107.459262,20.5116279 107.598263,18.5581395" id="Path_44"></path>
                    <path d="M77.7131148,5.58139535 L76.8791107,15.3488372 C76.8791107,15.9069767 76.3231079,16.4651163 75.7671052,16.4651163 L66.0370571,16.4651163 L66.8710612,6.69767442 C66.8710612,6.13953488 67.4270639,5.58139535 67.9830667,5.58139535 L77.7131148,5.58139535 Z M80.3541279,0.139534884 L65.2030529,0.139534884 C63.396044,0.139534884 61.8670364,1.53488372 61.7280357,3.34883721 L60.3380289,18.5581395 C60.1990282,20.0930233 61.3110337,21.627907 62.8400412,21.7674419 C62.9790419,21.7674419 63.1180426,21.7674419 63.2570433,21.7674419 L73.5430942,21.7674419 L73.4040935,23.4418605 C73.4040935,24 72.8480907,24.5581395 72.292088,24.5581395 L65.2030529,24.5581395 L64.7860509,28.8837209 C64.7860509,29.4418605 65.0640522,29.8604651 65.620055,30 C65.620055,30 65.7590557,30 65.7590557,30 L74.9331011,30 C76.74011,30 78.2691176,28.6046512 78.4081182,26.7906977 L78.8251203,21.7674419 C80.4931286,21.627907 81.7441347,20.2325581 81.8831354,18.5581395 L83.2731423,3.34883721 C83.412143,1.81395349 82.3001375,0.279069767 80.7711299,0.139534884 C80.6321292,1.05256082e-13 80.4931286,1.05256082e-13 80.3541279,0.139534884" id="Path_45"></path>
                    <path d="M38.5149209,24.5581395 L30.3138804,24.5581395 L32.3988907,0 L28.0898694,0 C27.3948659,0 26.9778639,0.418604651 26.8388632,1.11627907 L24.7538529,24.5581395 L24.4758515,27.4883721 L24.4758515,27.4883721 C24.3368508,28.744186 25.1708549,29.8604651 26.4218611,30 C26.5608618,30 26.6998625,30 26.8388632,30 L36.8469127,30 C37.4029154,30 37.9589182,29.5813953 37.9589182,28.8837209 L38.5149209,24.5581395 Z" id="Path_46"></path>
                    <path d="M22.3908412,0.697674419 C22.2518405,0.558139535 21.9738391,0.418604651 21.6958378,0.279069767 L21.5568371,0.279069767 C21.2788357,0.139534884 20.8618336,0 20.4448316,0 L5.01575527,0 C3.20874633,0 1.67973877,1.39534884 1.4017374,3.20930233 L0.0117305216,18.4186047 C-0.127270166,19.9534884 0.984735334,21.4883721 2.5137429,21.627907 C2.65274358,21.627907 2.79174427,21.627907 2.93074496,21.627907 L18.0818199,21.627907 C19.8888288,21.627907 21.4178364,20.2325581 21.5568371,18.4186047 L21.6958378,16.1860465 L10.7147835,16.1860465 L21.6958378,5.44186047 C21.8348385,5.44186047 21.8348385,5.30232558 21.9738391,5.1627907 L21.9738391,5.1627907 L21.9738391,5.1627907 C22.2518405,4.88372093 22.5298419,4.46511628 22.6688426,4.04651163 L22.6688426,4.04651163 C22.8078433,3.76744186 22.8078433,3.34883721 22.8078433,3.06976744 C23.5028467,2.23255814 23.0858446,1.39534884 22.3908412,0.697674419 M7.79576902,5.44186047 L14.467802,5.44186047 L5.98876008,13.8139535 L6.68376352,6.55813953 C6.68376352,6 7.23976627,5.44186047 7.79576902,5.44186047" id="Path_47"></path>
                </g>
            </g>
        </g>
    </g>
</svg>