<?xml version="1.0" encoding="UTF-8"?>
<svg width="15px" height="15px" viewBox="0 0 15 15" version="1.1" xmlns="http://www.w3.org/2000/svg" xmlns:xlink="http://www.w3.org/1999/xlink">
    <!-- Generator: Sketch 52.2 (67145) - http://www.bohemiancoding.com/sketch -->
    <title>Shape</title>
    <desc>Created with Sketch.</desc>
    <g id="Page-1" stroke="none" stroke-width="1" fill="none" fill-rule="evenodd">
        <g id="ÜRÜNLER-LİSTESİ-V2" transform="translate(-1245.000000, -421.000000)" fill="#0F82FF" fill-rule="nonzero">
            <g id="Siparişler" transform="translate(113.000000, 368.000000)">
                <g id="Sipariş-v1">
                    <g id="TABLO-SATIR" transform="translate(0.000000, 26.000000)">
                        <g id="Düzenle" transform="translate(1124.000000, 20.000000)">
                            <g id="pencil" transform="translate(8.000000, 7.000000)">
                                <path d="M7.4998,0 C3.35785,0 5e-05,3.35805 5e-05,7.49985 C5e-05,11.64165 3.35785,15 7.4998,15 C11.64175,15 14.99995,11.64185 14.99995,7.49985 C14.99995,3.35785 11.64175,0 7.4998,0 Z M11.0651,5.39725 L10.35275,6.1096 L8.9027,4.65965 L8.3526,5.20975 L9.80265,6.6598 L6.24605,10.2161 L4.7961,8.7663 L4.246,9.3164 L5.69595,10.76635 L5.34155,11.12075 L5.3348,11.114 C5.2955,11.1787 5.2316,11.2259 5.1557,11.24275 L3.80355,11.54425 C3.7833,11.5488 3.7627,11.551 3.74235,11.551 C3.66855,11.551 3.59685,11.52195 3.5437,11.46865 C3.4755,11.4007 3.4471,11.30255 3.4681,11.2085 L3.76945,9.85675 C3.78645,9.7809 3.83375,9.71685 3.89835,9.67765 L3.8915,9.6708 L9.615,3.94705 C9.6989,3.8633 9.8352,3.8633 9.9191,3.9473 L11.0652,5.09315 C11.1491,5.17705 11.1491,5.31335 11.0651,5.39725 Z" id="Shape"></path>
                            </g>
                        </g>
                    </g>
                </g>
            </g>
        </g>
    </g>
</svg>