<?xml version="1.0" encoding="UTF-8"?>
<svg width="25px" height="25px" viewBox="0 0 25 25" version="1.1" xmlns="http://www.w3.org/2000/svg" xmlns:xlink="http://www.w3.org/1999/xlink">
    <!-- Generator: Sketch 64 (93537) - https://sketch.com -->
    <title>pencil copy 3</title>
    <desc>Created with Sketch.</desc>
    <g id="Page-1" stroke="none" stroke-width="1" fill="none" fill-rule="evenodd">
        <g id="Fatura-Listesi-v3" transform="translate(-248.000000, -995.000000)" fill-rule="nonzero">
            <g id="Siparişler" transform="translate(111.000000, 321.000000)">
                <g id="Sipariş-v1">
                    <g id="TABLO-SATIR" transform="translate(0.000000, 101.000000)">
                        <g id="Sipariş-Kalemleri" transform="translate(0.000000, 141.000000)">
                            <g id="Sipariş-Kemleri-Başlık" transform="translate(0.000000, 18.000000)">
                                <g id="Footer-Button" transform="translate(117.000000, 338.000000)">
                                    <g id="Düzenle" transform="translate(1.000000, 63.000000)">
                                        <g id="pencil-copy-3" transform="translate(19.000000, 13.000000)">
                                            <path d="M12.4996667,0 C5.59641667,0 8.33333373e-05,5.59675 8.33333373e-05,12.49975 C8.33333373e-05,19.40275 5.59641667,25 12.4996667,25 C19.4029167,25 24.9999167,19.4030833 24.9999167,12.49975 C24.9999167,5.59641667 19.4029167,0 12.4996667,0 Z" id="Shape" fill="#FFFFFF"></path>
                                            <g id="trash" transform="translate(5.000000, 3.333333)">
                                                <path d="M13.6368164,3.20514323 L10.4316732,3.20514323 C10.4317057,1.43492839 8.99674479,0 7.2265625,0 C5.45638021,0 4.02141927,1.43492839 4.02141927,3.20514323 L0.816308594,3.20514323 C0.373665365,3.20514323 0.0150390625,3.56380208 0.0150390625,4.00641276 C0.0150390625,4.44902344 0.373697917,4.80768229 0.816308594,4.80768229 L1.13681641,4.80768229 L1.13681641,14.5833333 C1.13873698,15.7333333 2.07014974,16.6647461 3.22014974,16.6666667 L11.2329753,16.6666667 C12.3829753,16.6647461 13.314388,15.7333333 13.3163086,14.5833333 L13.3163086,4.80768229 L13.6368164,4.80768229 C14.0794596,4.80768229 14.4380859,4.44902344 14.4380859,4.00641276 C14.4380859,3.56380208 14.0794596,3.20514323 13.6368164,3.20514323 Z M7.2265625,1.60257161 C8.11149089,1.60257161 8.82913411,2.32021484 8.82913411,3.20514323 L5.62399089,3.20514323 C5.62399089,2.32018229 6.34163411,1.60257161 7.2265625,1.60257161 Z M11.713737,14.5833333 C11.713737,14.8487305 11.4983398,15.0640951 11.2329753,15.0640951 L3.22014974,15.0640951 C2.9547526,15.0640951 2.73938802,14.8486979 2.73938802,14.5833333 L2.73938802,4.80768229 L11.713737,4.80768229 L11.713737,14.5833333 Z" id="Shape" fill="#D0021B"></path>
                                                <g id="Group" transform="translate(4.654948, 7.519531)" fill="#FFBBC0">
                                                    <path d="M0.808789062,4.82021484 C0.366145833,4.82021484 0.00751953125,4.46155599 0.00751953125,4.01894531 L0.00751953125,0.813802083 C0.00751953125,0.371158854 0.366178385,0.0125325521 0.808789062,0.0125325521 C1.25139974,0.0125325521 1.61005859,0.371191406 1.61005859,0.813802083 L1.61005859,4.01894531 C1.61009115,4.46155599 1.25143229,4.82021484 0.808789062,4.82021484 Z" id="Path"></path>
                                                    <path d="M4.3344401,4.82021484 C3.89179688,4.82021484 3.53317057,4.46155599 3.53317057,4.01894531 L3.53317057,0.813802083 C3.53317057,0.371158854 3.89182943,0.0125325521 4.3344401,0.0125325521 C4.77708333,0.0125325521 5.13570964,0.371191406 5.13570964,0.813802083 L5.13570964,4.01894531 C5.13570964,4.46155599 4.77705078,4.82021484 4.3344401,4.82021484 Z" id="Path"></path>
                                                </g>
                                            </g>
                                        </g>
                                    </g>
                                </g>
                            </g>
                        </g>
                    </g>
                </g>
            </g>
        </g>
    </g>
</svg>