<?xml version="1.0" encoding="UTF-8"?>
<svg width="49px" height="56px" viewBox="0 0 49 56" version="1.1" xmlns="http://www.w3.org/2000/svg" xmlns:xlink="http://www.w3.org/1999/xlink">
    <!-- Generator: Sketch 52.2 (67145) - http://www.bohemiancoding.com/sketch -->
    <title>genelBilgi</title>
    <desc>Created with Sketch.</desc>
    <defs>
        <linearGradient x1="50%" y1="0%" x2="50%" y2="100%" id="linearGradient-1">
            <stop stop-color="#008EFF" offset="0%"></stop>
            <stop stop-color="#0055FF" offset="100%"></stop>
        </linearGradient>
        <linearGradient x1="50%" y1="0%" x2="50%" y2="100%" id="linearGradient-2">
            <stop stop-color="#C6E4FF" offset="0%"></stop>
            <stop stop-color="#94C5FF" offset="100%"></stop>
        </linearGradient>
        <path d="M7.21637618,0.885849006 L5.49427926,4.06396667 C5.18939608,4.62672075 4.46439232,4.99444247 3.65944728,4.99444247 L0.585214992,4.99444247 C0.253844143,4.99444247 -0.0147850075,4.72581332 -0.0147850075,4.39444247 C-0.0147850075,4.29461457 0.0101231621,4.19636421 0.0576826741,4.10859347 L1.77977957,0.930475806 C2.08466275,0.367721729 2.80966656,-2.95549932e-12 3.61461155,-2.95549932e-12 L6.68884386,-2.95619085e-12 C7.02021471,-2.95625172e-12 7.28884386,0.26862915 7.28884386,0.6 C7.28884386,0.699827906 7.26393569,0.798078262 7.21637618,0.885849006 Z" id="path-3"></path>
        <linearGradient x1="50%" y1="0%" x2="50%" y2="100%" id="linearGradient-5">
            <stop stop-color="#3861D8" offset="0%"></stop>
            <stop stop-color="#1A32AF" offset="100%"></stop>
        </linearGradient>
        <linearGradient x1="50%" y1="0%" x2="50%" y2="100%" id="linearGradient-6">
            <stop stop-color="#00C4FF" offset="0%"></stop>
            <stop stop-color="#0092FF" offset="100%"></stop>
        </linearGradient>
        <path d="M7.21637618,0.885849007 L5.49427926,4.06396667 C5.18939612,4.62672075 4.46439231,4.99444247 3.65944732,4.99444247 L0.585214995,4.99444247 C0.253844145,4.99444247 -0.0147850047,4.72581332 -0.0147850047,4.39444247 C-0.0147850047,4.29461457 0.0101231651,4.19636421 0.0576826776,4.10859347 L1.77977958,0.930475806 C2.08466276,0.367721738 2.80966655,0 3.61461154,0 L6.68884386,-7.77156117e-16 C7.02021471,-1.42666083e-15 7.28884386,0.26862915 7.28884386,0.6 C7.28884386,0.699827906 7.26393569,0.798078263 7.21637618,0.885849007 Z" id="path-7"></path>
    </defs>
    <g id="Page-1" stroke="none" stroke-width="1" fill="none" fill-rule="evenodd">
        <g id="genelBilgi">
            <g id="list" transform="translate(0.000000, 0.797753)" fill="url(#linearGradient-1)">
                <path d="M45.652008,6.68457551 L45.4231262,6.51452994 C43.4810639,5.05646261 40.9042358,5.1013647 39.0064239,6.62636912 L37.5488281,7.77719042 L36.0946655,6.63011104 C35.2977753,5.99898861 34.3620301,5.60900659 33.3824158,5.49924617 L33.3824158,3.63290331 C33.3820343,1.62644976 31.8897247,0 30.0487519,0 L6.71539307,0 C4.87442012,0 3.38211055,1.62644976 3.38211055,3.63290331 L3.38211055,6.35778877 L0.881958008,6.35778877 C0.421905469,6.35778877 0.048828125,6.76440126 0.048828125,7.26580673 L0.048828125,28.155209 C0.048828125,29.6602571 1.16806035,30.8800943 2.54898066,30.8800943 L8.38203428,30.8800943 L8.38203428,45.8661326 C8.38203428,47.6214676 9.68818662,49.0450269 11.2987519,49.0450269 C11.4383697,49.0404536 11.5776062,49.0250705 11.7153168,48.9984619 L11.7153168,49.0450269 L15.8821105,49.0450269 L15.8821105,53.5863641 C15.8821105,54.0877696 16.255188,54.494382 16.715622,54.494382 L40.0489807,54.494382 C40.5090332,54.494382 40.8821105,54.0877696 40.8821105,53.5863641 L40.8821105,42.6872382 C40.8821105,41.1826059 39.7628784,39.9623528 38.3823395,39.9623528 L33.3820343,39.9623528 L33.3820343,21.9204849 L37.0147705,25.220781 C37.3241425,25.5022499 37.7735138,25.5022499 38.0828857,25.220781 L45.7988739,18.2102503 C46.9684601,17.2668929 47.8034973,15.9123495 48.1620789,14.3757038 C48.8727569,11.4924141 47.8736877,8.4307639 45.652008,6.68457551 Z M1.71546934,28.155209 L1.71546934,8.17424043 L3.38211055,8.17424043 L3.38211055,28.1556247 C3.38211055,28.6570303 3.0090332,29.0636427 2.54898066,29.0636427 C2.08854678,29.0636427 1.71546934,28.6570303 1.71546934,28.155209 Z M4.89540098,29.0636427 C4.99420166,28.7726113 5.04608154,28.4657811 5.04875186,28.1556247 L5.04875186,3.63290331 C5.04875186,2.62967654 5.79490664,1.81645166 6.71539307,1.81645166 C7.63626094,1.81645166 8.38241582,2.62967654 8.38241582,3.63290331 L8.38241582,29.0636427 L4.89540098,29.0636427 Z M13.922882,47.2285753 C14.1132354,46.8040852 14.2131806,46.338435 14.2154693,45.8661326 L14.2154693,42.6872382 C14.2154693,42.1858327 14.5885468,41.7792202 15.0485992,41.7792202 C15.5090332,41.7792202 15.8821105,42.1858327 15.8821105,42.6872382 L15.8821105,47.2285753 L13.922882,47.2285753 Z M39.2154693,42.6872382 L39.2154693,52.6779304 L17.5487519,52.6779304 L17.5487519,42.6872382 C17.5460815,42.3770819 17.4942017,42.0698359 17.395401,41.7792202 L38.3823395,41.7792202 C38.842392,41.7792202 39.2154693,42.1858327 39.2154693,42.6872382 Z M31.7153931,39.9623528 L15.0485992,39.9623528 C13.6680604,39.9623528 12.5488281,41.1826059 12.5488281,42.6872382 L12.5488281,45.8661326 C12.5488281,46.6186566 11.989212,47.2285753 11.2987519,47.2285753 C10.608673,47.2285753 10.049057,46.6182409 10.049057,45.8661326 L10.049057,3.63290331 C10.0452423,2.99346581 9.88540645,2.36608529 9.58557129,1.81645166 L30.0487519,1.81645166 C30.9692383,1.81645166 31.7153931,2.62967654 31.7153931,3.63290331 L31.7153931,5.58821858 C30.98526,5.74662289 30.2909852,6.06176826 29.6737671,6.51577724 L29.4464111,6.68457551 C27.2254943,8.43117963 26.2264252,11.4928299 26.9371033,14.3757038 C27.2891998,15.8936404 28.1078339,17.2344636 29.2572021,18.1736635 L31.7153931,20.4071216 L31.7153931,39.9623528 Z M46.5488434,13.9142112 C46.2799072,15.0642009 45.6523896,16.0765744 44.7738647,16.7779601 L37.5488281,23.3419654 L30.2803039,16.7434521 C29.4219971,16.0458082 28.8101196,15.0463233 28.5488129,13.9142112 C28.0097961,11.7751303 28.7391662,9.49552303 30.3821563,8.18588168 L30.6095123,8.01708353 C31.9717407,6.99473177 33.7787628,7.0267452 35.1097107,8.09690928 L37.0529175,9.63480237 C37.3451232,9.86596434 37.7410889,9.86596434 38.0332947,9.63480237 L39.9772645,8.09690928 C41.3074493,7.0254979 43.1152344,6.99306874 44.4774628,8.01625196 L44.7067261,8.18588168 C46.352768,9.49261269 47.0863342,11.7730515 46.5488434,13.9142112 Z" id="Shape" fill-rule="nonzero"></path>
                <polygon id="Path" points="11.7153168 3.63290331 20.8820343 3.63290331 20.8820343 5.44935508 11.7153168 5.44935508"></polygon>
                <polygon id="Path" points="22.5486756 3.63290331 25.881958 3.63290331 25.881958 5.44935508 22.5486756 5.44935508"></polygon>
                <polygon id="Path" points="11.7153168 8.17424043 21.7155457 8.17424043 21.7155457 9.99069219 11.7153168 9.99069219"></polygon>
                <polygon id="Path" points="23.3821869 8.17424043 25.881958 8.17424043 25.881958 9.99069219 23.3821869 9.99069219"></polygon>
                <polygon id="Path" points="11.7153168 12.7151618 17.5487519 12.7151618 17.5487519 14.5320292 11.7153168 14.5320292"></polygon>
                <polygon id="Path" points="11.7153168 17.2564988 20.0489044 17.2564988 20.0489044 19.0729506 11.7153168 19.0729506"></polygon>
                <polygon id="Path" points="11.7153168 21.7978359 23.3821869 21.7978359 23.3821869 23.6142877 11.7153168 23.6142877"></polygon>
                <polygon id="Path" points="11.7153168 26.339173 27.5489807 26.339173 27.5489807 28.1556247 11.7153168 28.1556247"></polygon>
                <polygon id="Path" points="11.7153168 30.8800943 25.0488281 30.8800943 25.0488281 32.6965461 11.7153168 32.6965461"></polygon>
                <polygon id="Path" points="11.7153168 35.4214314 26.7154693 35.4214314 26.7154693 37.2378832 11.7153168 37.2378832"></polygon>
                <polygon id="Path" points="27.5489807 30.8800943 30.0487519 30.8800943 30.0487519 32.6965461 27.5489807 32.6965461"></polygon>
                <polygon id="Path" points="19.2153931 43.5956719 32.5489044 43.5956719 32.5489044 45.4121236 19.2153931 45.4121236"></polygon>
                <polygon id="Path" points="19.2153931 48.1365933 33.3820343 48.1365933 33.3820343 49.9530449 19.2153931 49.9530449"></polygon>
                <polygon id="Path" points="34.2155457 43.5956719 36.7153168 43.5956719 36.7153168 45.4121236 34.2155457 45.4121236"></polygon>
                <path d="M45.0489044,54.494382 C45.3720093,54.494382 45.665741,54.2906601 45.8030701,53.9721885 L47.4697113,50.0968976 C47.5219727,49.9759117 47.549057,49.8441161 47.5486756,49.7106574 L47.5486756,24.5227214 C47.5486756,24.0209001 47.1755981,23.6142877 46.7155457,23.6142877 L43.3822632,23.6142877 C42.9218292,23.6142877 42.5487519,24.0209001 42.5487519,24.5227214 L42.5487519,49.7106574 C42.5487519,49.8441161 42.5758361,49.9763274 42.6280976,50.0968976 L44.2947388,53.9721885 C44.4320679,54.2906601 44.7257996,54.494382 45.0489044,54.494382 Z M45.8820343,29.9720764 L44.2153931,29.9720764 L44.2153931,29.0636427 L45.8820343,29.0636427 L45.8820343,29.9720764 Z M45.8820343,25.4307394 L45.8820343,27.247191 L44.2153931,27.247191 L44.2153931,25.4307394 L45.8820343,25.4307394 Z M44.2153931,31.7885281 L45.8820343,31.7885281 L45.8820343,49.5090141 L45.0489044,51.4464517 L44.2157745,49.5090141 L44.2157745,31.7885281 L44.2153931,31.7885281 Z" id="Shape" fill-rule="nonzero"></path>
            </g>
            <g id="Logo-type" transform="translate(38.000000, 16.000000) rotate(-90.000000) translate(-38.000000, -16.000000) translate(33.000000, 11.000000)">
                <g id="Path" transform="translate(2.710438, 4.994442)">
                    <mask id="mask-4" fill="white">
                        <use xlink:href="#path-3"></use>
                    </mask>
                    <use id="Mask" fill="url(#linearGradient-2)" xlink:href="#path-3"></use>
                    <path d="M6.06887924,-0.685525679 L4.46600152,2.37682616 C4.17812293,2.86489449 3.52485939,2.99855732 2.85839193,2.99855732 L-0.0976030835,2.99855732 L1.024748,0.932075661 C1.32994201,0.370140171 2.05458713,0.0030089955 2.85877338,0.00315309952 L6.06887924,-0.685525679 Z" fill="url(#linearGradient-5)" mask="url(#mask-4)"></path>
                </g>
                <g id="Path" transform="translate(1.355219, 2.497221)">
                    <mask id="mask-8" fill="white">
                        <use xlink:href="#path-7"></use>
                    </mask>
                    <use id="Mask" fill="url(#linearGradient-6)" xlink:href="#path-7"></use>
                    <path d="M5.97451834,-0.457212005 L4.44499308,2.37682616 C4.10477044,2.88312413 3.50385095,2.99855732 2.8373835,2.99855732 L-0.118611487,2.99855732 L1.00373958,0.932075667 C1.30893362,0.370140188 2.03357871,0.0030090144 2.837765,0.00315309951 L5.97451834,-0.457212005 Z" fill="url(#linearGradient-5)" mask="url(#mask-8)"></path>
                </g>
                <path d="M7.21637618,0.885849005 L5.4942793,4.06396664 C5.18939612,4.62672075 4.46439231,4.99444247 3.65944731,4.99444247 L0.585214997,4.99444247 C0.253844147,4.99444247 -0.0147850027,4.72581332 -0.0147850027,4.39444247 C-0.0147850027,4.29461457 0.0101231674,4.19636421 0.0576826802,4.10859347 L1.77977959,0.930475817 C2.08466276,0.367721737 2.80966655,9.09494702e-13 3.61461155,9.09494702e-13 L6.68884387,9.09383679e-13 C7.02021472,9.09322808e-13 7.28884387,0.26862915 7.28884387,0.6 C7.28884387,0.699827905 7.2639357,0.798078261 7.21637618,0.885849005 Z" id="Path" fill="url(#linearGradient-1)"></path>
            </g>
        </g>
    </g>
</svg>