<?xml version="1.0" encoding="UTF-8"?>
<svg width="21px" height="20px" viewBox="0 0 21 20" version="1.1" xmlns="http://www.w3.org/2000/svg" xmlns:xlink="http://www.w3.org/1999/xlink">
    <!-- Generator: Sketch 52.2 (67145) - http://www.bohemiancoding.com/sketch -->
    <title>folder</title>
    <desc>Created with Sketch.</desc>
    <g id="Page-1" stroke="none" stroke-width="1" fill="none" fill-rule="evenodd">
        <g id="Ürün-Ekleme" transform="translate(-1166.000000, -98.000000)" fill="#5D6E76">
            <g id="hızlı-ürün" transform="translate(1135.000000, 90.000000)">
                <g id="folder" transform="translate(31.000000, 8.000000)">
                    <path d="M10.1984127,16.5917969 C10.0114707,16.5917969 9.85971603,16.7433966 9.85971603,16.9303385 L9.85971603,18.7176029 C9.75864956,18.7766617 9.67447917,18.8608321 9.6152654,18.9620536 L0.717385913,18.9620536 C0.530443968,18.9620536 0.378844246,19.1136533 0.378844246,19.3005952 C0.378844246,19.4876922 0.530443968,19.6392919 0.717385913,19.6392919 L9.6152654,19.6392919 C9.79926214,19.9612475 10.2092634,20.0733197 10.531374,19.8893229 C10.6355407,19.8297991 10.7218812,19.7434586 10.781405,19.6392919 L19.6792845,19.6392919 C19.8663814,19.6392919 20.0179812,19.4876922 20.0179812,19.3005952 C20.0179812,19.1136533 19.8663814,18.9620536 19.6792845,18.9620536 L10.78156,18.9620536 C10.7223462,18.8608321 10.6381758,18.7766617 10.5369544,18.7176029 L10.5369544,16.9303385 C10.5369544,16.7433966 10.3853547,16.5917969 10.1984127,16.5917969 Z" id="Path"></path>
                    <path d="M18.3815414,1.69301833 L8.86873762,1.69301833 C8.62025671,1.69239833 8.37813119,1.61473833 8.17553325,1.47057913 L6.58079119,0.346137143 C6.26426091,0.121217778 5.88572667,0.000310019841 5.49758183,0 L1.97978671,0 C0.883866587,0.027281746 0.0165860714,0.935794881 0.0401475714,2.03171504 L0.0401475714,14.1792225 C0.0150359524,15.296534 0.89812746,16.2238033 2.01528397,16.2531002 L11.5528894,16.2531002 C11.7398313,16.2531002 11.891431,16.1015005 11.891431,15.9145585 C11.891431,15.7276166 11.7398313,15.5758619 11.5528894,15.5758619 L2.01528397,15.5758619 C1.27201143,15.54672 0.692119286,14.922495 0.717385913,14.1792225 L0.717385913,2.03171504 C0.693669405,1.30967881 1.25790552,0.704365079 1.97978671,0.677238333 L5.49758183,0.677238333 C5.74606274,0.677858373 5.98818825,0.755673373 6.19063119,0.899832579 L7.78552825,2.02427456 C8.10205853,2.24903893 8.48043774,2.36994667 8.86873762,2.37025671 L18.3815414,2.37025671 C19.124814,2.39955357 19.7047061,3.02362349 19.6794395,3.76705111 L19.6794395,10.1582651 C19.6794395,10.3452071 19.8310392,10.4969618 20.0179812,10.4969618 C20.2050781,10.4969618 20.3566778,10.3452071 20.3566778,10.1582651 L20.3566778,3.76705111 C20.3817894,2.6497396 19.4986979,1.72247024 18.3815414,1.69301833 Z" id="Path"></path>
                    <path d="M16.2934028,9.81956845 C14.0493242,9.81956845 12.2301277,11.6387649 12.2301277,13.8829985 C12.2301277,16.1270771 14.0493242,17.9462736 16.2934028,17.9462736 C18.5374814,17.9462736 20.3566778,16.1270771 20.3566778,13.8829985 C20.3541977,11.63985 18.5363963,9.82204861 16.2934028,9.81956845 Z M16.2934028,17.2690352 C14.4232081,17.2690352 12.9072111,15.7530382 12.9072111,13.8828435 C12.9072111,12.0128038 14.4232081,10.4968068 16.2934028,10.4968068 C18.1634425,10.4968068 19.6794395,12.0128038 19.6794395,13.8828435 C19.6774244,15.7521081 18.1625124,17.2670201 16.2934028,17.2690352 Z" id="Shape" fill-rule="nonzero"></path>
                    <path d="M16.6319444,11.3044085 C16.6319444,11.1174665 16.4803448,10.9657118 16.2932478,10.9657118 C16.1063058,10.9657118 15.9547061,11.1174665 15.9547061,11.3044085 L15.9547061,13.5443018 L13.7148127,13.5443018 C13.5277158,13.5443018 13.3761161,13.6959015 13.3761161,13.8829985 C13.3761161,14.0699405 13.5277158,14.2215402 13.7148127,14.2215402 L15.9547061,14.2215402 L15.9547061,16.4614335 C15.9547061,16.6483755 16.1063058,16.8001302 16.2932478,16.8001302 C16.4803448,16.8001302 16.6319444,16.6483755 16.6319444,16.4614335 L16.6319444,14.2215402 L18.8718378,14.2215402 C19.0587798,14.2215402 19.2103794,14.0699405 19.2103794,13.8829985 C19.2103794,13.6959015 19.0587798,13.5443018 18.8718378,13.5443018 L16.6319444,13.5443018 L16.6319444,11.3044085 Z" id="Path"></path>
                    <path d="M6.81237599,5.41775175 L10.5369544,5.41775175 C10.7240513,5.41775175 10.875651,5.26615202 10.875651,5.07905508 C10.875651,4.8921131 10.7240513,4.74051341 10.5369544,4.74051341 L6.81237599,4.74051341 C6.62543405,4.74051341 6.47367933,4.8921131 6.47367933,5.07905508 C6.47367933,5.26615202 6.62543405,5.41775175 6.81237599,5.41775175 Z" id="Path"></path>
                    <path d="M6.81237599,6.77222841 L10.5369544,6.77222841 C10.7240513,6.77222841 10.875651,6.62062873 10.875651,6.43353175 C10.875651,6.24658976 10.7240513,6.09499008 10.5369544,6.09499008 L6.81237599,6.09499008 C6.62543405,6.09499008 6.47367933,6.24658976 6.47367933,6.43353175 C6.47367933,6.62062873 6.62543405,6.77222841 6.81237599,6.77222841 Z" id="Path"></path>
                    <path d="M12.5686694,10.4968068 C12.5686694,10.3098648 12.4170697,10.1582651 12.2299727,10.1582651 L6.81237599,10.1582651 C6.62543405,10.1582651 6.47367933,10.3098648 6.47367933,10.4968068 C6.47367933,10.6839038 6.62543405,10.8355035 6.81237599,10.8355035 L12.2301277,10.8355035 C12.4170697,10.8355035 12.5686694,10.6839038 12.5686694,10.4968068 Z" id="Path"></path>
                    <path d="M11.2141927,11.5127418 L6.81237599,11.5127418 C6.62543405,11.5127418 6.47367933,11.6643415 6.47367933,11.8512835 C6.47367933,12.0383805 6.62543405,12.1899802 6.81237599,12.1899802 L11.2141927,12.1899802 C11.4012897,12.1899802 11.5528894,12.0383805 11.5528894,11.8512835 C11.5528894,11.6643415 11.4012897,11.5127418 11.2141927,11.5127418 Z" id="Path"></path>
                    <path d="M11.2141927,12.8670635 L6.81237599,12.8670635 C6.62543405,12.8670635 6.47367933,13.0186632 6.47367933,13.2057602 C6.47367933,13.3927021 6.62543405,13.5443018 6.81237599,13.5443018 L11.2141927,13.5443018 C11.4012897,13.5443018 11.5528894,13.3927021 11.5528894,13.2057602 C11.5528894,13.0186632 11.4012897,12.8670635 11.2141927,12.8670635 Z" id="Path"></path>
                    <path d="M13.9231461,7.44946675 L6.81237599,7.44946675 C6.62543405,7.44946675 6.47367933,7.60106647 6.47367933,7.78800841 C6.47367933,7.9751054 6.62543405,8.12670512 6.81237599,8.12670512 L13.9231461,8.12670512 C14.1100881,8.12670512 14.2616877,7.9751054 14.2616877,7.78800841 C14.2616877,7.60106647 14.1100881,7.44946675 13.9231461,7.44946675 Z" id="Path"></path>
                    <path d="M13.9231461,8.80378845 L6.81237599,8.80378845 C6.62543405,8.80378845 6.47367933,8.95538813 6.47367933,9.14248512 C6.47367933,9.32942706 6.62543405,9.48102679 6.81237599,9.48102679 L13.9231461,9.48102679 C14.1100881,9.48102679 14.2616877,9.32942706 14.2616877,9.14248512 C14.2616877,8.95538813 14.1100881,8.80378845 13.9231461,8.80378845 Z" id="Path"></path>
                    <path d="M15.6113591,6.64558532 C15.609189,6.61737349 15.6034536,6.58962675 15.594153,6.56296504 C15.5907428,6.55133929 15.5864025,6.54002357 15.5815972,6.52901786 C15.5654762,6.49135044 15.5425347,6.45678325 15.5138579,6.42748635 L12.1278212,3.14096603 C12.0989893,3.11383929 12.0656622,3.0921379 12.0292349,3.0766369 C12.0193142,3.07260667 12.0090836,3.06919643 11.9988529,3.06640627 C11.9707961,3.05679563 11.9416543,3.05090524 11.9120474,3.04920016 C11.9053819,3.04920016 11.8988715,3.04547992 11.8922061,3.04547992 L5.45789929,3.04547992 C5.27095734,3.04547992 5.11935762,3.1970796 5.11935762,3.38402159 L5.11935762,14.5600818 C5.11935762,14.7470238 5.27095734,14.8987785 5.45789929,14.8987785 L11.5528894,14.8987785 C11.7398313,14.8987785 11.891431,14.7470238 11.891431,14.5600818 C11.891431,14.3731399 11.7398313,14.2215402 11.5528894,14.2215402 L5.79659599,14.2215402 L5.79659599,3.72473337 L11.5528894,3.72473337 L11.5528894,6.67255706 C11.5528894,6.85965401 11.7044891,7.01125373 11.891431,7.01125373 L14.9389261,7.01125373 L14.9389261,9.14233012 C14.9389261,9.32942706 15.0905258,9.48102679 15.2776228,9.48102679 C15.4645647,9.48102679 15.6161644,9.32942706 15.6161644,9.14233012 L15.6161644,6.77207341 C15.6143043,6.75827754 15.6116691,6.74463667 15.6081039,6.73115079 C15.6110491,6.71456472 15.6129092,6.69782365 15.6138393,6.68108258 C15.6136843,6.66914683 15.6129092,6.65736607 15.6113591,6.64558532 Z M12.2301277,6.3340154 L12.2301277,4.18650794 L14.4425843,6.3340154 L12.2301277,6.3340154 Z" id="Shape" fill-rule="nonzero"></path>
                </g>
            </g>
        </g>
    </g>
</svg>