<?xml version="1.0" encoding="UTF-8"?>
<svg width="14px" height="14px" viewBox="0 0 14 14" version="1.1" xmlns="http://www.w3.org/2000/svg" xmlns:xlink="http://www.w3.org/1999/xlink">
    <!-- Generator: Sketch 64 (93537) - https://sketch.com -->
    <title>Shape Copy 4</title>
    <desc>Created with Sketch.</desc>
    <g id="Page-1" stroke="none" stroke-width="1" fill="none" fill-rule="evenodd">
        <g id="Sipariş-Detayı-v2-Copy-2" transform="translate(-578.000000, -293.000000)" fill="#B4BAC6" fill-rule="nonzero">
            <g id="Sol-İşlemler" transform="translate(126.000000, 165.000000)">
                <g id="SİPARİŞ-TABLOSU">
                    <g id="TABLO-SATIR" transform="translate(0.000000, 120.000000)">
                        <g id="İNPUT" transform="translate(391.000000, 0.000000)">
                            <path d="M68,8 C64.13425,8 61,11.13425 61,15 C61,18.86575 64.13425,22 68,22 C71.86575,22 75,18.86575 75,15 C75,11.13425 71.86575,8 68,8 Z M71.429125,16.5505 C70.2925,18.299625 68.650125,18.518375 67.897625,18.518375 C67.666625,18.518375 67.5205,18.49825 67.496875,18.49475 C67.283375,18.462375 67.125,18.278625 67.125,18.0625 L67.125,15.56 L65.918375,15.861875 C65.883375,15.870625 65.8475,15.875 65.8125,15.875 C65.615625,15.875 65.438,15.742875 65.388125,15.543375 C65.3295,15.30975 65.472125,15.07175 65.706625,15.013125 L67.125,14.65875 L67.125,13.81 L65.918375,14.111875 C65.883375,14.120625 65.8475,14.125 65.8125,14.125 C65.615625,14.125 65.438,13.992875 65.388125,13.793375 C65.3295,13.55975 65.472125,13.32175 65.706625,13.263125 L67.125,12.90875 L67.125,11.9375 C67.125,11.696 67.321,11.5 67.5625,11.5 C67.804,11.5 68,11.696 68,11.9375 L68,12.69 L69.206625,12.388125 C69.435875,12.326875 69.67825,12.472125 69.736875,12.706625 C69.794625,12.941125 69.652875,13.17825 69.418375,13.236875 L68,13.59125 L68,14.44 L69.206625,14.138125 C69.435875,14.07775 69.67825,14.222125 69.736875,14.456625 C69.794625,14.691125 69.652875,14.92825 69.418375,14.986875 L68,15.34125 L68,17.643375 C68.608125,17.624125 69.8305,17.405375 70.695875,16.073625 C70.828,15.8715 71.101,15.8155 71.3005,15.945875 C71.5035,16.077125 71.560375,16.348375 71.429125,16.5505 Z" id="Shape-Copy-4"></path>
                        </g>
                    </g>
                </g>
            </g>
        </g>
    </g>
</svg>