<?xml version="1.0" encoding="UTF-8"?>
<svg width="20px" height="20px" viewBox="0 0 20 20" version="1.1" xmlns="http://www.w3.org/2000/svg" xmlns:xlink="http://www.w3.org/1999/xlink">
    <!-- Generator: Sketch 64 (93537) - https://sketch.com -->
    <title>user copy</title>
    <desc>Created with Sketch.</desc>
    <g id="Page-1" stroke="none" stroke-width="1" fill="none" fill-rule="evenodd">
        <g id="Sipariş-Detayı-v2-Copy-2" transform="translate(-960.000000, -251.000000)" fill-rule="nonzero">
            <g id="Sağ-İşlem-Alanı" transform="translate(932.000000, 58.000000)">
                <g id="Ad-Soyad" transform="translate(28.000000, 188.000000)">
                    <g id="user-copy" transform="translate(0.000000, 5.000000)">
                        <path d="M10,0 C4.48609375,0 0,4.48609375 0,10 C0,15.5139062 4.48609375,20 10,20 C15.5139062,20 20,15.5139062 20,10 C20,4.48609375 15.5139062,0 10,0 Z" id="Shape" fill="#E8F2FF"></path>
                        <path d="M10,5 C11.6541124,5 13,6.34586868 13,8.00001223 C13,9.65415578 11.6541124,11 10,11 C8.34588765,11 7,9.65413132 7,7.99998777 C7,6.34584422 8.34588765,5 10,5 Z" id="Path" fill="#0F82FF"></path>
                        <path d="M9.99998533,16 C7.95547402,16 6.14249429,14.9451563 5,13.3245312 C6.25169015,12.6828437 8.03921137,12 9.99998533,12 C11.9609059,12 13.7485738,12.6829375 15,13.3244687 C13.8575057,14.945125 12.044526,16 9.99998533,16 Z" id="Path" fill="#0F82FF"></path>
                    </g>
                </g>
            </g>
        </g>
    </g>
</svg>