<?xml version="1.0" encoding="UTF-8"?>
<svg width="368px" height="480px" viewBox="0 0 368 480" version="1.1" xmlns="http://www.w3.org/2000/svg" xmlns:xlink="http://www.w3.org/1999/xlink">
    <!-- Generator: Sketch 52.2 (67145) - http://www.bohemiancoding.com/sketch -->
    <title>invoice</title>
    <desc>Created with Sketch.</desc>
    <g id="Page-1" stroke="none" stroke-width="1" fill="none" fill-rule="evenodd">
        <g id="invoice">
            <path d="M248,104 C248,112.835938 255.164062,120 264,120 L360,120 L248,8 L248,104 Z" id="Path" fill="#A1B4BD"></path>
            <g id="Group">
                <path d="M251.3125,0 L24,0 C10.746094,0 0,10.746094 0,24 L0,448 C0,465.671875 14.328125,480 32,480 L336,480 C353.671875,480 368,465.671875 368,448 L368,116.6875 L251.3125,0 Z M256,27.3125 L340.6875,112 L264,112 C259.582031,112 256,108.417969 256,104 L256,27.3125 Z M336,464 L32,464 C23.164062,464 16,456.835938 16,448 L16,24 C16,19.582031 19.582031,16 24,16 L240,16 L240,104 C240,117.253906 250.746094,128 264,128 L352,128 L352,448 C352,456.835938 344.835938,464 336,464 Z" id="Shape" fill="#5D6E76" fill-rule="nonzero"></path>
                <path d="M64,240 C64,306.273438 117.726562,360 184,360 C250.273438,360 304,306.273438 304,240 C304,173.726562 250.273438,120 184,120 C117.757812,120.074219 64.074219,173.757812 64,240 Z M288,240 C288,297.4375 241.4375,344 184,344 C126.5625,344 80,297.4375 80,240 C80,182.5625 126.5625,136 184,136 C241.410156,136.066406 287.933594,182.589844 288,240 Z" id="Shape" fill="#5D6E76" fill-rule="nonzero"></path>
                <polygon id="Path" fill="#A1B4BD" points="104 232 112 232 112 248 104 248"></polygon>
                <polygon id="Path" fill="#A1B4BD" points="256 232 264 232 264 248 256 248"></polygon>
                <polygon id="Path" fill="#5D6E76" points="40 384 208 384 208 400 40 400"></polygon>
                <polygon id="Path" fill="#A1B4BD" points="40 424 328 424 328 440 40 440"></polygon>
                <polygon id="Path" fill="#5D6E76" points="232 384 328 384 328 400 232 400"></polygon>
                <polygon id="Path" fill="#5D6E76" points="40 40 216 40 216 56 40 56"></polygon>
                <polygon id="Path" fill="#A1B4BD" points="40 72 128 72 128 88 40 88"></polygon>
                <polygon id="Path" fill="#A1B4BD" points="152 72 216 72 216 88 152 88"></polygon>
            </g>
            <path d="M177.302734,238.447266 L177.302734,311.323242 C185.359415,311.323242 192.480112,309.980482 198.665039,307.294922 C204.849966,304.609362 210.037902,300.82522 214.229004,295.942383 C218.420106,291.059546 221.593902,285.220574 223.750488,278.425293 C225.907075,271.630012 226.985352,264.122762 226.985352,255.90332 L245.540039,255.90332 C245.540039,267.78489 243.953141,278.364211 240.779297,287.641602 C237.605453,296.918992 232.702344,304.731414 226.069824,311.079102 C219.437304,317.42679 210.994192,322.268864 200.740234,325.605469 C190.486277,328.942074 178.279368,330.610352 164.119141,330.610352 L157.527344,330.610352 L157.527344,246.992188 L128.474609,259.199219 L128.474609,243.330078 L157.527344,231.123047 L157.527344,213.300781 L128.474609,225.507812 L128.474609,209.760742 L157.527344,197.431641 L157.527344,154.34082 L177.302734,154.34082 L177.302734,189.008789 L222.102539,169.96582 L222.102539,185.712891 L177.302734,204.755859 L177.302734,222.700195 L222.102539,203.535156 L222.102539,219.404297 L177.302734,238.447266 Z" id="₺" fill="#5D6E76"></path>
        </g>
    </g>
</svg>