<?xml version="1.0" encoding="utf-8"?>
<!-- Generator: Adobe Illustrator 22.1.0, SVG Export Plug-In . SVG Version: 6.00 Build 0)  -->
<svg version="1.1" id="Layer_1" xmlns="http://www.w3.org/2000/svg" xmlns:xlink="http://www.w3.org/1999/xlink" x="0px" y="0px"
	 viewBox="0 0 267.5 50" style="enable-background:new 0 0 267.5 50;" xml:space="preserve">
<style type="text/css">
	.st0{fill:#FFFFFF;}
	.st1{fill:#FFC40C;}
	.st2{fill:none;}
	.st3{fill:#0D4BA0;}
</style>
<rect x="0" class="st2" width="267.5" height="50"/>
<g>
	<g>
		<g>
			<rect x="170.4" y="8.4" class="st3" width="0.7" height="33.3"/>
		</g>
		<g>
			<path class="st3" d="M192.8,31.9v1c0,0.2-0.1,0.4-0.4,0.4h-8.2c-0.2,0-0.4-0.1-0.4-0.4V17c0-0.2,0.1-0.4,0.4-0.4h8.2
				c0.2,0,0.4,0.1,0.4,0.4v1c0,0.2-0.1,0.4-0.4,0.4h-6.7v5.2h6.3c0.2,0,0.4,0.1,0.4,0.4v1c0,0.2-0.1,0.4-0.4,0.4h-6.3v6.2h6.7
				C192.6,31.6,192.8,31.7,192.8,31.9z"/>
			<path class="st3" d="M202.6,26.2V27c0,0.2-0.1,0.4-0.4,0.4h-7c-0.2,0-0.4-0.1-0.4-0.4v-0.8c0-0.2,0.1-0.4,0.4-0.4h7
				C202.5,25.8,202.6,26,202.6,26.2z"/>
			<path class="st3" d="M211.8,33.5v2c0,0.2-0.1,0.4-0.4,0.4h-1c-0.2,0-0.4-0.1-0.4-0.4v-2c-1.9-0.2-3.4-1.2-4.2-2.4
				c-0.1-0.2-0.1-0.3,0.1-0.5l0.7-0.7c0.2-0.1,0.3-0.1,0.5,0c1,1,2.2,1.9,3.9,1.9c2.2,0,3.6-1.3,3.6-3c0-4-8.4-2.8-8.4-8.2
				c0-2.4,2.1-4.2,4.8-4.2c1.8,0,3.5,0.9,4.7,2.2c0.1,0.2,0.1,0.3,0,0.5l-0.6,0.6c-0.2,0.2-0.3,0.2-0.5,0c-1.1-1.1-2.1-1.7-3.6-1.7
				c-1.7,0-3,0.9-3,2.6c0,3.9,8.5,2.6,8.5,8.3C216.5,31.3,214.5,33.2,211.8,33.5z"/>
			<path class="st3" d="M218.4,17.8c0-0.6,0.5-1.1,1.1-1.1c0.6,0,1.1,0.5,1.1,1.1c0,0.6-0.5,1.1-1.1,1.1
				C218.9,18.9,218.4,18.4,218.4,17.8z M219,21.7h1.1c0.2,0,0.4,0.1,0.4,0.4v10.9c0,0.2-0.1,0.4-0.4,0.4H219c-0.2,0-0.4-0.1-0.4-0.4
				V22C218.6,21.8,218.8,21.7,219,21.7z"/>
			<path class="st3" d="M229,22.2l-0.4,0.8c-0.1,0.2-0.2,0.2-0.4,0.2c-0.2,0-0.5-0.1-0.9-0.1c-1.4,0-2.6,1.1-2.6,2.6v7.3
				c0,0.2-0.1,0.4-0.4,0.4h-1.1c-0.2,0-0.4-0.1-0.4-0.4V22c0-0.2,0.1-0.4,0.4-0.4h0.9c0.2,0,0.3,0.1,0.4,0.4l0.1,1
				c0.6-1,1.6-1.6,2.9-1.6c0.6,0,1.1,0.1,1.4,0.4C229.1,21.9,229.1,22,229,22.2z"/>
			<path class="st3" d="M240,33.3h-1.2c-0.2,0-0.3,0-0.4-0.2l-4.2-5.4L232,30v3c0,0.2-0.1,0.4-0.4,0.4h-1.1c-0.2,0-0.4-0.1-0.4-0.4
				V16.3c0-0.2,0.1-0.4,0.4-0.4h1.1c0.2,0,0.4,0.1,0.4,0.4v11.5l5.7-6c0.1-0.1,0.3-0.2,0.5-0.2h1.2c0.3,0,0.4,0.2,0.2,0.4l-4.3,4.5
				l5,6.3C240.4,33.1,240.3,33.3,240,33.3z"/>
			<path class="st3" d="M251.4,27c0,0.8-0.1,1.2-0.7,1.2H242c0.3,2.1,1.9,3.7,4.3,3.7c1.4,0,2.4-0.5,3.2-1.1c0.2-0.1,0.3-0.2,0.5,0
				l0.5,0.4c0.2,0.2,0.2,0.4,0,0.5c-1.1,1.1-2.6,1.8-4.3,1.8c-3.5,0-5.9-2.7-5.9-6c0-3.3,2.3-6,5.7-6
				C249.2,21.4,251.4,24.1,251.4,27z M241.9,26.8h7.8c-0.1-2.1-1.7-3.8-3.9-3.8C243.7,23,242.2,24.6,241.9,26.8z"/>
			<path class="st3" d="M258.7,22v0.8c0,0.2-0.1,0.4-0.4,0.4h-1.9v9.7c0,0.2-0.1,0.4-0.4,0.4H255c-0.2,0-0.4-0.1-0.4-0.4v-9.7h-1.9
				c-0.2,0-0.4-0.1-0.4-0.4V22c0-0.2,0.1-0.4,0.4-0.4h1.9v-3.2c0-0.2,0.1-0.4,0.4-0.4h1.1c0.2,0,0.4,0.1,0.4,0.4v3.2h1.9
				C258.6,21.7,258.7,21.8,258.7,22z"/>
		</g>
		<g>
			<g>
				<path class="st3" d="M86.9,24.8c0.7-0.8,1-1.8,1-2.9c0-1.5-0.5-2.7-1.6-3.7c-1.1-1-2.5-1.5-4.3-1.5h-7v16.6h3.9v-6.4h1.9
					l3.3,6.4h4.5l-3.9-7C85.7,25.9,86.3,25.5,86.9,24.8z M83.4,23.2c-0.4,0.3-0.9,0.5-1.6,0.5h-2.9v-3.7h2.9c0.7,0,1.2,0.2,1.6,0.5
					c0.4,0.3,0.6,0.8,0.6,1.3C83.9,22.4,83.8,22.9,83.4,23.2z"/>
				<path class="st3" d="M69,27.4c0,0.8-0.2,1.5-0.7,2c-0.5,0.5-1.1,0.7-2,0.7c-0.8,0-1.5-0.2-2-0.7c-0.5-0.5-0.7-1.1-0.7-2V16.7
					h-3.9v10.8c0,1.7,0.6,3.2,1.9,4.3c1.3,1.1,2.8,1.6,4.7,1.6c1.9,0,3.4-0.5,4.7-1.6c1.3-1.1,1.9-2.5,1.9-4.3V16.7H69V27.4z"/>
				<polygon class="st3" points="45.2,20.1 49.7,20.1 49.7,33.3 53.6,33.3 53.6,20.1 58.1,20.1 58.1,16.7 45.2,16.7 				"/>
				<polygon class="st3" points="104.5,16.7 99.6,16.7 94,23.2 94,16.7 90.1,16.7 90.1,33.3 94,33.3 94,28.3 95.9,26.2 100.2,33.3 
					104.8,33.3 98.5,23.4 				"/>
				<polygon class="st3" points="150.1,29.9 150.1,16.7 146.2,16.7 146.2,33.3 157.5,33.3 157.5,29.9 				"/>
				<polygon class="st3" points="137.7,16.7 133.8,16.7 133.8,33.3 144.8,33.3 144.8,29.9 137.7,29.9 				"/>
				<path class="st3" d="M111.5,19.9c1.4,0,2.3,0.7,2.6,2.1l0.1,0.2h4l-0.1-0.3c-0.3-1.7-1.1-3.1-2.3-4c-1.2-0.9-2.7-1.4-4.4-1.4
					c-0.7,0-1.3,0.1-2,0.2c-2.6,0.6-4.3,2.3-5.2,5.1c-0.3,1.1-0.4,2.2-0.4,3.1c0,0.9,0.1,2,0.3,2.8c0.4,1.4,1.1,2.6,2,3.5
					c0.1,0.1,0.3,0.3,0.4,0.4c1.3,1.2,3,1.8,4.9,1.8c1.7,0,3.2-0.5,4.3-1.4c1.2-0.9,2-2.3,2.3-4l0.1-0.3h-4l-0.1,0.2
					c-0.4,1.4-1.2,2.1-2.6,2.1c-0.9,0-1.6-0.1-2.3-0.8c-0.4-0.4-0.7-0.8-0.9-1.3c-0.2-0.5-0.5-1.6-0.5-3.2c0-2,0.4-3.3,1.4-4.2
					C109.8,20.1,110.5,19.9,111.5,19.9z"/>
				<polygon class="st3" points="119.8,33.3 131.7,33.3 131.7,29.9 123.7,29.9 123.7,26.6 130.5,26.6 130.5,23.3 123.7,23.3 
					123.7,20.1 131.7,20.1 131.7,16.7 119.8,16.7 				"/>
			</g>
			<path class="st1" d="M38.5,16.2c-1.2-1.9-2.7-3.5-4.4-4.7c-1.7-1.2-3.7-2.1-5.9-2.6C24.5,8,21,8.4,17.6,9.9c-1.9,0.8-3.5,2-5,3.5
				c-1.8,1.8-3.1,3.9-3.9,6.3c0,0,0,0,0,0.1c0,0.1-0.1,0.2-0.1,0.2c-0.8,2.7-0.1,4.2,1.1,2.9c0-0.1,0.1-0.1,0.1-0.2c0,0,0,0,0.1-0.1
				c1.4-1.7,3.6-3.2,3.6-3.2l0,0c0.6-0.4,1.1-0.8,1.8-1.1c0.7-0.4,1.4-0.8,2.1-1c0,0,0.6-0.3,0.8-1.2c0,0,0,0,0,0c0,0,0,0,0,0
				c0.1-0.7,0.9-2.7,3.1-2.9c0.7-0.1,1.4,0,2,0.3l0,0h0c1.1,0.5,1.9,1.5,2.1,2.7c0.1,1-0.1,1.9-0.6,2.6c0,0-0.1,0.1-0.1,0.1
				c0,0,0,0,0,0l0,0l0,0c-0.4,0.5-1,1-1.7,1.2c-0.4,0.2-0.8,0.2-1.2,0.2c0,0,0,0,0,0c-0.2,0-0.5,0-0.8-0.1c-0.3-0.1-0.6-0.2-0.8-0.3
				c-0.4-0.2-0.8-0.4-0.9-0.5c-0.1-0.1-0.2-0.1-0.3-0.2c-0.2,0-0.4,0-0.6,0.1c0,0,0,0,0,0l0,0c-0.1,0-0.1,0.1-0.2,0.1
				c-0.5,0.4-1,0.9-1.5,1.4c-1.3,1.3-2.3,2.8-2.8,3.6c-0.3,0.4-0.5,0.8-0.7,1.3c-0.2,0.4-0.4,0.8-0.6,1.2c-0.3,0.7-0.6,1.4-0.8,2.1
				c0,0,0,0.1,0,0.1c0,0,0,0.1,0,0.1c0,0,0,0.1,0,0.1c-1.5,5.2,1.2,8.2,3.5,5.1c0.1-0.2,0.3-0.4,0.4-0.6c0,0,0,0,0,0
				c2.4-4.2,7.3-7.2,7.3-7.2l0,0c0.3-0.2,0.6-0.4,0.9-0.6l0,0c0,0,0,0,0.1,0c0.8-0.5,1.7-0.9,2.6-1.3c0.8-0.4,1.6-0.7,2.3-0.9
				c0,0,0.8-0.2,1-1.2l0,0l0,0c0.2-0.7,0.7-1.8,1.9-2.4c0.3-0.1,0.6-0.3,0.9-0.3c0.3-0.1,0.6-0.1,0.9-0.1l0,0c0.2,0,0.4,0,0.5,0.1
				c1.5,0.3,2.7,1.5,2.9,3.2c0.2,2-1.2,3.8-3.1,4c-1,0.1-1.9-0.1-2.6-0.7c-0.8-0.4-1.5-0.1-1.7,0c-0.7,0.4-1.5,0.9-2.1,1.3
				C26.1,29,25,30,24.6,30.4c-0.9,0.9-1.6,1.9-2.3,2.9c0,0.1-0.1,0.1-0.1,0.2c0,0,0,0,0,0c-0.7,1.1-1.4,2.5-2,4.2
				c0,0.1-0.1,0.3-0.1,0.4c-0.6,2.2,0.8,3.1,2.4,3.4c0,0,1.3,0.2,3.1,0.1c0.1,0,0.2,0,0.3,0c0.5-0.1,0.9-0.1,1.4-0.2
				c3.2-0.5,6-1.9,8.3-4c3-2.7,4.8-6.1,5.4-10.1C41.5,23.3,40.7,19.6,38.5,16.2z"/>
		</g>
	</g>
	<rect x="129.4" y="41.6" class="st2" width="8.4" height="8.4"/>
	<rect x="258.7" y="20.8" class="st2" width="8.4" height="8.4"/>
	<rect x="129.4" class="st2" width="8.4" height="8.4"/>
	<rect x="-0.1" y="20.8" class="st2" width="8.4" height="8.4"/>
</g>
</svg>
