<?xml version="1.0" encoding="UTF-8"?>
<svg width="527px" height="157px" viewBox="0 0 527 157" version="1.1" xmlns="http://www.w3.org/2000/svg" xmlns:xlink="http://www.w3.org/1999/xlink">
    <!-- Generator: Sketch 64 (93537) - https://sketch.com -->
    <title>29111 copy 5</title>
    <desc>Created with Sketch.</desc>
    <g id="29111-copy-5" stroke="none" stroke-width="1" fill="none" fill-rule="evenodd">
        <g id="online-shop" transform="translate(363.000000, 17.000000)" fill-rule="nonzero">
            <path d="M102.3634,109.245748 L82.1051172,109.245748 L49.3358594,89.3792969 L37.9817109,109.245748 L16.410625,109.245748 C15.1053848,109.245748 13.0197891,108.187707 13.0197891,106.882467 L13.8582813,44.5714844 L15.73,40.3998203 L104.726682,40.3998203 L104.726682,106.882467 C104.726682,108.187707 103.668641,109.245748 102.3634,109.245748 Z" id="Path" fill="#ECEAEC"></path>
            <path d="M15.3667637,106.811096 L15.3667637,40.3998203 L8.23816211,40.3998203 L8.23816211,106.811096 C8.23816211,108.155803 9.32810742,109.245748 10.6728145,109.245748 L17.801416,109.245748 C16.456709,109.245748 15.3667637,108.155803 15.3667637,106.811096 Z" id="Path" fill="#DAD8DB"></path>
            <path d="M79.574043,103.914186 L74.8056504,99.145793 L75.6134199,98.3380234 C78.0721777,95.879502 78.8489883,92.3267813 77.6406426,89.0663984 C76.4322969,85.8057793 73.5278242,83.6173809 70.060418,83.3548203 L46.0284473,81.5358027 C45.8067715,81.5190234 45.5820234,81.5105156 45.3603477,81.5105156 C42.924041,81.5105156 40.5756484,82.5366523 38.9168613,84.3256562 C37.2590195,86.1137148 36.4139102,88.5339512 36.5980098,90.9660039 L37.9817109,109.245984 L44.0855937,109.245984 L54.7525,95.9589082 L75.9114297,109.245984 L82.1051172,109.245984 C81.9049473,107.231523 81.0241523,105.364059 79.574043,103.914186 L79.574043,103.914186 Z" id="Path" fill="#DAD8DB"></path>
            <path d="M44.4580469,90.5420312 L45.6775,112.945937 C45.8521465,115.252027 47.0482031,116.736641 48.6835938,115.10125 L49.8054434,115.538221 L52.2953965,113.048268 C53.3517832,111.991881 55.0646895,111.991881 56.1210762,113.048268 L56.7336387,113.66083 L64.054375,118.497285 C65.1107617,119.553672 65.9119141,120.659687 66.9683008,119.603301 L67.7186426,119.595266 L75.2702715,112.043637 C76.3266582,110.98725 76.3266582,109.274344 75.2702715,108.217957 L68.1109473,101.058633 C67.0545605,100.002246 67.0545605,98.2893398 68.1109473,97.2329531 L71.3098848,94.0340156 C72.9452754,92.398625 71.9073223,89.5981367 69.6012324,89.4237266 L49.2106055,87.8802676 L46.2326348,88.6986719 C44.5807012,88.5736543 44.3330293,88.8905703 44.4580469,90.5420313 L44.4580469,90.5420312 Z" id="Path" fill="#FFC269"></path>
            <path d="M49.5367383,114.538553 L47.7177207,90.5063457 C47.6312246,89.3627539 48.264584,88.3524512 49.2103691,87.8802676 L45.5687891,87.604709 C43.9173281,87.4796914 42.5421348,88.8548848 42.6671523,90.5063457 L44.4861699,114.538553 C44.6608164,116.844643 47.4610684,117.882596 49.096459,116.247205 L49.8054434,115.538221 C49.6596289,115.24092 49.564625,114.906043 49.5367383,114.538553 L49.5367383,114.538553 Z" id="Path" fill="#FFA95F"></path>
            <path d="M61.1716445,113.048268 C60.1152578,111.991881 58.4023516,111.991881 57.3459648,113.048268 L56.7334023,113.66083 L63.2801641,120.207592 C64.3365508,121.263979 66.049457,121.263979 67.1058437,120.207592 L67.7184062,119.595029 L61.1716445,113.048268 Z" id="Path" fill="#FFA95F"></path>
            <path d="M81.6646016,77.1039414 L31.3002422,77.1039414 C30.6477402,77.1039414 30.1186016,76.5748027 30.1186016,75.9223008 L30.1186016,68.0310684 C30.1186016,67.3785664 30.6477402,66.8494277 31.3002422,66.8494277 L81.6648379,66.8494277 C82.3173398,66.8494277 82.8464785,67.3785664 82.8464785,68.0310684 L82.8464785,75.9223008 C82.8464785,76.5750391 82.3173398,77.1039414 81.6646016,77.1039414 L81.6646016,77.1039414 Z" id="Path" fill="#E5646E"></path>
            <path d="M35.1143418,75.8866152 L35.1143418,68.0667539 C35.1143418,67.3944004 35.6593145,66.8494277 36.331668,66.8494277 L31.3359277,66.8494277 C30.6635742,66.8494277 30.1186016,67.3944004 30.1186016,68.0667539 L30.1186016,75.8866152 C30.1186016,76.5589687 30.6635742,77.1039414 31.3359277,77.1039414 L36.331668,77.1039414 C35.6593145,77.1039414 35.1143418,76.5589687 35.1143418,75.8866152 Z" id="Path" fill="#DB4655"></path>
            <path d="M8.394375,55.7786367 L8.14977539,56.1189492 C3.84860352,56.1189492 2.69414063,53.1769004 2.69414063,48.8757285 L2.69414063,38.3967031 C2.69414063,35.7862227 7.14514453,33.6701406 9.755625,33.6701406 L16.2626836,33.6701406 L20.645625,41.7090781 L16.2626836,48.8759648 C16.2626836,52.259002 14.0811387,55.0748516 11.0672461,56.1499082 C10.2493145,56.4415371 9.31250977,55.7786367 8.394375,55.7786367 L8.394375,55.7786367 Z" id="Path" fill="#B3E59F"></path>
            <path d="M40.6505645,55.8318105 L40.1386777,55.8318105 C35.8375059,55.8318105 35.1089063,53.1769004 35.1089063,48.8757285 L40.3038711,33.6701406 L48.4385215,33.6701406 L52.9620781,42.2920996 L48.4385215,48.8757285 C48.4385215,52.2538027 46.2498867,55.070834 43.243084,56.1496719 C42.4213711,56.4446094 41.5736621,55.8318105 40.6505645,55.8318105 L40.6505645,55.8318105 Z" id="Path" fill="#B3E59F"></path>
            <path d="M72.874377,55.9381582 L72.3624902,55.9381582 C68.0613184,55.9381582 67.0982812,50.8578125 67.0982812,46.5566406 L80.6143594,33.6701406 L90.4853125,41.9624219 L80.6143594,48.8757285 C80.6143594,52.2679824 78.4455762,55.0814687 75.4189219,56.1496719 C74.6078437,56.4358652 73.7832949,55.9381582 72.874377,55.9381582 L72.874377,55.9381582 Z" id="Path" fill="#B3E59F"></path>
            <path d="M5.87180859,48.640582 L5.87180859,38.539209 C5.87180859,35.8500313 8.05193555,33.6699043 10.7411133,33.6699043 L5.04395117,33.6699043 C2.35477344,33.6699043 0.174646484,35.8497949 0.174646484,38.539209 L0.174646484,48.640582 C0.174646484,53.071498 3.76659766,56.6636855 8.19775,56.6636855 L8.23958008,56.6636855 C9.23499414,56.6636855 10.1876328,56.4810039 11.0672461,56.1496719 C8.03184766,55.0060801 5.87180859,52.0763203 5.87180859,48.640582 L5.87180859,48.640582 Z" id="Path" fill="#95D6A4"></path>
            <path d="M105.002004,55.5907559 L104.490117,55.5907559 C100.188945,55.5907559 98.1234375,53.1769004 98.1234375,48.8757285 L102.399086,33.6701406 L108.063398,33.6701406 C110.673879,33.6701406 112.789961,35.7862227 112.789961,38.3967031 L112.789961,48.8757285 C112.789961,52.2519121 110.598727,55.0696523 107.594523,56.1496719 C106.771393,56.4455547 105.926992,55.5907559 105.002004,55.5907559 L105.002004,55.5907559 Z" id="Path" fill="#B3E59F"></path>
            <path d="M24.5875781,56.2997402 L24.0345703,56.0586855 C19.7333984,56.0586855 18.166543,53.1769004 18.166543,48.8757285 L21.8898926,33.6701406 L32.3504844,33.6701406 L36.7253906,42.0493906 L32.3504844,48.8759648 C32.3504844,52.2682188 30.1817012,55.0817051 27.1550469,56.1499082 C26.3442051,56.4358652 25.4964961,56.2997402 24.5875781,56.2997402 L24.5875781,56.2997402 Z" id="Path" fill="#78C2A4"></path>
            <path d="M56.7383652,55.3426113 L56.2264785,55.3426113 C51.9253066,55.3426113 50.9334375,53.1769004 50.9334375,48.8757285 L54.1283574,33.6701406 L64.5263223,33.6701406 L68.97,41.0464141 L64.5263223,48.8757285 C64.5263223,52.2679824 62.3575391,55.0814687 59.3308848,56.1496719 C58.5198066,56.4358652 57.6472832,55.3426113 56.7383652,55.3426113 L56.7383652,55.3426113 Z" id="Path" fill="#78C2A4"></path>
            <path d="M88.9142031,55.7467324 L88.4023164,55.7467324 C84.1011445,55.7467324 82.2421875,53.1769004 82.2421875,48.8757285 L86.3112852,33.6701406 L96.7021602,33.6701406 L101.413125,41.9075937 L96.7021602,48.8759648 C96.7021602,52.2682187 94.533377,55.0817051 91.5067227,56.1499082 C90.6956445,56.4358652 89.8231211,55.7467324 88.9142031,55.7467324 L88.9142031,55.7467324 Z" id="Path" fill="#78C2A4"></path>
            <path d="M102.399086,48.640582 L102.399086,33.6699043 L96.7021602,33.6699043 L96.7021602,48.640582 C96.7021602,53.071498 100.294111,56.6636855 104.725264,56.6636855 L104.767094,56.6636855 C105.762508,56.6636855 106.715146,56.4810039 107.59476,56.1496719 C104.559125,55.0060801 102.399086,52.0763203 102.399086,48.640582 L102.399086,48.640582 Z" id="Path" fill="#95D6A4"></path>
            <path d="M49.1664121,47.8160332 L52.9618418,42.2920996 L48.4382852,33.6699043 L32.3504844,33.6699043 L32.3504844,48.640582 C32.3504844,53.0717344 35.9424355,56.6636855 40.3735879,56.6636855 L40.415418,56.6636855 C41.410832,56.6636855 42.3634707,56.4810039 43.243084,56.1496719 C40.2076855,55.0060801 38.0476465,52.076084 38.0476465,48.640582 L38.0476465,41.6492871 C41.1768672,44.5079121 44.9704063,46.6502266 49.1664121,47.8160332 L49.1664121,47.8160332 Z" id="Path" fill="#95D6A4"></path>
            <path d="M21.9596094,48.640582 L21.9596094,33.6699043 L16.2626836,33.6699043 L16.2626836,48.640582 C16.2626836,53.071498 19.8546348,56.6636855 24.2857871,56.6636855 L24.3276172,56.6636855 C25.3230312,56.6636855 26.2756699,56.4810039 27.1552832,56.1496719 C24.1196484,55.0060801 21.9596094,52.0763203 21.9596094,48.640582 L21.9596094,48.640582 Z" id="Path" fill="#68B594"></path>
            <path d="M86.3112852,48.640582 L86.3112852,33.6699043 L80.6143594,33.6699043 L80.6143594,48.640582 C80.6143594,53.071498 84.2063105,56.6636855 88.6374629,56.6636855 L88.679293,56.6636855 C89.674707,56.6636855 90.6273457,56.4810039 91.506959,56.1496719 C88.4713242,55.0060801 86.3112852,52.0763203 86.3112852,48.640582 L86.3112852,48.640582 Z" id="Path" fill="#68B594"></path>
            <path d="M65.413498,47.3126543 L68.97,41.0464141 L64.5263223,33.6701406 L48.4385215,33.6701406 L48.4385215,48.6408184 C48.4385215,53.0719707 52.0304727,56.6639219 56.461625,56.6639219 L56.5034551,56.6639219 C57.4988691,56.6639219 58.4515078,56.4812402 59.3311211,56.1499082 C56.3160469,55.0138789 54.1668789,52.1148418 54.1382832,48.7091172 C54.9113125,48.7752891 55.6928496,48.8109746 56.4826582,48.8109746 C59.6085703,48.8109746 62.6132461,48.2823086 65.413498,47.3126543 Z" id="Path" fill="#68B594"></path>
            <path d="M64.5263223,33.6701406 L64.5263223,48.6408184 C64.5263223,53.0719707 68.1182734,56.6639219 72.5494258,56.6639219 L72.5912559,56.6639219 C73.5866699,56.6639219 74.5393086,56.4812402 75.4189219,56.1499082 C72.3835234,55.0063164 70.2234844,52.0763203 70.2234844,48.6408184 L70.2234844,45.0956602 C74.6026445,42.5407168 78.2149199,38.8095684 80.6143594,34.3318594 L80.6143594,33.670377 L64.5263223,33.6701406 Z" id="Path" fill="#95D6A4"></path>
            <path d="M39.3254727,21.4512676 C39.3254727,9.60413867 44.635293,0 56.4824219,0 C68.3295508,0 77.9336895,9.60413867 77.9336895,21.4512676 C77.9336895,33.2983965 68.3295508,42.9027715 56.4824219,42.9027715 C44.635293,42.9027715 39.3254727,33.2986328 39.3254727,21.4512676 Z" id="Path" fill="#80B4FB"></path>
            <path d="M38.4746914,21.4512676 C38.4746914,20.8363418 40.0484004,20.2275605 40.0992109,19.6258691 C40.9559004,9.45950586 48.9033789,1.31280273 58.9782832,0.145105469 C58.1591699,0.0503378906 57.3268223,0 56.4824219,0 C45.2502187,0 36.0343672,8.63283008 35.1077246,19.6251602 C35.0569141,20.2270879 36.6880508,20.8361055 36.6880508,21.4512676 C36.6880508,22.0664297 35.0571504,22.6754473 35.1077246,23.277375 C36.0343672,34.2699414 45.2502187,42.9025352 56.4824219,42.9025352 C57.3268223,42.9025352 58.1591699,42.8521973 58.9782832,42.7571934 C48.9031426,41.5897324 40.9556641,33.442793 40.0989746,23.2764297 C40.0484004,22.6749746 38.4746914,22.0661934 38.4746914,21.4512676 L38.4746914,21.4512676 Z" id="Path" fill="#61A2F9"></path>
            <path d="M77.9336895,21.4512676 C77.9336895,20.8361055 77.9062754,20.2273242 77.8554648,19.6253965 L68.8447461,19.6253965 C68.6327598,14.3042324 67.5009844,9.33472461 65.5983066,5.47548633 C64.6544121,3.56075586 63.5587949,1.99579102 62.3518672,0.81296875 C60.4865293,0.283357422 58.5174434,0 56.4824219,0 C54.4474004,0 52.4783145,0.283357422 50.6129766,0.81296875 C49.4060488,1.99602734 48.3104316,3.56075586 47.3665371,5.47548633 C45.4638594,9.33472461 44.3318477,14.3042324 44.1200977,19.6253965 L40.0916484,19.6253965 L35.9559062,20.4849219 C35.9050957,21.0870859 35.4737969,20.8363418 35.4737969,21.4515039 C35.4737969,22.066666 36.014752,22.2493477 36.0653262,22.8515117 L40.0914121,23.2776113 L44.1198613,23.2776113 C44.3318477,28.5987754 45.463623,33.5682832 47.3663008,37.4275215 C48.3104316,39.342252 49.4058125,40.9072168 50.6129766,42.0900391 C52.4783145,42.6194141 54.4474004,42.9030078 56.4824219,42.9030078 C58.5174434,42.9030078 60.4865293,42.6196504 62.3518672,42.0900391 C63.5587949,40.9069805 64.6544121,39.342252 65.598543,37.4275215 C67.5012207,33.5682832 68.6332324,28.5987754 68.8449824,23.2776113 L77.8557012,23.2776113 C77.9062754,22.6752109 77.9336895,22.0664297 77.9336895,21.4512676 L77.9336895,21.4512676 Z M65.190877,19.6253965 L58.3085293,19.6253965 L58.3085293,2.33137695 C61.6450098,4.1366875 64.8068437,10.6784863 65.190877,19.6253965 Z M54.6565508,2.33137695 L54.6565508,19.6251602 L47.7742031,19.6251602 C48.158,10.6784863 51.319834,4.1366875 54.6565508,2.33137695 Z M47.7739668,23.2771387 L54.6563145,23.2771387 L54.6563145,40.5709219 C51.319834,38.7658477 48.158,32.2242852 47.7739668,23.2771387 Z M58.308293,40.5711582 L58.308293,23.2771387 L65.1906406,23.2771387 C64.8068437,32.2242852 61.6450098,38.7658477 58.308293,40.5711582 Z" id="Shape" fill="#4591E5"></path>
            <path d="M40.0916484,19.6253965 L35.1093789,19.6253965 C35.0585684,20.2275605 35.0311543,20.8361055 35.0311543,21.4512676 C35.0311543,22.0664297 35.0585684,22.6752109 35.1093789,23.2771387 L40.0916484,23.2771387 C40.0408379,22.6749746 40.0134238,22.0664297 40.0134238,21.4512676 C40.0134238,20.8361055 40.0408379,20.2273242 40.0916484,19.6253965 Z" id="Path" fill="#3282CC"></path>
        </g>
        <path d="M70.12,70 L70.12,58.88 L81.32,42.32 L81.32,42 L74.16,42 L67.08,53.12 L60.36,42 L53.16,42 L53.16,42.32 L63.88,58.88 L63.88,70 L70.12,70 Z M93.56,70.44 C96.52,70.44 99.92,69.6 102.04,67.52 L98.8,63.92 C97.4,65.12 95.24,65.48 93.68,65.48 C90.44,65.48 88.6,63.92 88.32,62 L102.84,62 C104.08,53.92 99.68,49.72 92.96,49.72 C86.52,49.72 82.48,53.92 82.48,59.92 C82.48,66.24 86.4,70.44 93.56,70.44 Z M97.68,57.8 L88.32,57.8 C88.88,55.84 90.64,54.64 92.96,54.64 C95.36,54.64 97.56,55.64 97.68,57.8 Z M112.36,70 L112.36,59.8 C112.36,57.24 114.16,54.92 116.84,54.96 C119.6,54.96 120.92,56.52 120.92,59.56 L120.92,70 L126.72,70 L126.72,59.52 C126.72,51.84 122.92,49.76 118.48,49.76 C116.08,49.72 113.84,50.48 112.08,52.76 L111.88,50.24 L106.68,50.24 L106.68,70 L112.36,70 Z M130.92,45 C130.92,49.32 137.48,49.32 137.48,45 C137.48,40.68 130.92,40.68 130.92,45 Z M137.08,70 L137.08,50.2 L131.32,50.2 L131.32,70 L137.08,70 Z M158.36,70.04 L158.36,50.48 L166.72,61.44 L167.84,61.44 L176.48,50.56 L176.48,70.04 L182.72,70.04 L182.72,42.04 L175.64,42.04 L167.44,52.8 L159.28,42.04 L152.12,42.04 L152.12,42.04 L152.12,70.04 L158.36,70.04 Z M197.36,70.44 C199.28,70.4 202.12,69.6 203.44,67.52 L203.76,70 L208.96,70 L208.96,50.24 L208.96,50.24 L203.56,50.24 L203.36,52.52 C202.32,50.76 200,49.8 197.52,49.8 C191.68,49.72 187.16,53.56 187.16,60.12 C187.16,66.64 191.44,70.48 197.36,70.44 Z M198.12,65.32 C195.24,65.32 192.92,63.4 192.92,60.12 C192.92,56.84 195.24,54.88 198.12,54.88 C201.56,54.88 203.36,57.48 203.36,60.32 C203.36,62.8 201.36,65.32 198.12,65.32 Z M219.6,70 L219.6,59.72 C219.6,56.76 221.72,55.16 224.2,55.16 C225.4,55.16 226.4,55.48 227.36,56.16 L229.76,51.6 C228.36,50.36 226.8,49.8 224.92,49.8 C222.72,49.8 220.96,50.6 219.64,52.44 L219.2,50.28 L213.84,50.28 L213.84,70 L219.6,70 Z M237.76,70 L237.76,61.32 L244.6,70 L251.52,70 L251.52,69.56 L243.16,59.56 L250.4,50.64 L250.4,50.28 L243.6,50.28 L237.76,58 L237.76,42.04 L232,42.04 L232,70 L237.76,70 Z M263,70.44 C264.92,70.4 267.76,69.6 269.08,67.52 L269.4,70 L274.6,70 L274.6,50.24 L274.6,50.24 L269.2,50.24 L269,52.52 C267.96,50.76 265.64,49.8 263.16,49.8 C257.32,49.72 252.8,53.56 252.8,60.12 C252.8,66.64 257.08,70.48 263,70.44 Z M263.76,65.32 C260.88,65.32 258.56,63.4 258.56,60.12 C258.56,56.84 260.88,54.88 263.76,54.88 C267.2,54.88 269,57.48 269,60.32 C269,62.8 267,65.32 263.76,65.32 Z M77.04,110 L77.04,106.68 L60.16,106.68 L60.16,97.2 L75.72,97.2 L75.72,93.96 L60.16,93.96 L60.16,85.2 L76.4,85.2 L76.4,82 L56.72,82 L56.72,110 L77.04,110 Z M85.28,110 L85.28,100.68 L94.6,110 L98.6,110 L98.6,109.76 L88.36,99.56 L97.48,90.44 L97.48,90.24 L93.4,90.24 L85.28,98.56 L85.28,82 L82.04,82 L82.04,110 L85.28,110 Z M105.4,110 L105.4,82 L102.12,82 L102.12,110 L105.4,110 Z M120.8,110.36 C123.88,110.36 127.32,109.2 129.32,106.84 L129.36,106.84 L127.16,104.84 C125.84,106.44 123.12,107.32 120.88,107.32 C117.08,107.32 114.08,105.04 113.72,101.4 L130.52,101.4 C131.28,93.52 126.68,89.8 120.64,89.8 C114.68,89.8 110.4,94.08 110.4,100.04 C110.4,106.32 114.68,110.36 120.8,110.36 Z M127.397,98.64 L113.72,98.64 C114.28,94.84 117.28,92.76 120.72,92.76 C124.511818,92.76 127.11936,94.7465289 127.385262,98.4209128 L127.397,98.64 Z" id="YeniMarkaEkle" fill="#3F3F3F" fill-rule="nonzero"></path>
    </g>
</svg>