<?xml version="1.0" encoding="UTF-8"?>
<svg width="527px" height="157px" viewBox="0 0 527 157" version="1.1" xmlns="http://www.w3.org/2000/svg" xmlns:xlink="http://www.w3.org/1999/xlink">
    <!-- Generator: Sketch 64 (93537) - https://sketch.com -->
    <title>29111 copy 5</title>
    <desc>Created with Sketch.</desc>
    <g id="29111-copy-5" stroke="none" stroke-width="1" fill="none" fill-rule="evenodd">
        <g id="online-shop" transform="translate(363.000000, 50.000000)" fill-rule="nonzero">
            <path d="M102.3634,76.245748 L82.1051172,76.245748 L49.3358594,56.3792969 L37.9817109,76.245748 L16.410625,76.245748 C15.1053848,76.245748 13.0197891,75.187707 13.0197891,73.8824668 L13.8582813,11.5714844 L15.73,7.39982031 L104.726682,7.39982031 L104.726682,73.8824668 C104.726682,75.187707 103.668641,76.245748 102.3634,76.245748 Z" id="Path" fill="#ECEAEC"></path>
            <path d="M15.3667637,73.8110957 L15.3667637,7.39982031 L8.23816211,7.39982031 L8.23816211,73.8110957 C8.23816211,75.1558027 9.32810742,76.245748 10.6728145,76.245748 L17.801416,76.245748 C16.456709,76.245748 15.3667637,75.1558027 15.3667637,73.8110957 Z" id="Path" fill="#DAD8DB"></path>
            <path d="M79.574043,70.9141855 L74.8056504,66.145793 L75.6134199,65.3380234 C78.0721777,62.879502 78.8489883,59.3267813 77.6406426,56.0663984 C76.4322969,52.8057793 73.5278242,50.6173809 70.060418,50.3548203 L46.0284473,48.5358027 C45.8067715,48.5190234 45.5820234,48.5105156 45.3603477,48.5105156 C42.924041,48.5105156 40.5756484,49.5366523 38.9168613,51.3256562 C37.2590195,53.1137148 36.4139102,55.5339512 36.5980098,57.9660039 L37.9817109,76.2459844 L44.0855937,76.2459844 L54.7525,62.9589082 L75.9114297,76.2459844 L82.1051172,76.2459844 C81.9049473,74.2315234 81.0241523,72.3640586 79.574043,70.9141855 L79.574043,70.9141855 Z" id="Path" fill="#DAD8DB"></path>
            <path d="M44.4580469,57.5420312 L45.6775,79.9459375 C45.8521465,82.2520273 47.0482031,83.7366406 48.6835937,82.10125 L49.8054434,82.5382207 L52.2953965,80.0482676 C53.3517832,78.9918809 55.0646895,78.9918809 56.1210762,80.0482676 L56.7336387,80.6608301 L64.054375,85.4972852 C65.1107617,86.5536719 65.9119141,87.6596875 66.9683008,86.6033008 L67.7186426,86.5952656 L75.2702715,79.0436367 C76.3266582,77.98725 76.3266582,76.2743437 75.2702715,75.217957 L68.1109473,68.0586328 C67.0545605,67.0022461 67.0545605,65.2893398 68.1109473,64.2329531 L71.3098848,61.0340156 C72.9452754,59.398625 71.9073223,56.5981367 69.6012324,56.4237266 L49.2106055,54.8802676 L46.2326348,55.6986719 C44.5807012,55.5736543 44.3330293,55.8905703 44.4580469,57.5420313 L44.4580469,57.5420312 Z" id="Path" fill="#FFC269"></path>
            <path d="M49.5367383,81.5385527 L47.7177207,57.5063457 C47.6312246,56.3627539 48.264584,55.3524512 49.2103691,54.8802676 L45.5687891,54.604709 C43.9173281,54.4796914 42.5421348,55.8548848 42.6671523,57.5063457 L44.4861699,81.5385527 C44.6608164,83.8446426 47.4610684,84.8825957 49.096459,83.2472051 L49.8054434,82.5382207 C49.6596289,82.2409199 49.564625,81.906043 49.5367383,81.5385527 L49.5367383,81.5385527 Z" id="Path" fill="#FFA95F"></path>
            <path d="M61.1716445,80.0482676 C60.1152578,78.9918809 58.4023516,78.9918809 57.3459648,80.0482676 L56.7334023,80.6608301 L63.2801641,87.2075918 C64.3365508,88.2639785 66.049457,88.2639785 67.1058437,87.2075918 L67.7184062,86.5950293 L61.1716445,80.0482676 Z" id="Path" fill="#FFA95F"></path>
            <path d="M81.6646016,44.1039414 L31.3002422,44.1039414 C30.6477402,44.1039414 30.1186016,43.5748027 30.1186016,42.9223008 L30.1186016,35.0310684 C30.1186016,34.3785664 30.6477402,33.8494277 31.3002422,33.8494277 L81.6648379,33.8494277 C82.3173398,33.8494277 82.8464785,34.3785664 82.8464785,35.0310684 L82.8464785,42.9223008 C82.8464785,43.5750391 82.3173398,44.1039414 81.6646016,44.1039414 L81.6646016,44.1039414 Z" id="Path" fill="#E5646E"></path>
            <path d="M35.1143418,42.8866152 L35.1143418,35.0667539 C35.1143418,34.3944004 35.6593145,33.8494277 36.331668,33.8494277 L31.3359277,33.8494277 C30.6635742,33.8494277 30.1186016,34.3944004 30.1186016,35.0667539 L30.1186016,42.8866152 C30.1186016,43.5589687 30.6635742,44.1039414 31.3359277,44.1039414 L36.331668,44.1039414 C35.6593145,44.1039414 35.1143418,43.5589687 35.1143418,42.8866152 Z" id="Path" fill="#DB4655"></path>
            <path d="M8.394375,22.7786367 L8.14977539,23.1189492 C3.84860352,23.1189492 2.69414062,20.1769004 2.69414062,15.8757285 L2.69414062,5.39670312 C2.69414062,2.78622266 7.14514453,0.670140625 9.755625,0.670140625 L16.2626836,0.670140625 L20.645625,8.70907812 L16.2626836,15.8759648 C16.2626836,19.259002 14.0811387,22.0748516 11.0672461,23.1499082 C10.2493145,23.4415371 9.31250977,22.7786367 8.394375,22.7786367 L8.394375,22.7786367 Z" id="Path" fill="#B3E59F"></path>
            <path d="M40.6505645,22.8318105 L40.1386777,22.8318105 C35.8375059,22.8318105 35.1089062,20.1769004 35.1089062,15.8757285 L40.3038711,0.670140625 L48.4385215,0.670140625 L52.9620781,9.29209961 L48.4385215,15.8757285 C48.4385215,19.2538027 46.2498867,22.070834 43.243084,23.1496719 C42.4213711,23.4446094 41.5736621,22.8318105 40.6505645,22.8318105 L40.6505645,22.8318105 Z" id="Path" fill="#B3E59F"></path>
            <path d="M72.874377,22.9381582 L72.3624902,22.9381582 C68.0613184,22.9381582 67.0982812,17.8578125 67.0982812,13.5566406 L80.6143594,0.670140625 L90.4853125,8.96242188 L80.6143594,15.8757285 C80.6143594,19.2679824 78.4455762,22.0814687 75.4189219,23.1496719 C74.6078437,23.4358652 73.7832949,22.9381582 72.874377,22.9381582 L72.874377,22.9381582 Z" id="Path" fill="#B3E59F"></path>
            <path d="M5.87180859,15.640582 L5.87180859,5.53920898 C5.87180859,2.85003125 8.05193555,0.669904297 10.7411133,0.669904297 L5.04395117,0.669904297 C2.35477344,0.669904297 0.174646484,2.84979492 0.174646484,5.53920898 L0.174646484,15.640582 C0.174646484,20.071498 3.76659766,23.6636855 8.19775,23.6636855 L8.23958008,23.6636855 C9.23499414,23.6636855 10.1876328,23.4810039 11.0672461,23.1496719 C8.03184766,22.0060801 5.87180859,19.0763203 5.87180859,15.640582 L5.87180859,15.640582 Z" id="Path" fill="#95D6A4"></path>
            <path d="M105.002004,22.5907559 L104.490117,22.5907559 C100.188945,22.5907559 98.1234375,20.1769004 98.1234375,15.8757285 L102.399086,0.670140625 L108.063398,0.670140625 C110.673879,0.670140625 112.789961,2.78622266 112.789961,5.39670312 L112.789961,15.8757285 C112.789961,19.2519121 110.598727,22.0696523 107.594523,23.1496719 C106.771393,23.4455547 105.926992,22.5907559 105.002004,22.5907559 L105.002004,22.5907559 Z" id="Path" fill="#B3E59F"></path>
            <path d="M24.5875781,23.2997402 L24.0345703,23.0586855 C19.7333984,23.0586855 18.166543,20.1769004 18.166543,15.8757285 L21.8898926,0.670140625 L32.3504844,0.670140625 L36.7253906,9.04939062 L32.3504844,15.8759648 C32.3504844,19.2682188 30.1817012,22.0817051 27.1550469,23.1499082 C26.3442051,23.4358652 25.4964961,23.2997402 24.5875781,23.2997402 L24.5875781,23.2997402 Z" id="Path" fill="#78C2A4"></path>
            <path d="M56.7383652,22.3426113 L56.2264785,22.3426113 C51.9253066,22.3426113 50.9334375,20.1769004 50.9334375,15.8757285 L54.1283574,0.670140625 L64.5263223,0.670140625 L68.97,8.04641406 L64.5263223,15.8757285 C64.5263223,19.2679824 62.3575391,22.0814687 59.3308848,23.1496719 C58.5198066,23.4358652 57.6472832,22.3426113 56.7383652,22.3426113 L56.7383652,22.3426113 Z" id="Path" fill="#78C2A4"></path>
            <path d="M88.9142031,22.7467324 L88.4023164,22.7467324 C84.1011445,22.7467324 82.2421875,20.1769004 82.2421875,15.8757285 L86.3112852,0.670140625 L96.7021602,0.670140625 L101.413125,8.90759375 L96.7021602,15.8759648 C96.7021602,19.2682187 94.533377,22.0817051 91.5067227,23.1499082 C90.6956445,23.4358652 89.8231211,22.7467324 88.9142031,22.7467324 L88.9142031,22.7467324 Z" id="Path" fill="#78C2A4"></path>
            <path d="M102.399086,15.640582 L102.399086,0.669904297 L96.7021602,0.669904297 L96.7021602,15.640582 C96.7021602,20.071498 100.294111,23.6636855 104.725264,23.6636855 L104.767094,23.6636855 C105.762508,23.6636855 106.715146,23.4810039 107.59476,23.1496719 C104.559125,22.0060801 102.399086,19.0763203 102.399086,15.640582 L102.399086,15.640582 Z" id="Path" fill="#95D6A4"></path>
            <path d="M49.1664121,14.8160332 L52.9618418,9.29209961 L48.4382852,0.669904297 L32.3504844,0.669904297 L32.3504844,15.640582 C32.3504844,20.0717344 35.9424355,23.6636855 40.3735879,23.6636855 L40.415418,23.6636855 C41.410832,23.6636855 42.3634707,23.4810039 43.243084,23.1496719 C40.2076855,22.0060801 38.0476465,19.076084 38.0476465,15.640582 L38.0476465,8.64928711 C41.1768672,11.5079121 44.9704062,13.6502266 49.1664121,14.8160332 L49.1664121,14.8160332 Z" id="Path" fill="#95D6A4"></path>
            <path d="M21.9596094,15.640582 L21.9596094,0.669904297 L16.2626836,0.669904297 L16.2626836,15.640582 C16.2626836,20.071498 19.8546348,23.6636855 24.2857871,23.6636855 L24.3276172,23.6636855 C25.3230312,23.6636855 26.2756699,23.4810039 27.1552832,23.1496719 C24.1196484,22.0060801 21.9596094,19.0763203 21.9596094,15.640582 L21.9596094,15.640582 Z" id="Path" fill="#68B594"></path>
            <path d="M86.3112852,15.640582 L86.3112852,0.669904297 L80.6143594,0.669904297 L80.6143594,15.640582 C80.6143594,20.071498 84.2063105,23.6636855 88.6374629,23.6636855 L88.679293,23.6636855 C89.674707,23.6636855 90.6273457,23.4810039 91.506959,23.1496719 C88.4713242,22.0060801 86.3112852,19.0763203 86.3112852,15.640582 L86.3112852,15.640582 Z" id="Path" fill="#68B594"></path>
            <path d="M65.413498,14.3126543 L68.97,8.04641406 L64.5263223,0.670140625 L48.4385215,0.670140625 L48.4385215,15.6408184 C48.4385215,20.0719707 52.0304727,23.6639219 56.461625,23.6639219 L56.5034551,23.6639219 C57.4988691,23.6639219 58.4515078,23.4812402 59.3311211,23.1499082 C56.3160469,22.0138789 54.1668789,19.1148418 54.1382832,15.7091172 C54.9113125,15.7752891 55.6928496,15.8109746 56.4826582,15.8109746 C59.6085703,15.8109746 62.6132461,15.2823086 65.413498,14.3126543 Z" id="Path" fill="#68B594"></path>
            <path d="M64.5263223,0.670140625 L64.5263223,15.6408184 C64.5263223,20.0719707 68.1182734,23.6639219 72.5494258,23.6639219 L72.5912559,23.6639219 C73.5866699,23.6639219 74.5393086,23.4812402 75.4189219,23.1499082 C72.3835234,22.0063164 70.2234844,19.0763203 70.2234844,15.6408184 L70.2234844,12.0956602 C74.6026445,9.5407168 78.2149199,5.80956836 80.6143594,1.33185937 L80.6143594,0.670376953 L64.5263223,0.670140625 Z" id="Path" fill="#95D6A4"></path>
        </g>
        <path d="M62.36,70.04 L62.36,50.48 L70.72,61.44 L71.84,61.44 L80.48,50.56 L80.48,70.04 L86.72,70.04 L86.72,42.04 L79.64,42.04 L71.44,52.8 L63.28,42.04 L56.12,42.04 L56.12,42.04 L56.12,70.04 L62.36,70.04 Z M101.36,70.44 C103.28,70.4 106.12,69.6 107.44,67.52 L107.76,70 L112.96,70 L112.96,50.24 L112.96,50.24 L107.56,50.24 L107.36,52.52 C106.32,50.76 104,49.8 101.52,49.8 C95.68,49.72 91.16,53.56 91.16,60.12 C91.16,66.64 95.44,70.48 101.36,70.44 Z M102.12,65.32 C99.24,65.32 96.92,63.4 96.92,60.12 C96.92,56.84 99.24,54.88 102.12,54.88 C105.56,54.88 107.36,57.48 107.36,60.32 C107.36,62.8 105.36,65.32 102.12,65.32 Z M123.6,70 L123.6,59.72 C123.6,56.76 125.72,55.16 128.2,55.16 C129.4,55.16 130.4,55.48 131.36,56.16 L133.76,51.6 C132.36,50.36 130.8,49.8 128.92,49.8 C126.72,49.8 124.96,50.6 123.64,52.44 L123.2,50.28 L117.84,50.28 L117.84,70 L123.6,70 Z M141.76,70 L141.76,61.32 L148.6,70 L155.52,70 L155.52,69.56 L147.16,59.56 L154.4,50.64 L154.4,50.28 L147.6,50.28 L141.76,58 L141.76,42.04 L136,42.04 L136,70 L141.76,70 Z M167,70.44 C168.92,70.4 171.76,69.6 173.08,67.52 L173.4,70 L178.6,70 L178.6,50.24 L178.6,50.24 L173.2,50.24 L173,52.52 C171.96,50.76 169.64,49.8 167.16,49.8 C161.32,49.72 156.8,53.56 156.8,60.12 C156.8,66.64 161.08,70.48 167,70.44 Z M167.76,65.32 C164.88,65.32 162.56,63.4 162.56,60.12 C162.56,56.84 164.88,54.88 167.76,54.88 C171.2,54.88 173,57.48 173,60.32 C173,62.8 171,65.32 167.76,65.32 Z M191.64,78.88 L203.76,50.24 L197.4,50.24 L192.56,62.68 L187.64,50.24 L181.16,50.24 L189.44,69.4 L185.36,78.88 L191.64,78.88 Z M212.2,70 L212.2,50.24 L206.4,50.24 L206.4,70 L212.2,70 Z M66.92,110 C76.72,110 81,102.84 81,95.68 C81,88.76 76.44,81.96 66.92,81.96 L56.72,81.96 L56.72,110 L66.92,110 Z M66.92,106.52 L60.2,106.52 L60.2,85.32 L66.92,85.32 C74.08,85.32 77.52,90.44 77.52,95.64 C77.52,101 74.36,106.52 66.92,106.52 Z M92.84,83.84 C92.84,81.04 88.56,81.04 88.56,83.88 C88.56,86.64 92.84,86.64 92.84,83.84 Z M102,83.88 C102,81.04 97.72,81.04 97.72,83.88 C97.72,86.68 102,86.68 102,83.88 Z M94.28,110.36 C97.04,110.32 99.4,109.28 101.12,106.88 L101.28,110.08 L104.32,110.08 L104.32,90.28 L104.36,90.24 L101.08,90.24 L101.08,100.84 C101.08,104.44 98.6,107.28 95,107.32 C91.24,107.36 89,105 89,101.16 L89,90.28 L85.72,90.28 L85.72,101.2 C85.72,106.96 89.28,110.36 94.28,110.36 Z M124.56,110 L124.56,106.84 L113.44,106.84 L124.56,91.72 L124.56,90.24 L109.24,90.24 L109.24,93.24 L119.76,93.24 L108.56,108.72 L108.56,110 L124.56,110 Z M138.32,110.36 C141.4,110.36 144.84,109.2 146.84,106.84 L146.88,106.84 L144.68,104.84 C143.36,106.44 140.64,107.32 138.4,107.32 C134.6,107.32 131.6,105.04 131.24,101.4 L148.04,101.4 C148.8,93.52 144.2,89.8 138.16,89.8 C132.2,89.8 127.92,94.08 127.92,100.04 C127.92,106.32 132.2,110.36 138.32,110.36 Z M144.918,98.64 L131.24,98.64 C131.8,94.84 134.8,92.76 138.24,92.76 C142.031818,92.76 144.63936,94.7465289 144.905262,98.4209128 L144.918,98.64 Z M155.84,110 L155.84,99.4 C155.84,95.84 158.32,93 161.92,92.96 C165.68,92.96 167.92,95.32 167.92,99.12 L167.92,110 L171.2,110 L171.2,99.08 C171.2,93.28 167.52,89.92 162.52,89.92 C159.88,89.92 157.48,91 155.76,93.36 L155.6,90.2 L152.6,90.2 L152.6,110 L155.84,110 Z M180.44,110 L180.44,82 L177.16,82 L177.16,110 L180.44,110 Z M195.84,110.36 C198.92,110.36 202.36,109.2 204.36,106.84 L204.4,106.84 L202.2,104.84 C200.88,106.44 198.16,107.32 195.92,107.32 C192.12,107.32 189.12,105.04 188.76,101.4 L205.56,101.4 C206.32,93.52 201.72,89.8 195.68,89.8 C189.72,89.8 185.44,94.08 185.44,100.04 C185.44,106.32 189.72,110.36 195.84,110.36 Z M202.437,98.64 L188.76,98.64 C189.32,94.84 192.32,92.76 195.76,92.76 C199.551818,92.76 202.15936,94.7465289 202.425262,98.4209128 L202.437,98.64 Z" id="MarkayıDüzenle" fill="#3F3F3F" fill-rule="nonzero"></path>
        <g id="settings" transform="translate(394.000000, 12.000000)" fill-rule="nonzero">
            <path d="M47.0859375,28.1748047 L50,27.7177734 L50,22.2822266 L47.0859375,21.8251953 C44.6875,21.4208984 43.8447266,18.2441406 45.7197266,16.703125 L47.9189453,14.8916016 L45.2128906,10.2060547 L42.5214844,11.2138672 C40.2431641,12.0673828 37.9316406,9.75878906 38.7861328,7.47851562 L39.7939453,4.78710937 L35.1083984,2.08105469 L33.296875,4.28027344 C31.7587891,6.15136719 28.5800781,5.31640625 28.1748047,2.9140625 L27.7177734,-5.55111512e-15 L22.2822266,-5.55111512e-15 L21.8251953,2.9140625 C21.4179687,5.3125 18.2441406,6.15527344 16.703125,4.28027344 L14.8916016,2.08105469 L10.2060547,4.78710937 L11.2138672,7.47851562 C12.0673828,9.75683594 9.75878906,12.0683594 7.47851562,11.2138672 L4.78710937,10.2060547 L2.08105469,14.8916016 L4.28027344,16.703125 C6.14746094,18.2402344 5.32226562,21.4189453 2.9140625,21.8251953 L-5.55111512e-15,22.2822266 L-5.55111512e-15,27.7177734 L2.9140625,28.1748047 C5.30273437,28.5800781 6.16210937,31.7480469 4.28027344,33.296875 L2.08105469,35.1083984 L4.78710937,39.7939453 L7.47851562,38.7861328 C9.74609375,37.9365234 12.0722656,40.2324219 11.2138672,42.5214844 L10.2060547,45.2128906 L14.8916016,47.9189453 L16.703125,45.7197266 C18.2392578,43.8535156 21.4169922,44.6777344 21.8251953,47.0859375 L22.2822266,50 L27.7177734,50 L28.1748047,47.0859375 C28.5771484,44.703125 31.7451172,43.8339844 33.296875,45.7197266 L35.1083984,47.9189453 L39.7939453,45.2128906 L38.7861328,42.5214844 C37.9365234,40.2539062 40.2324219,37.9277344 42.5214844,38.7861328 L45.2128906,39.7939453 L47.9189453,35.1083984 L45.7197266,33.296875 C43.8486328,31.7578125 44.6835937,28.5820312 47.0859375,28.1748047 Z M25,37.2070312 C18.2685547,37.2070312 12.7929687,31.7314453 12.7929687,25 C12.7929687,18.2685547 18.2685547,12.7929687 25,12.7929687 C31.7314453,12.7929687 37.2070312,18.2685547 37.2070312,25 C37.2070312,31.7314453 31.7314453,37.2070312 25,37.2070312 Z" id="Shape" fill="#7ED8F6"></path>
            <path d="M45.7197266,33.296875 L47.9189453,35.1083984 L45.2128906,39.7939453 L42.5214844,38.7861328 C40.2324219,37.9277344 37.9365234,40.2539062 38.7861328,42.5214844 L39.7939453,45.2128906 L35.1083984,47.9189453 L33.296875,45.7197266 C31.7451172,43.8339844 28.5771484,44.703125 28.1748047,47.0859375 L27.7177734,50 L25,50 L25,37.2070312 C31.7314453,37.2070312 37.2070312,31.7314453 37.2070312,25 C37.2070312,18.2685547 31.7314453,12.7929688 25,12.7929688 L25,0 L27.7177734,0 L28.1748047,2.9140625 C28.5800781,5.31640625 31.7587891,6.15136719 33.296875,4.28027344 L35.1083984,2.08105469 L39.7939453,4.78710938 L38.7861328,7.47851562 C37.9316406,9.75878906 40.2431641,12.0673828 42.5214844,11.2138672 L45.2128906,10.2060547 L47.9189453,14.8916016 L45.7197266,16.703125 C43.8447266,18.2441406 44.6875,21.4208984 47.0859375,21.8251953 L50,22.2822266 L50,27.7177734 L47.0859375,28.1748047 C44.6835938,28.5820313 43.8486328,31.7578125 45.7197266,33.296875 Z" id="Path" fill="#6AA9FF"></path>
            <path d="M25,11.8164062 C17.7304688,11.8164062 11.8164062,17.7304688 11.8164062,25 C11.8164062,32.2695312 17.7304688,38.1835938 25,38.1835938 C32.2695312,38.1835938 38.1835938,32.2695312 38.1835938,25 C38.1835938,17.7304688 32.2695312,11.8164062 25,11.8164062 Z M25,32.3242188 C20.9619141,32.3242188 17.6757812,29.0390625 17.6757812,25 C17.6757812,20.9609375 20.9619141,17.6757812 25,17.6757812 C29.0380859,17.6757812 32.3242188,20.9609375 32.3242188,25 C32.3242188,29.0390625 29.0380859,32.3242188 25,32.3242188 Z" id="Shape" fill="#6AA9FF"></path>
            <path d="M38.1835938,25 C38.1835938,32.2695312 32.2695312,38.1835938 25,38.1835938 L25,32.3242188 C29.0380859,32.3242188 32.3242188,29.0390625 32.3242188,25 C32.3242188,20.9609375 29.0380859,17.6757812 25,17.6757812 L25,11.8164062 C32.2695312,11.8164062 38.1835938,17.7304688 38.1835938,25 Z" id="Path" fill="#4895FF"></path>
        </g>
    </g>
</svg>