<?xml version="1.0" encoding="UTF-8"?>
<svg width="15px" height="15px" viewBox="0 0 15 15" version="1.1" xmlns="http://www.w3.org/2000/svg" xmlns:xlink="http://www.w3.org/1999/xlink">
    <!-- Generator: Sketch 64 (93537) - https://sketch.com -->
    <title>pencil</title>
    <desc>Created with Sketch.</desc>
    <g id="Page-1" stroke="none" stroke-width="1" fill="none" fill-rule="evenodd">
        <g id="Profil-Sayfası-Copy-4" transform="translate(-822.000000, -114.000000)" fill-rule="nonzero">
            <g id="Düzenle" transform="translate(814.000000, 107.000000)">
                <g id="pencil" transform="translate(8.000000, 7.000000)">
                    <path d="M7.4998,0 C3.35785,0 5.00000024e-05,3.35805 5.00000024e-05,7.49985 C5.00000024e-05,11.64165 3.35785,15 7.4998,15 C11.64175,15 14.99995,11.64185 14.99995,7.49985 C14.99995,3.35785 11.64175,0 7.4998,0 Z" id="Shape" fill="#D0021B"></path>
                    <g id="trash" transform="translate(3.000000, 2.000000)">
                        <path d="M8.18208984,1.92308594 L6.25900391,1.92308594 C6.25902344,0.860957031 5.39804687,0 4.3359375,0 C3.27382813,0 2.41285156,0.860957031 2.41285156,1.92308594 L0.489785156,1.92308594 C0.224199219,1.92308594 0.0090234375,2.13828125 0.0090234375,2.40384766 C0.0090234375,2.66941406 0.22421875,2.88460938 0.489785156,2.88460938 L0.682089844,2.88460938 L0.682089844,8.75 C0.683242187,9.44 1.24208984,9.99884766 1.93208984,10 L6.73978516,10 C7.42978516,9.99884766 7.98863281,9.44 7.98978516,8.75 L7.98978516,2.88460938 L8.18208984,2.88460938 C8.44767578,2.88460938 8.66285156,2.66941406 8.66285156,2.40384766 C8.66285156,2.13828125 8.44767578,1.92308594 8.18208984,1.92308594 Z M4.3359375,0.961542969 C4.86689453,0.961542969 5.29748047,1.39212891 5.29748047,1.92308594 L3.37439453,1.92308594 C3.37439453,1.39210938 3.80498047,0.961542969 4.3359375,0.961542969 Z M7.02824219,8.75 C7.02824219,8.90923828 6.89900391,9.03845703 6.73978516,9.03845703 L1.93208984,9.03845703 C1.77285156,9.03845703 1.64363281,8.90921875 1.64363281,8.75 L1.64363281,2.88460938 L7.02824219,2.88460938 L7.02824219,8.75 Z" id="Shape" fill="#FFFFFF"></path>
                        <g id="Group" transform="translate(2.792969, 4.511719)" fill="#FFBBC0">
                            <path d="M0.485273438,2.89212891 C0.2196875,2.89212891 0.00451171875,2.67693359 0.00451171875,2.41136719 L0.00451171875,0.48828125 C0.00451171875,0.222695312 0.219707031,0.00751953125 0.485273438,0.00751953125 C0.750839844,0.00751953125 0.966035156,0.222714844 0.966035156,0.48828125 L0.966035156,2.41136719 C0.966054687,2.67693359 0.750859375,2.89212891 0.485273438,2.89212891 Z" id="Path"></path>
                            <path d="M2.60066406,2.89212891 C2.33507812,2.89212891 2.11990234,2.67693359 2.11990234,2.41136719 L2.11990234,0.48828125 C2.11990234,0.222695312 2.33509766,0.00751953125 2.60066406,0.00751953125 C2.86625,0.00751953125 3.08142578,0.222714844 3.08142578,0.48828125 L3.08142578,2.41136719 C3.08142578,2.67693359 2.86623047,2.89212891 2.60066406,2.89212891 Z" id="Path"></path>
                        </g>
                    </g>
                </g>
            </g>
        </g>
    </g>
</svg>