<?xml version="1.0" encoding="UTF-8"?>
<svg width="100px" height="100px" viewBox="0 0 100 100" version="1.1" xmlns="http://www.w3.org/2000/svg" xmlns:xlink="http://www.w3.org/1999/xlink">
    <!-- Generator: Sketch 64 (93537) - https://sketch.com -->
    <title>Group 2</title>
    <desc>Created with Sketch.</desc>
    <g id="Page-1" stroke="none" stroke-width="1" fill="none" fill-rule="evenodd">
        <g id="Artboard" transform="translate(-137.000000, -288.000000)">
            <g id="Opencart" transform="translate(41.000000, 288.000000)">
                <g id="Group-2" transform="translate(96.000000, 0.000000)">
                    <circle id="Oval" fill="#23C0F0" cx="50" cy="50" r="50"></circle>
                    <g id="Group" transform="translate(16.989600, 26.180934)" fill="#FFFFFF">
                        <path d="M64,14.1280283 C63.9761599,11.3792696 58.9983424,10.1315699 46.1127563,10.1315699 C15.8787134,10.1315699 8.20815407,8.81381023 0,0 C3.4532417,5.29220268 5.34257138,15.218458 37.2990632,14.724511 C70.640666,14.2003992 50.3002738,23.4968447 44.3819635,34 C55.0551862,24.2797891 63.9678158,17.8728303 64,14.1678019 L64,14.1280283 Z" id="Path"></path>
                        <path d="M27,45.5054578 C26.9988263,47.9709829 24.9706573,49.9994131 22.5046948,50 C20.0140845,50 18,47.986124 18,45.5054578 C18,45.5042841 18,45.5031104 18,45.5019366 C18,43.0323035 20.0316901,41 22.5023474,41 C22.5035211,41 22.5035211,41 22.5046948,41 C24.9870892,41 27,43.0144629 27,45.5054578 Z" id="Path"></path>
                        <path d="M48,45.5054578 C47.9988261,47.9709829 45.9703926,49.9994131 43.5041085,50 C41.0155211,50 39,47.986124 39,45.5054578 C39,45.5042841 39,45.5031104 39,45.5019366 C39,43.0323035 41.0319551,41 43.5017608,41 C43.5029347,41 43.5029347,41 43.5041085,41 C45.9868267,41 48,43.0144629 48,45.5054578 Z" id="Path"></path>
                    </g>
                </g>
            </g>
        </g>
    </g>
</svg>