<?xml version="1.0" encoding="UTF-8"?>
<svg width="32px" height="26px" viewBox="0 0 32 26" version="1.1" xmlns="http://www.w3.org/2000/svg" xmlns:xlink="http://www.w3.org/1999/xlink">
    <!-- Generator: Sketch 52.2 (67145) - http://www.bohemiancoding.com/sketch -->
    <title>mico5</title>
    <desc>Created with Sketch.</desc>
    <g id="Page-1" stroke="none" stroke-width="1" fill="none" fill-rule="evenodd">
        <g id="ÜRÜNLER-LİSTESİ-V2" transform="translate(-120.000000, -74.000000)" fill="#0F82FF">
            <g id="Başlık-ve-Menüler" transform="translate(82.000000, 58.000000)">
                <g id="Sayfa-Başlığı" transform="translate(39.000000, 17.000000)">
                    <g id="mico5">
                        <path d="M29.7608601,3.03825199 L28.0971098,2.48342329 L28.0971098,0 L27.0936416,0 L27.0936416,2.14851765 L22.2348486,0.527714897 L22.2348486,0.533740186 C22.184048,0.51459734 22.1305506,0.503927557 22.0763006,0.502107418 L4.01387283,0.502107418 C3.73679017,0.502107418 3.51213873,0.726926014 3.51213873,1.00421483 L3.51213873,4.83228179 L0.123928324,8.70704474 C0.0454696532,8.79924421 0.00319855491,8.91686287 0.00501734104,9.03793353 L0,9.03793353 L0,10.2932021 C0.00100346821,11.5410645 1.01268757,12.5518695 2.25962225,12.5508654 C2.70553844,12.5504887 3.14135723,12.4179951 3.51213873,12.1700796 L3.51213873,23.5990486 C3.51213873,23.8763374 3.73679017,24.1011561 4.01387283,24.1011561 L29.6023121,24.1011561 C29.8793948,24.1011561 30.1040462,23.8763374 30.1040462,23.5990486 L30.1040462,3.51475193 C30.104109,3.29853192 29.9658185,3.10660136 29.7608601,3.03825199 Z M3.51213873,10.2932021 C3.51213873,10.9864869 2.95057283,11.5484706 2.25780347,11.5484706 C1.5650341,11.5484706 1.00346821,10.9864869 1.00346821,10.2932021 L1.00346821,9.54004097 L3.51213873,9.54004097 L3.51213873,10.2932021 Z M3.78809249,8.5358261 L1.60554913,8.5358261 L4.24166012,5.5231816 L6.42219653,5.5231816 L3.78809249,8.5358261 Z M15.654104,8.5358261 L18.2882081,5.5231816 L20.8631075,5.5231816 L17.8567168,8.5358261 L15.654104,8.5358261 Z M17.5606936,9.54004097 L17.5606936,10.2932021 C17.5606936,10.9864869 16.9991277,11.5484706 16.3063584,11.5484706 C15.613589,11.5484706 15.0520231,10.9864869 15.0520231,10.2932021 L15.0520231,9.54004097 L17.5606936,9.54004097 Z M14.3245087,8.5358261 L12.1419653,8.5358261 L14.7760694,5.5231816 L16.9586127,5.5231816 L14.3245087,8.5358261 Z M14.0485549,9.54004097 L14.0485549,10.2932021 C14.0485549,10.9864869 13.486989,11.5484706 12.7942197,11.5484706 C12.1014503,11.5484706 11.5398844,10.9864869 11.5398844,10.2932021 L11.5398844,9.54004097 L14.0485549,9.54004097 Z M10.8123699,8.5358261 L8.62982659,8.5358261 L11.2639306,5.5231816 L13.446474,5.5231816 L10.8123699,8.5358261 Z M10.5364162,9.54004097 L10.5364162,10.2932021 C10.5364162,10.9864869 9.97485029,11.5484706 9.28208092,11.5484706 C8.58931156,11.5484706 8.02774566,10.9864869 8.02774566,10.2932021 L8.02774566,9.54004097 L10.5364162,9.54004097 Z M7.30023121,8.5358261 L5.11768786,8.5358261 L7.75179191,5.5231816 L9.93433526,5.5231816 L7.30023121,8.5358261 Z M7.02427746,9.54004097 L7.02427746,10.2932021 C7.02427746,10.9864869 6.46271156,11.5484706 5.7699422,11.5484706 C5.07717283,11.5484706 4.51560694,10.9864869 4.51560694,10.2932021 L4.51560694,9.54004097 L7.02427746,9.54004097 Z M19.5676301,23.0969413 L15.5537572,23.0969413 L15.5537572,15.0632225 L19.5676301,15.0632225 L19.5676301,23.0969413 Z M21.5745665,23.0969413 L20.5710983,23.0969413 L20.5710983,14.5611151 C20.5710983,14.2838263 20.3464468,14.0590077 20.0693642,14.0590077 L15.0520231,14.0590077 C14.7749405,14.0590077 14.550289,14.2838263 14.550289,14.5611151 L14.550289,23.0969413 L4.51560694,23.0969413 L4.51560694,12.1700796 C5.48803035,12.8264596 6.80194653,12.6195913 7.52601156,11.6960902 C8.28438266,12.6666639 9.68541243,12.8381963 10.6552645,12.0792609 C10.7980078,11.9676047 10.9265772,11.838877 11.0381503,11.6960902 C11.7965214,12.6666639 13.1975512,12.8381963 14.1674032,12.0792609 C14.3101465,11.9676047 14.4387159,11.838877 14.550289,11.6960902 C15.3190084,12.6719359 16.7326442,12.8393888 17.7077645,12.0700975 C18.2513306,11.6412978 18.567235,10.9857965 18.5641618,10.2932021 L18.5641618,9.54004097 L21.5745665,9.54004097 L21.5745665,23.0969413 Z M21.5745665,8.5358261 L19.2736139,8.5358261 L21.5745665,6.23316149 L21.5745665,8.5358261 Z M21.5745665,4.51896676 L4.51560694,4.51896676 L4.51560694,1.50632225 L21.5745665,1.50632225 L21.5745665,4.51896676 Z M29.100578,23.0969413 L22.5780347,23.0969413 L22.5780347,1.70113994 L27.0936416,3.20746219 L27.0936416,5.02107418 L26.0901734,5.02107418 L26.0901734,6.02528902 L27.5953757,6.02528902 C27.8724584,6.02528902 28.0971098,5.80047042 28.0971098,5.5231816 L28.0971098,3.54186573 L29.100578,3.87677137 L29.100578,23.0969413 Z" id="Shape" stroke="#0F82FF" stroke-width="0.895953757" fill-rule="nonzero"></path>
                        <path d="M13.0450867,14.0590077 L6.02080925,14.0590077 C5.74372659,14.0590077 5.51907514,14.2838263 5.51907514,14.5611151 L5.51907514,20.0842968 C5.51907514,20.3615856 5.74372659,20.5864041 6.02080925,20.5864041 L13.0450867,20.5864041 C13.3221694,20.5864041 13.5468208,20.3615856 13.5468208,20.0842968 L13.5468208,14.5611151 C13.5468208,14.2838263 13.3221694,14.0590077 13.0450867,14.0590077 Z M6.52254335,15.0632225 L8.32176185,15.0632225 L6.52254335,16.8637798 L6.52254335,15.0632225 Z M6.52254335,19.5821893 L6.52254335,18.2837395 L9.7406659,15.0632225 L11.3321665,15.0632225 L6.81655954,19.5821893 L6.52254335,19.5821893 Z M12.5433526,19.5821893 L10.7441341,19.5821893 L12.5433526,17.7816321 L12.5433526,19.5821893 Z M12.5433526,16.3616723 L9.32523006,19.5821893 L8.23546358,19.5821893 L12.5433526,15.271095 L12.5433526,16.3616723 Z" id="Shape" fill-rule="nonzero"></path>
                        <rect id="Rectangle" x="16.0554913" y="18.0758671" width="1.00346821" height="1.50632225"></rect>
                    </g>
                </g>
            </g>
        </g>
    </g>
</svg>