<svg height="512" viewBox="0 0 64 64" width="512" xmlns="http://www.w3.org/2000/svg"><g id="Worldwide-shopping_online-global-bag-smartphone" data-name="Worldwide-shopping online-global-bag-smartphone"><path d="m56 11h-1-4-1l-1 8h8z" fill="#bddbff"/><path d="m51 45h-1l-1 8h8l-1-8h-1z" fill="#bddbff"/><path d="m44.44 45c.19-.18.38-.37.56-.56v-5.44a2.006 2.006 0 0 1 2-2h2.29a17.927 17.927 0 0 0 .71-5h-10a36.512 36.512 0 0 1 -1.16 9.35 17.885 17.885 0 0 1 5.6 3.65z" fill="#bddbff"/><path d="m32 14c2.9 0 5.43 3.46 6.84 8.65a17.885 17.885 0 0 0 5.6-3.65 17.862 17.862 0 0 0 -12.44-5z" fill="#bddbff"/><path d="m25.16 22.65a36.512 36.512 0 0 0 -1.16 9.35h16a36.512 36.512 0 0 0 -1.16-9.35 18 18 0 0 1 -13.68 0z" fill="#bddbff"/><path d="m25.16 41.35c1.41 5.19 3.94 8.65 6.84 8.65s5.43-3.46 6.84-8.65a18 18 0 0 0 -13.68 0z" fill="#bddbff"/><path d="m32 14a17.862 17.862 0 0 0 -12.44 5 17.885 17.885 0 0 0 5.6 3.65c1.41-5.19 3.94-8.65 6.84-8.65z" fill="#bddbff"/><path d="m14 32a17.927 17.927 0 0 0 .71 5h2.29a2.006 2.006 0 0 1 2 2v5.44c.18.19.37.38.56.56a17.885 17.885 0 0 1 5.6-3.65 36.512 36.512 0 0 1 -1.16-9.35z" fill="#bddbff"/><path d="m13 11h-4-1l-1 8h8l-1-8z" fill="#bddbff"/><path d="m14 45h-1-4-1l-1 8h8z" fill="#bddbff"/><g fill="#57a4ff"><path d="m52 56h2v2h-2z"/><path d="m62 25v-20a3.009 3.009 0 0 0 -3-3h-12a3.009 3.009 0 0 0 -3 3v12.29a18.928 18.928 0 0 0 -24 0v-12.29a3.009 3.009 0 0 0 -3-3h-12a3.009 3.009 0 0 0 -3 3v20a3.009 3.009 0 0 0 3 3h8.43a18.82 18.82 0 0 0 0 8h-8.43a3.009 3.009 0 0 0 -3 3v20a3.009 3.009 0 0 0 3 3h12a3.009 3.009 0 0 0 3-3v-12.29a18.928 18.928 0 0 0 24 0v12.29a3.009 3.009 0 0 0 3 3h12a3.009 3.009 0 0 0 3-3v-20a3.009 3.009 0 0 0 -3-3h-8.43a18.82 18.82 0 0 0 0-8h8.43a3.009 3.009 0 0 0 3-3zm-15 3h1.51a16.984 16.984 0 0 1 .45 3h-7.98a37.784 37.784 0 0 0 -.97-7.79 18.667 18.667 0 0 0 3.99-2.5v4.29a3.009 3.009 0 0 0 3 3zm-4.07-9.01a16.921 16.921 0 0 1 -3.46 2.27 17.728 17.728 0 0 0 -2.84-5.61 16.675 16.675 0 0 1 6.3 3.34zm-17.91 12.01a35.694 35.694 0 0 1 .83-7.04 18.7 18.7 0 0 0 12.3 0 35.694 35.694 0 0 1 .83 7.04zm13.96 2a35.694 35.694 0 0 1 -.83 7.04 18.7 18.7 0 0 0 -12.3 0 35.694 35.694 0 0 1 -.83-7.04zm-6.98-18c2.09 0 4.27 2.62 5.63 7.02a16.662 16.662 0 0 1 -11.26 0c1.36-4.4 3.54-7.02 5.63-7.02zm-4.63.65a17.728 17.728 0 0 0 -2.84 5.61 16.921 16.921 0 0 1 -3.46-2.27 16.675 16.675 0 0 1 6.3-3.34zm-7.37 9.35v-4.29a18.667 18.667 0 0 0 3.99 2.5 37.784 37.784 0 0 0 -.97 7.79h-7.98a16.984 16.984 0 0 1 .45-3h1.51a3.009 3.009 0 0 0 3-3zm-15 1a1 1 0 0 1 -1-1v-20a1 1 0 0 1 1-1h12a1 1 0 0 1 1 1v20a1 1 0 0 1 -1 1zm13 33a1 1 0 0 1 -1 1h-12a1 1 0 0 1 -1-1v-20a1 1 0 0 1 1-1h12a1 1 0 0 1 1 1zm-1-23h-1.51a16.984 16.984 0 0 1 -.45-3h7.98a37.784 37.784 0 0 0 .97 7.79 18.667 18.667 0 0 0 -3.99 2.5v-4.29a3.009 3.009 0 0 0 -3-3zm4.07 9.01a16.921 16.921 0 0 1 3.46-2.27 17.728 17.728 0 0 0 2.84 5.61 16.675 16.675 0 0 1 -6.3-3.34zm10.93 3.99c-2.09 0-4.27-2.62-5.63-7.02a16.662 16.662 0 0 1 11.26 0c-1.36 4.4-3.54 7.02-5.63 7.02zm4.63-.65a17.728 17.728 0 0 0 2.84-5.61 16.921 16.921 0 0 1 3.46 2.27 16.675 16.675 0 0 1 -6.3 3.34zm7.37-9.35v4.29a18.667 18.667 0 0 0 -3.99-2.5 37.784 37.784 0 0 0 .97-7.79h7.98a16.984 16.984 0 0 1 -.45 3h-1.51a3.009 3.009 0 0 0 -3 3zm15-1a1 1 0 0 1 1 1v20a1 1 0 0 1 -1 1h-12a1 1 0 0 1 -1-1v-20a1 1 0 0 1 1-1zm-12-12a1 1 0 0 1 -1-1v-20a1 1 0 0 1 1-1h12a1 1 0 0 1 1 1v20a1 1 0 0 1 -1 1z"/><path d="m56.99 44.88a1 1 0 0 0 -.99-.88v-1a3 3 0 0 0 -6 0v1a1 1 0 0 0 -.99.88l-1 8a.968.968 0 0 0 .24.78.981.981 0 0 0 .75.34h8a.981.981 0 0 0 .75-.34.968.968 0 0 0 .24-.78zm-4.99-1.88a1 1 0 0 1 2 0v1h-2zm-1.87 9 .75-6h4.24l.75 6z"/><path d="m56.99 10.88a1 1 0 0 0 -.99-.88v-1a3 3 0 0 0 -6 0v1a1 1 0 0 0 -.99.88l-1 8a.968.968 0 0 0 .24.78.981.981 0 0 0 .75.34h8a.981.981 0 0 0 .75-.34.968.968 0 0 0 .24-.78zm-4.99-1.88a1 1 0 0 1 2 0v1h-2zm-1.87 9 .75-6h4.24l.75 6z"/><path d="m52 22h2v2h-2z"/><path d="m14.99 10.88a1 1 0 0 0 -.99-.88v-1a3 3 0 0 0 -6 0v1a1 1 0 0 0 -.99.88l-1 8a.968.968 0 0 0 .24.78.981.981 0 0 0 .75.34h8a.981.981 0 0 0 .75-.34.968.968 0 0 0 .24-.78zm-4.99-1.88a1 1 0 0 1 2 0v1h-2zm-1.87 9 .75-6h4.24l.75 6z"/><path d="m10 22h2v2h-2z"/><path d="m14.99 44.88a1 1 0 0 0 -.99-.88v-1a3 3 0 0 0 -6 0v1a1 1 0 0 0 -.99.88l-1 8a.968.968 0 0 0 .24.78.981.981 0 0 0 .75.34h8a.981.981 0 0 0 .75-.34.968.968 0 0 0 .24-.78zm-4.99-1.88a1 1 0 0 1 2 0v1h-2zm-1.87 9 .75-6h4.24l.75 6z"/><path d="m10 56h2v2h-2z"/><path d="m23 7h2v2h-2z"/><path d="m27 7h2v2h-2z"/><path d="m31 7h2v2h-2z"/><path d="m35 7h2v2h-2z"/><path d="m39 7h2v2h-2z"/><path d="m23 55h2v2h-2z"/><path d="m27 55h2v2h-2z"/><path d="m31 55h2v2h-2z"/><path d="m35 55h2v2h-2z"/><path d="m39 55h2v2h-2z"/></g></g></svg>