<svg height="512" viewBox="0 0 60 60" width="512" xmlns="http://www.w3.org/2000/svg"><g id="Page-1" fill="none" fill-rule="evenodd"><g id="038---Cutomer-Satisfaction" transform="translate(0 -1)"><path id="Path" d="m38.54 50.37c-.2388535.2214742-.3481983.5495086-.29.87l.84 4.76.3 1.71c.1117632.7475503-.2074594 1.4942461-.8250889 1.929971-.6176296.4357249-1.4281398.4860325-2.0949111.130029l-6-3.06c-.2953801-.1500045-.6446199-.1500045-.94 0l-6 3.06c-.6667713.3560035-1.4772815.3056959-2.0949111-.130029-.6176295-.4357249-.9368521-1.1824207-.8250889-1.929971l.3-1.71.84-4.76c.0581983-.3204914-.0511465-.6485258-.29-.87l-4.85-4.58c-.5483834-.5182622-.745496-1.3080187-.5049597-2.0231846.2405363-.715166.8748444-1.2252855 1.6249597-1.3068154l6.71-.95c.3230927-.0396324.6047657-.2386813.75-.53l2.64-5.19.36-.7c.3558834-.6692478 1.0520121-1.0875032 1.81-1.0875032s1.4541166.4182554 1.81 1.0875032l.36.7 2.64 5.19c.1452343.2913187.4269073.4903676.75.53l6.71.95c.7501153.0815299 1.3844234.5916494 1.6249597 1.3068154.2405363.7151659.0434237 1.5049224-.5049597 2.0231846z" fill="#c6d8fb"/><path id="Path" d="m43.39 45.79c.5483834-.5182622.745496-1.3080187.5049597-2.0231846-.2405363-.715166-.8748444-1.2252855-1.6249597-1.3068154l-6.71-.95c-.3230927-.0396324-.6047657-.2386813-.75-.53l-2.64-5.19-.36-.7c-.3120087-.5839754-.8863883-.9817395-1.5427926-1.0684008-.6564042-.0866612-1.3143331.1484084-1.7672074.6314008.122801.1308296.2271036.2778628.31.437l.36.7 2.64 5.19c.1452343.2913187.4269073.4903676.75.53l6.71.95c.7501153.0815299 1.3844234.5916494 1.6249597 1.3068154.2405363.7151659.0434237 1.5049224-.5049597 2.0231846l-4.85 4.58c-.2388535.2214742-.3481983.5495086-.29.87l.84 4.76.3 1.71c.1121799.636048-.1107109 1.2850758-.59 1.718l.67.342c.6667713.3560035 1.4772815.3056959 2.0949111-.130029.6176295-.4357249.9368521-1.1824207.8250889-1.929971l-.3-1.71-.84-4.76c-.0581983-.3204914.0511465-.6485258.29-.87z" fill="#a4c3fd"/><path id="Path" d="m13.02 54.82c-.1294542.1152394-.1899968.2892994-.16.46l.13.72.49 2.77c.0595674.3997374-.1103148.7990722-.4396136 1.0333809-.3292987.2343088-.7622556.2639171-1.1203864.0766191l-3.2-1.65c-.15707318-.0799728-.34292682-.0799728-.5 0l-3.2 1.65c-.35802975.188927-.79195087.1600552-1.12179397-.0746409-.32984311-.2346961-.49934558-.6351833-.43820603-1.0353591l.61-3.49c.02999675-.1707006-.03054582-.3447606-.16-.46l-2.58-2.47c-.29296689-.2790826-.39930669-.7017777-.27327892-1.0862692s.46195162-.6622224.86327892-.7137308l3.58-.5c.17162897-.0281214.31990658-.1356227.4-.29l1.6-3.17c.13275075-.2650341.36895724-.4635646.65287778-.5487407.28392054-.0851762.59040326-.0494525.84712222.0987407.18587113.1026376.33591268.2596578.43.45l1.6 3.17c.082446.152333.2295825.259007.4.29l3.58.5c.4016555.050532.7386828.3270528.8666987.7111004s.0243065.8074807-.2666987 1.0888996z" fill="#e8edfc"/><path id="Path" d="m15.61 52.35c.2910052-.2814189.3947146-.704852.2666987-1.0888996s-.4650432-.6605684-.8666987-.7111004l-3.58-.5c-.1704175-.030993-.317554-.137667-.4-.29l-1.6-3.17c-.09408732-.1903422-.24412887-.3473624-.43-.45-.25671896-.1481932-.56320168-.1839169-.84712222-.0987407-.28392054.0851761-.52012703.2837066-.65287778.5487407l-.535 1.06 1.065 2.11c.08244599.152333.22958251.259007.4.29l3.58.5c.4016555.050532.7386828.3270528.8666987.7111004s.0243065.8074807-.2666987 1.0888996l-2.59 2.47c-.12945418.1152394-.18999675.2892994-.16.46l.13.72.49 2.77c.0198014.1207509.0174293.2440997-.007.364l1.447.746c.3581308.187298.7910877.1576897 1.1203864-.0766191.3292988-.2343087.499181-.6336435.4396136-1.0333809l-.49-2.77-.13-.72c-.0299968-.1707006.0305458-.3447606.16-.46z" fill="#cad9fc"/><path id="Path" d="m56.09 54.82c-.1294542.1152394-.1899968.2892994-.16.46l.61 3.49c.0611395.4001758-.1083629.800663-.438206 1.0353591s-.7637642.2635679-1.121794.0746409l-3.2-1.65c-.1570732-.0799728-.3429268-.0799728-.5 0l-3.2 1.65c-.3581308.187298-.7910877.1576897-1.1203864-.0766191-.3292988-.2343087-.499181-.6336435-.4396136-1.0333809l.49-2.77.13-.72c.0299968-.1707006-.0305458-.3447606-.16-.46l-2.59-2.47c-.2910052-.2814189-.3947146-.704852-.2666987-1.0888996s.4650432-.6605684.8666987-.7111004l3.58-.5c.1704175-.030993.317554-.137667.4-.29l1.6-3.17c.0940873-.1903422.2441289-.3473624.43-.45.256719-.1481932.5632017-.1839169.8471222-.0987407.2839206.0851761.520127.2837066.6528778.5487407l1.6 3.17c.0800934.1543773.228371.2618786.4.29l3.58.5c.4013273.0515084.7372512.3292393.8632789.7137308.1260278.3844915.019688.8071866-.2732789 1.0862692z" fill="#e8edfc"/><path id="Path" d="m58.67 52.35c.2929669-.2790826.3993067-.7017777.2732789-1.0862692-.1260277-.3844915-.4619516-.6622224-.8632789-.7137308l-3.58-.5c-.171629-.0281214-.3199066-.1356227-.4-.29l-1.6-3.17c-.1327508-.2650341-.3689572-.4635646-.6528778-.5487407-.2839205-.0851762-.5904032-.0494525-.8471222.0987407-.1858711.1026376-.3359127.2596578-.43.45l-.535 1.06 1.065 2.11c.0800934.1543773.228371.2618786.4.29l3.58.5c.4013273.0515084.7372512.3292393.8632789.7137308.1260278.3844915.019688.8071866-.2732789 1.0862692l-2.58 2.47c-.1294542.1152394-.1899968.2892994-.16.46l.61 3.49c.0196283.1207272.0175966.2439853-.006.364l1.446.746c.3580298.188927.7919509.1600552 1.121794-.0746409s.4993455-.6351833.438206-1.0353591l-.61-3.49c-.0299968-.1707006.0305458-.3447606.16-.46z" fill="#cad9fc"/><path id="Path" d="m41 19c0 1.6568542-1.3431458 3-3 3v1.72c-.0024292.8344452-.3498955 1.6307222-.96 2.2-.58.54-1.38 1.26-2.29 2.01-.6.49-1.25 1-1.91 1.48-.5155666.3808124-1.1390471.5874717-1.78.59h-2.12c-.6409529-.0025283-1.2644334-.2091876-1.78-.59-.66-.48-1.31-.99-1.91-1.48-.91-.75-1.71-1.47-2.29-2.01-.6101045-.5692778-.9575708-1.3655548-.96-2.2v-1.72c-1.6568542 0-3-1.3431458-3-3s1.3431458-3 3-3v-1s0-4 3-4 3 2 8 2h2.93c.8494047-.0046205 1.6150786.5111183 1.93 1.3.0857502.2237854.1330827.460448.14.7v1c1.6568542 0 3 1.3431458 3 3z" fill="#e8edfc"/><path id="Path" d="m38 16v-1c-.0069173-.239552-.0542498-.4762146-.14-.7-.3149214-.7888817-1.0805953-1.3046205-1.93-1.3h-2.93c-5 0-5-2-8-2-.4313429-.0054891-.8573398.0958569-1.24.295 1.53.556 2.447 1.705 6.24 1.705h2.93c.8494047-.0046205 1.6150786.5111183 1.93 1.3.0857502.2237854.1330827.460448.14.7v8.72c-.0024292.8344452-.3498955 1.6307222-.96 2.2-.58.54-1.38 1.26-2.29 2.01-.6.49-1.25 1-1.91 1.48-.3955793.2898044-.8552612.479852-1.34.554.1455545.0230329.2926374.0350669.44.036h2.12c.6409529-.0025283 1.2644334-.2091876 1.78-.59.66-.48 1.31-.99 1.91-1.48.91-.75 1.71-1.47 2.29-2.01.6101045-.5692778.9575708-1.3655548.96-2.2v-1.72c1.6568542 0 3-1.3431458 3-3s-1.3431458-3-3-3z" fill="#cad9fc"/><path id="Path" d="m40 12c.1260798 1.6009333-.6436055 3.1403038-2 4v-1c-.0069173-.239552-.0542498-.4762146-.14-.7-.3149214-.7888817-1.0805953-1.3046205-1.93-1.3h-2.93c-5 0-5-2-8-2s-3 4-3 4v1c-1.2505617-1.3692257-1.9612856-3.1460354-2-5 0-4 3-5 3-5 1.4329617-2.50643214 4.1131087-4.03794466 7-4 1.8403601-.04743436 3.6700756.29329479 5.37 1-.7336093.43779492-1.318875 1.08576761-1.68 1.86 0 0 6.31 1.14 6.31 7.14z" fill="#c6d8fb"/><path id="Path" d="m33.69 4.86c.361125-.77423239.9463907-1.42220508 1.68-1.86-1.6999244-.70670521-3.5296399-1.04743436-5.37-1-.4063239.00214809-.8119928.0328907-1.214.092 1.2348324.11318689 2.4442308.4195858 3.584.908-.7336093.43779492-1.318875 1.08576761-1.68 1.86 0 0 6.31 1.14 6.31 7.14-.0010501.417603-.0483383.8338057-.141 1.241.4536022.2161222.8102068.5937664 1 1.059.086092.223726.1337629.4603904.141.7v1c1.3563945-.8596962 2.1260798-2.3990667 2-4 0-6-6.31-7.14-6.31-7.14z" fill="#a4c3fd"/><path id="Path" d="m27.83 35.79-2.64 5.19c-.1452343.2913187-.4269073.4903676-.75.53l-6.71.95c-.7501153.0815299-1.3844234.5916494-1.6249597 1.3068154-.2405363.7151659-.0434237 1.5049224.5049597 2.0231846l4.85 4.58c.2388535.2214742.3481983.5495086.29.87l-.84 4.76h-7.92l-.13-.72c-.0299968-.1707006.0305458-.3447606.16-.46l2.59-2.47c.2910052-.2814189.3947146-.704852.2666987-1.0888996s-.4650432-.6605684-.8666987-.7111004l-3.58-.5c-.1704175-.030993-.317554-.137667-.4-.29l-1.6-3.17c-.09408732-.1903422-.24412887-.3473624-.43-.45v-1.23c.00264351-4.0748867 2.7428262-7.6395854 6.68-8.69l8.32-2.22c1.089845.9343034 2.4141514 1.5532351 3.83 1.79z" fill="#e8edfc"/><path id="Path" d="m36 34c-1.089845.9343034-2.4141514 1.5532351-3.83 1.79l-.36-.7c-.3558834-.6692478-1.0520121-1.0875032-1.81-1.0875032s-1.4541166.4182554-1.81 1.0875032l-.36.7c-1.4158486-.2367649-2.740155-.8556966-3.83-1.79 1.0216875-1.8500843 1.4575787-3.9667719 1.25-6.07.6.49 1.25 1 1.91 1.48.5155666.3808124 1.1390471.5874717 1.78.59h2.12c.6409529-.0025283 1.2644334-.2091876 1.78-.59.66-.48 1.31-.99 1.91-1.48-.2075787 2.1032281.2283125 4.2199157 1.25 6.07z" fill="#cad9fc"/><path id="Path" d="m51 44.91v1.23c-.1858711.1026376-.3359127.2596578-.43.45l-1.6 3.17c-.082446.152333-.2295825.259007-.4.29l-3.58.5c-.4016555.050532-.7386828.3270528-.8666987.7111004s-.0243065.8074807.2666987 1.0888996l2.59 2.47c.1294542.1152394.1899968.2892994.16.46l-.13.72h-7.92l-.84-4.76c-.0581983-.3204914.0511465-.6485258.29-.87l4.85-4.58c.5483834-.5182622.745496-1.3080187.5049597-2.0231846-.2405363-.715166-.8748444-1.2252855-1.6249597-1.3068154l-6.71-.95c-.3230927-.0396324-.6047657-.2386813-.75-.53l-2.64-5.19c1.4158486-.2367649 2.740155-.8556966 3.83-1.79l8.32 2.22c3.9371738 1.0504146 6.6773565 4.6151133 6.68 8.69z" fill="#e8edfc"/><path id="Path" d="m44.32 36.22-8.32-2.22c-.2439556.2194857-.5066209.4172376-.785.591l6.1 1.629c3.9391578 1.0485178 6.681752 4.613685 6.685 8.69v1.23c-.1858711.1026376-.3359127.2596578-.43.45l-1.6 3.17c-.082446.152333-.2295825.259007-.4.29l-3.58.5c-.4016555.050532-.7386828.3270528-.8666987.7111004s-.0243065.8074807.2666987 1.0888996l2.59 2.47c.1294542.1152394.1899968.2892994.16.46l-.13.72h3l.13-.72c.0299968-.1707006-.0305458-.3447606-.16-.46l-2.59-2.47c-.2910052-.2814189-.3947146-.704852-.2666987-1.0888996s.4650432-.6605684.8666987-.7111004l3.58-.5c.1704175-.030993.317554-.137667.4-.29l1.6-3.17c.0940873-.1903422.2441289-.3473624.43-.45v-1.23c-.0026435-4.0748867-2.7428262-7.6395854-6.68-8.69z" fill="#cad9fc"/><path id="Path" d="m5.02 59.88 1.446-.746c-.02359661-.1200147-.02562834-.2432728-.006-.364l.61-3.49c.02999675-.1707006-.03054582-.3447606-.16-.46l-2.58-2.47c-.29296689-.2790826-.39930669-.7017777-.27327892-1.0862692s.46195162-.6622224.86327892-.7137308l3.58-.5c.17162897-.0281214.31990658-.1356227.4-.29l1.6-3.17c.1327508-.2650341.3689572-.4635646.6528778-.5487407.2839205-.0851762.5904032-.0494525.8471222.0987407v-1.23c.0026435-4.0748867 2.7428262-7.6395854 6.68-8.69l7.539-2.012c.5362362-.1385414.9788394-.5162294 1.2-1.024.5724013-1.3722197.8641399-2.8451939.858-4.332.0085859-.5498539-.2255472-1.0755558-.64-1.437-.661-.564-1.241-1.09-1.688-1.506-.6067621-.5660993-.9505809-1.359165-.949-2.189v-.313c-.0201297-.7339186-.4820852-1.3827902-1.169-1.642-.9897435-.4180035-1.6803907-1.333373-1.8106788-2.3998363-.1302882-1.0664634.3196767-2.1211797 1.1796788-2.7651637.7515344-.5396405 1.0009665-1.5445681.589-2.373-.5105336-.9996127-.7807004-2.1045913-.789-3.227 0-4 3-5 3-5 1.2328377-2.12751246 3.3787846-3.56675457 5.815-3.9-.6027616-.0659467-1.208642-.09932854-1.815-.1-.244 0-.477.014-.7.035-2.6275994.19510311-4.9874953 1.68033919-6.3 3.965 0 0-3 1-3 5 .0387144 1.8539646.7494383 3.6307743 2 5-1.6568542 0-3 1.3431458-3 3s1.3431458 3 3 3v1.72c-.0018395.8296836.3416071 1.6227263.948 2.189.581.541 1.386 1.266 2.3 2.021.2081868 2.1030233-.2270044 4.2196982-1.248 6.07l-8.32 2.22c-3.9371738 1.0504146-6.67735649 4.6151133-6.68 8.69v1.23c-.25671896-.1481932-.56320168-.1839169-.84712222-.0987407-.28392054.0851761-.52012703.2837066-.65287778.5487407l-1.6 3.17c-.08009342.1543773-.22837103.2618786-.4.29l-3.58.5c-.4013273.0515084-.73725115.3292393-.86327892.7137308s-.01968797.8071866.27327892 1.0862692l2.58 2.47c.12945418.1152394.18999675.2892994.16.46l-.61 3.49c-.06113955.4001758.10836292.800663.43820603 1.0353591.3298431.2346961.76376422.2635679 1.12179397.0746409z" fill="#fff"/><path id="Path" d="m10.7 41.647-1.825-.818c1.2384831-2.7441409 3.6405749-4.7896063 6.547-5.575l.516 1.932c-2.3245746.6301692-4.2457933 2.2663962-5.238 4.461z" fill="#fff"/><g fill="#428dff"><path id="Shape" d="m59.9 50.98c-.2413562-.7563361-.8940275-1.3079987-1.68-1.42l-3.34-.47-1.49-2.95c-.2778935-.5502615-.788132-.9467057-1.39-1.08v-.15c-.005514-4.5270178-3.0474973-8.4873358-7.42-9.66l-7.91-2.11c-.6894849-1.4777579-1.0086831-3.101207-.93-4.73.76-.65 1.45-1.26 1.98-1.76.8127291-.7581742 1.2759611-1.8185414 1.28-2.93v-.85c1.5818599-.4019678 2.7581178-1.7287543 2.9676138-3.3473865s-.5902153-3.201164-2.0176138-3.9926135c.7134495-1.0365202 1.0809599-2.272055 1.05-3.53-.0232448-3.52819043-2.3103734-6.64223508-5.67-7.72.1502359-.14979364.3181358-.28075551.5-.39.344701-.17570106.5584197-.53319418.55-.92-.0179006-.38305891-.249954-.72340385-.6-.88-1.8296976-.76201472-3.7984384-1.13328246-5.78-1.09-3.1277301-.04559093-6.0502881 1.55232714-7.7 4.21-2.1581437 1.09719838-3.4557906 3.37397895-3.3 5.79.0152648 1.5559616.4655722 3.0766151 1.3 4.39-1.5264053.7134522-2.4401255 2.3088344-2.2831326 3.9864161.156993 1.6775818 1.3508564 3.0757302 2.9831326 3.4935839v.85c.0040389 1.1114586.4672709 2.1718258 1.28 2.93.53.5 1.22 1.11 1.98 1.76.0786831 1.628793-.2405151 3.2522421-.93 4.73l-7.91 2.11c-.532569.1476766-.8484847.6949672-.71 1.23.1179802.4381815.5162177.7419916.97.74.0874907-.0006634.1746572-.010721.26-.03l7.82-2.09c.7955222.5823301 1.6803874 1.0315174 2.62 1.33l-2.08 4.09-6.71.95c-1.1440807.1452566-2.0999323.9411494-2.45 2.04-.3389913 1.0698861-.035929 2.2393956.78 3.01l4.85 4.54-.7 3.94h-5.79l2.02-1.93c.5718444-.536294.7788675-1.356574.53-2.1-.2426626-.7536898-.8956461-1.3017296-1.68-1.41l-3.34-.47-1.49-2.95c-.0795245-.1735205-.187704-.3324091-.32-.47v-.76c.0054845-1.1233705.2438347-2.2334014.7-3.26.1938241-.4849515.0021567-1.0386573-.45-1.3-.2435224-.1373053-.53430354-.1633504-.7983506-.071508-.26404706.0918425-.47589971.2927168-.5816494.551508-.56697324 1.2858674-.86312151 2.6747007-.87 4.08v.15c-.60186804.1332943-1.11210649.5297385-1.39 1.08l-1.49 2.95-3.34.47c-.78597252.1120013-1.4386438.6636639-1.68 1.42-.24253167.7405344-.03611212 1.5545284.53 2.09l2.41 2.29-.57 3.24c-.13021662.7633744.18368353 1.5345612.81 1.99.63684163.4703324 1.48490887.5400366 2.19.18l3-1.54 2.99 1.54c.2978804.1499489.6265099.228683.96.23.4464049-.0013964.8807507-.1450108 1.24-.41.6239232-.4568201.9341215-1.2284383.8-1.99l-.28-1.6h5.54l-.1.54c-.1903852 1.0965404.2595614 2.2058916 1.16 2.86.5220237.3915253 1.1574695.6021703 1.81.6.4870155-.0007945.9668684-.1173302 1.4-.34l6.02-3.05 6 3.05c1.0322742.53135 2.2766964.4305557 3.21-.26.9004386-.6541084 1.3503852-1.7634596 1.16-2.86l-.1-.54h5.54l-.28 1.6c-.1341215.7615617.1760768 1.5331799.8 1.99.6407993.4698385 1.4913516.5394291 2.2.18l2.99-1.54 3 1.54c.2978804.1499489.6265099.228683.96.23.443119-.0026855.8738935-.146277 1.23-.41.6263165-.4554388.9402166-1.2266256.81-1.99l-.57-3.24 2.41-2.29c.5661121-.5354716.7725317-1.3494656.53-2.09zm-47.57 3.11c-.3689798.3531115-.5377336.8668732-.45 1.37l.61 3.48.99-.17-1.11.22-3.2-1.65c-.44186577-.2299834-.96813423-.2299834-1.41 0l-3.2 1.65.46.89-.58-.94.61-3.49c.09014513-.5002984-.07923672-1.012208-.45-1.36l-2.54-2.55 3.58-.5c.49747094-.0744492.92896115-.3831879 1.16-.83l1.67-3.21c.05 0 .06.02.07.04l1.6 3.17c.2244831.4481263.6539745.7581071 1.15.83l3.63.58zm10.99-47.14c.2464061-.08856584.4500864-.26723276.57-.5 1.2572146-2.17607062 3.5973072-3.49739948 6.11-3.45 1.1548992-.00921322 2.3066498.12174384 3.43.39-.2517875.32147994-.4664801.67035543-.64 1.04-.1319538.27931061-.1282669.60376008.01.88.145043.27434487.4057382.46894831.71.53.23.04 5.49 1.09 5.49 6.16.009286.5834379-.1031026 1.1624095-.33 1.7-.5182611-1.0393156-1.5786371-1.6972132-2.74-1.7h-2.93c-1.6243791.0898735-3.2407595-.2847382-4.66-1.08-1.0110116-.5998722-2.1644213-.9175778-3.34-.92-1.7527858.0070832-3.26947 1.2212594-3.66 2.93-.222516-.6192501-.3375064-1.2719895-.34-1.93 0-3.19 2.23-4.02 2.32-4.05zm.32 18.23c-.4088841-.3752054-.641147-.905055-.64-1.46v-1.72c0-.5522847-.4477153-1-1-1-.9043417.0041024-1.6979719-.601508-1.9327424-1.4748542-.2347705-.8733461.1482359-1.7952567.9327424-2.2451458v.72c0 .5522847.4477153 1 1 1s1-.4477153 1-1v-3c0-.12.04-3 2-3 .8563638.0016743 1.6949806.2442494 2.42.7 1.7039034.9412417 3.6355481 1.3912665 5.58 1.3h2.93c.4350038-.0068161.8289826.2558365.99.66.0459226.1079216.072982.2229243.08.34v3c0 .5522847.4477153 1 1 1s1-.4477153 1-1v-.72c.7845065.4498891 1.1675129 1.3717997.9327424 2.2451458-.2347705.8733462-1.0284007 1.4789566-1.9327424 1.4748542-.5522847 0-1 .4477153-1 1v1.72c.001147.554945-.2311159 1.0847946-.64 1.46-1.2959177 1.2222359-2.6651226 2.3643532-4.1 3.42-.3480585.2560625-.7679157.3960149-1.2.4h-2.12c-.4320843-.0039851-.8519415-.1439375-1.2-.4-1.4348774-1.0556468-2.8040823-2.1977641-4.1-3.42zm1.63 8.53c.5196027-1.1925584.837269-2.4632237.94-3.76l.36.27c.6867928.505724 1.517099.7789893 2.37.78h2.12c.852901-.0010107 1.6832072-.274276 2.37-.78l.36-.27c.102731 1.2967763.4203973 2.5674416.94 3.76-.626266.4075277-1.3107148.7177212-2.03.92-.5275454-1.0025322-1.5671386-1.6302252-2.7-1.6302252s-2.1724546.627693-2.7 1.6302252c-.7192852-.2022788-1.403734-.5124723-2.03-.92zm11.99 17.7 1.15 6.48c.0634601.3465613-.0811366.6982829-.37.9-.3251534.2423771-.7603153.2773455-1.12.09l-6-3.06c-.5790349-.2900785-1.2609651-.2900785-1.84 0l-6 3.06c-.3586481.1923802-.7966738.1571817-1.12-.09-.2888634-.2017171-.4334601-.5534387-.37-.9l1.15-6.48c.1112186-.6485092-.1103821-1.3095553-.59-1.76l-4.85-4.59c-.2673091-.2328549-.3696559-.6028781-.26-.94.1184681-.3687527.4445552-.6319796.83-.67l6.71-.95c.6459313-.0872948 1.2071976-.4876647 1.5-1.07l3-5.89c.1862922-.3332396.5382233-.5396888.92-.5396888s.7337078.2064492.92.5396888l3 5.89c.2928024.5823353.8540687.9827052 1.5 1.07l6.71.95c.3854448.0380204.7115319.3012473.83.67.1096559.3371219.0073091.7071451-.26.94l-4.85 4.59c-.4796179.4504447-.7012186 1.1114908-.59 1.76zm2.66 3.59-.7-3.9 4.86-4.58c.815929-.7706044 1.1189913-1.9401139.78-3.01-.3500677-1.0988506-1.3059193-1.8947434-2.45-2.04l-6.71-.94-2.09-4.1c.943456-.2966346 1.8319033-.7459255 2.63-1.33l7.82 2.09c3.5006261.9299857 5.9381523 4.0979491 5.94 7.72v.76c-.132296.1375909-.2404755.2964795-.32.47l-1.49 2.95-3.34.47c-.7843539.1082704-1.4373374.6563102-1.68 1.41-.2488675.743426-.0418444 1.563706.53 2.1l2.02 1.93zm15.48-.91c-.3716502.3514229-.5408852.8666495-.45 1.37l.61 3.48.98-.17-1.1.22-3.2-1.65c-.4418658-.2299834-.9681342-.2299834-1.41 0l-3.2 1.65.45.89-.57-.94.61-3.48c.0877336-.5031268-.0810202-1.0168885-.45-1.37l-2.54-2.55 3.58-.5c.4960255-.0718929.9255169-.3818737 1.15-.83l1.67-3.21c.06 0 .07.02.07.04l1.6 3.17c.2310388.4468121.6625291.7555508 1.16.83l3.62.58z" fill-rule="nonzero"/><path id="Path" d="m12.168 39.049c-.5522847.0027614-1.0022385-.4427153-1.0049999-.995-.0027615-.5522847.4427152-1.0022385.9949999-1.005h.01c.5522847 0 1 .4477153 1 1s-.4477153 1-1 1z"/></g></g></g></svg>