<?xml version="1.0" encoding="UTF-8"?>
<svg width="52px" height="52px" viewBox="0 0 52 52" version="1.1" xmlns="http://www.w3.org/2000/svg" xmlns:xlink="http://www.w3.org/1999/xlink">
    <title>sendeo</title>
    <defs>
        <rect id="path-1" x="0" y="0" width="44" height="44" rx="22"></rect>
        <filter x="-17.0%" y="-10.2%" width="134.1%" height="134.1%" filterUnits="objectBoundingBox" id="filter-2">
            <feOffset dx="0" dy="3" in="SourceAlpha" result="shadowOffsetOuter1"></feOffset>
            <feGaussianBlur stdDeviation="2" in="shadowOffsetOuter1" result="shadowBlurOuter1"></feGaussianBlur>
            <feColorMatrix values="0 0 0 0 0   0 0 0 0 0   0 0 0 0 0  0 0 0 0.105868253 0" type="matrix" in="shadowBlurOuter1"></feColorMatrix>
        </filter>
    </defs>
    <g id="Page-1" stroke="none" stroke-width="1" fill="none" fill-rule="evenodd">
        <g id="Artboard" transform="translate(-45.000000, -4363.000000)">
            <g id="sendeo-grup" transform="translate(49.000000, 4358.000000)">
                <g id="sendeo" transform="translate(0.000000, 6.000000)">
                    <g id="Rectangle">
                        <use fill="black" fill-opacity="1" filter="url(#filter-2)" xlink:href="#path-1"></use>
                        <use fill="#FFFFFF" fill-rule="evenodd" xlink:href="#path-1"></use>
                    </g>
                    <g id="Group-15" transform="translate(11.000000, 9.000000)" fill="#00BB59" fill-rule="nonzero">
                        <path d="M17.442878,13.6599603 L17.442878,13.6599603 C18.1271755,14.4369101 19.6321828,16.7960519 19.0596986,19.0028506 C18.4648517,21.2945262 16.2733106,23.1552884 11.8678658,23.9431199 C8.75051045,24.5002604 4.8594069,24.2586877 0.896742829,23.185757 L0,25.7930004 C2.44423918,26.4567811 7.60330579,27.6015307 13.2275158,26.6156532 C18.6191541,25.6733023 20.3321342,22.961595 20.7592611,21.7602608 C22.1748177,17.7775768 18.2680603,14.2323351 17.442878,13.6599603 Z" id="Path"></path>
                        <path d="M10.870491,20.0975446 C12.0094196,19.9108077 13.1005718,19.5117612 14.0840058,18.9223264 C14.8728076,18.4597959 15.4815817,17.7555826 15.814876,16.9201027 C16.3538162,15.4597852 15.8596014,13.1920493 13.1760817,11.2246469 L13.1760817,11.2246469 C13.4354886,11.5532727 15.5398153,14.3803255 12.4381138,16.4021362 C11.6438726,16.8937374 10.7539015,17.2204766 9.82391833,17.3618977 C7.81127856,17.7405792 5.40058337,17.5925887 3.00777832,16.948395 L2.12445309,19.5491095 C5.1993194,20.3869965 8.29431211,20.5806899 10.870491,20.0975446 Z" id="Path"></path>
                        <path d="M12.0490034,23.3576871 C13.4850239,23.1216734 14.8608302,22.6184655 16.1011181,21.8756063 C17.1924161,21.181357 17.9303841,20.3304119 18.2904229,19.3401818 C19.3459407,16.4413101 16.7787069,13.4640906 15.3050073,12.4325101 L15.3050073,12.4325101 C15.8931454,13.1180541 18.4067088,16.750349 14.4552261,19.3554161 C13.5473019,19.9517305 12.3777346,20.3652332 11.0091395,20.6220402 C8.32561983,21.1225961 5.1322314,20.9267264 1.95226057,20.067076 L1.05775401,22.6677905 C2.89846953,23.1692856 4.78650619,23.488649 6.69314536,23.621023 C8.48266203,23.7561339 10.2825912,23.6676353 12.0490034,23.3576871 Z" id="Path"></path>
                        <path d="M5.57053962,13.3335107 L5.57053962,13.3335107 C4.8862421,12.5565609 3.38123481,10.1974191 3.95371901,7.99062041 C4.54856587,5.69894484 6.73787069,3.83818262 11.1455518,3.05035113 C14.2629071,2.49321063 18.1540107,2.73478327 22.1166748,3.807714 L23,1.20699956 C20.5535246,0.543218883 15.3966942,-0.601530737 9.77024793,0.384346788 C4.38084589,1.32669771 2.66786582,4.03840499 2.24073894,5.23973919 C0.831891104,9.21589424 4.73864852,12.7611359 5.57053962,13.3335107 Z" id="Path"></path>
                        <path d="M12.1362178,6.89592638 C10.9966905,7.08302831 9.90487566,7.48203952 8.9204667,8.07114462 C8.13216626,8.5336616 7.52410617,9.23795895 7.19183277,10.0733683 C6.65289256,11.5380384 7.1560525,13.8014217 9.83957219,15.7688241 L9.83957219,15.7688241 C9.58016529,15.4401983 7.4758386,12.6131455 10.5753038,10.5913349 C11.3707266,10.0976074 12.2621483,9.76867204 13.1939718,9.6250443 C15.2066116,9.24636286 17.619543,9.39435331 20.0123481,10.038547 L20.9068546,7.43783257 C17.8073894,6.60647448 14.7123967,6.4127811 12.1362178,6.89592638 Z" id="Path"></path>
                        <path d="M10.9577054,3.63578392 C9.52264897,3.87275062 8.14775713,4.37590171 6.90782693,5.11786471 C5.81876519,5.812114 5.07856101,6.66305906 4.71852212,7.65328925 C3.66524064,10.5521609 6.23247448,13.5293805 7.70617404,14.5609609 L7.70617404,14.5609609 C7.11803597,13.8754169 4.60447253,10.243122 8.55595527,7.63805494 C9.46164317,7.04174049 10.6334468,6.62823778 12.0020418,6.37143083 C14.6855615,5.87087491 17.8789499,6.06674462 21.0589208,6.926395 L21.9400097,4.32568056 C20.106112,3.82309912 18.2248628,3.50155584 16.3247448,3.36591899 C14.5312379,3.23188242 12.7274685,3.32257937 10.9577054,3.63578392 L10.9577054,3.63578392 Z" id="Path"></path>
                    </g>
                </g>
            </g>
        </g>
    </g>
</svg>