<?xml version="1.0" encoding="UTF-8"?>
<svg width="30px" height="25px" viewBox="0 0 30 25" version="1.1" xmlns="http://www.w3.org/2000/svg" xmlns:xlink="http://www.w3.org/1999/xlink">
    <!-- Generator: Sketch 52.2 (67145) - http://www.bohemiancoding.com/sketch -->
    <title>Group 2</title>
    <desc>Created with Sketch.</desc>
    <g id="Page-1" stroke="none" stroke-width="1" fill="none" fill-rule="evenodd">
        <g id="SİPARİŞ-LİSTESİ-V2" transform="translate(-120.000000, -75.000000)" fill="#0F82FF">
            <g id="Başlık-ve-Menüler" transform="translate(82.000000, 58.000000)">
                <g id="Sayfa-Başlığı" transform="translate(38.000000, 17.000000)">
                    <g id="Group-2">
                        <path d="M29.5935802,6.73481481 C29.586358,6.71901235 29.5780864,6.70364198 29.5688889,6.68888889 C29.5505556,6.65240741 29.5276543,6.61833333 29.5007407,6.58765432 C29.4607407,6.54475309 29.4138272,6.50888889 29.3619753,6.48148148 C29.3439506,6.47123457 29.3253086,6.46216049 29.3061728,6.45432099 C29.2967901,6.4508642 29.2893827,6.44395062 29.2795062,6.44098765 L23.611358,4.71604938 L21.3891358,3.97530864 C21.3090123,3.95098765 21.2240741,3.94740741 21.1422222,3.96493827 L17.9180247,2.9837037 C17.8242593,2.95555556 17.724321,2.95555556 17.6306173,2.9837037 L6.27259259,6.44049383 C6.26271605,6.44345679 6.25530864,6.45037037 6.24592593,6.45382716 C6.22679012,6.46166667 6.20814815,6.47074074 6.19012346,6.48098765 C6.1382716,6.50839506 6.09135802,6.54425926 6.05135802,6.58716049 C6.02444444,6.61783951 6.00154321,6.65191358 5.98320988,6.68839506 C5.97401235,6.70314815 5.96574074,6.71851852 5.95851852,6.73432099 C5.93759259,6.78839506 5.92660494,6.84574074 5.92592593,6.9037037 C5.92592593,6.9037037 5.92592593,6.90765432 5.92592593,6.90962963 L5.92592593,6.91358025 L5.92592593,10.3703704 L3.95061728,10.3703704 L3.95061728,11.3580247 L8.88888889,11.3580247 L8.88888889,10.3703704 L6.91358025,10.3703704 L6.91358025,7.60790123 L9.87654321,8.63851852 L9.87654321,12.8395062 C9.87635802,13.0414815 9.99919753,13.2231481 10.1866667,13.2982716 L12.6558025,14.2859259 C12.9089506,14.3874074 13.1964198,14.2643827 13.2979012,14.0112346 C13.321358,13.952716 13.3333951,13.8901852 13.3333333,13.8271605 L13.3333333,9.84098765 L17.2839506,11.2153086 L17.2839506,22.5155556 L6.91358025,18.9106173 L6.91358025,18.7654321 C6.91358025,18.492716 6.69246914,18.2716049 6.41975309,18.2716049 C6.14703704,18.2716049 5.92592593,18.492716 5.92592593,18.7654321 L5.92592593,19.2592593 C5.92598765,19.469321 6.05895062,19.6562963 6.25728395,19.7254321 L17.6153086,23.6760494 L17.6241975,23.6760494 C17.6701235,23.6911728 17.7180864,23.6994444 17.7664198,23.7007407 C17.7703704,23.7007407 17.7738272,23.7007407 17.7777778,23.7007407 C17.8346914,23.7 17.8909877,23.689321 17.9441975,23.6691358 C17.9487037,23.6685802 17.9531481,23.667716 17.9575309,23.6666667 L29.3155556,19.2222222 C29.5038889,19.148642 29.6283333,18.9676543 29.6296296,18.7654321 L29.6296296,6.91358025 L29.6296296,6.90962963 C29.6296296,6.90962963 29.6296296,6.90567901 29.6296296,6.9037037 C29.6278395,6.84567901 29.6156173,6.78851852 29.5935802,6.73481481 Z M8.01382716,6.94469136 L17.7777778,3.97283951 L19.5787654,4.52098765 L10.5185185,7.8162963 L8.01382716,6.94469136 Z M12.345679,13.0977778 L10.8641975,12.5051852 L10.8641975,9.12444444 L12.345679,9.71703704 L12.345679,13.0977778 Z M13.1787654,8.74074074 L11.9935802,8.32888889 L21.1511111,4.99901235 L22.637037,5.45234568 L13.1787654,8.74074074 Z M17.7777778,10.3412346 L14.6819753,9.26469136 L24.2404938,5.93975309 L27.542716,6.94469136 L17.7777778,10.3412346 Z M28.6419753,18.4281481 L18.2716049,22.4864198 L18.2716049,11.2153086 L28.6419753,7.61037037 L28.6419753,18.4281481 Z" id="Shape" stroke="#0F82FF" stroke-width="0.740740741" fill-rule="nonzero"></path>
                        <rect id="Rectangle" x="7.86037901e-13" y="13.8271605" width="1.97530864" height="1"></rect>
                        <rect id="Rectangle" x="1.48148148" y="16.7901235" width="1.48148148" height="1"></rect>
                        <path d="M6.91358025,16.7901235 L6.91358025,15.8024691 C6.91358025,15.5297531 6.69246914,15.308642 6.41975309,15.308642 C6.14703704,15.308642 5.92592593,15.5297531 5.92592593,15.8024691 L5.92592593,16.7901235 L3.95061728,16.7901235 L3.95061728,17.7777778 L12.345679,17.7777778 L12.345679,16.7901235 L6.91358025,16.7901235 Z" id="Path" stroke="#0F82FF" stroke-width="0.740740741"></path>
                        <rect id="Rectangle" x="1.48148148" y="10.3703704" width="1.48148148" height="1"></rect>
                        <path d="M6.91358025,13.8271605 L6.91358025,12.345679 C6.91358025,12.072963 6.69246914,11.8518519 6.41975309,11.8518519 C6.14703704,11.8518519 5.92592593,12.072963 5.92592593,12.345679 L5.92592593,13.8271605 L2.96296296,13.8271605 L2.96296296,14.8148148 L9.87654321,14.8148148 L9.87654321,13.8271605 L6.91358025,13.8271605 Z" id="Path" stroke="#0F82FF" stroke-width="0.740740741"></path>
                        <rect id="Rectangle" x="16.7901235" y="5.19584376e-14" width="7.40740741" height="1"></rect>
                        <rect id="Rectangle" x="14.3209877" y="5.19584376e-14" width="1.48148148" height="1"></rect>
                        <rect id="Rectangle" x="5.43209877" y="23.7037037" width="7.40740741" height="1"></rect>
                        <rect id="Rectangle" x="2.96296296" y="23.7037037" width="1.48148148" height="1"></rect>
                        <path d="M20.9614815,10.9160494 C20.7387037,10.8047531 20.467963,10.8767284 20.3298765,11.0839506 L19.0681481,12.9762963 L19.8898765,13.5244444 L20.2469136,12.9876543 L20.2469136,14.3209877 L21.2345679,14.3209877 L21.2345679,12.157037 L21.9491358,12.5145679 L22.3911111,11.6311111 L20.9614815,10.9160494 Z" id="Path"></path>
                        <path d="M24.4182716,9.4345679 C24.1954938,9.3232716 23.9247531,9.39524691 23.7866667,9.60246914 L22.5249383,11.4948148 L23.3466667,12.042963 L23.7037037,11.5061728 L23.7037037,12.8395062 L24.691358,12.8395062 L24.691358,10.6755556 L25.4059259,11.0330864 L25.8479012,10.1496296 L24.4182716,9.4345679 Z" id="Path"></path>
                    </g>
                </g>
            </g>
        </g>
    </g>
</svg>