<?xml version="1.0" encoding="UTF-8"?>
<svg width="30px" height="30px" viewBox="0 0 30 30" version="1.1" xmlns="http://www.w3.org/2000/svg" xmlns:xlink="http://www.w3.org/1999/xlink">
    <!-- Generator: Sketch 64 (93537) - https://sketch.com -->
    <title>Düzenle</title>
    <desc>Created with Sketch.</desc>
    <g id="Page-1" stroke="none" stroke-width="1" fill="none" fill-rule="evenodd">
        <g id="Sipariş-Detayı-v2-Copy-2" transform="translate(-840.000000, -285.000000)">
            <g id="Sol-İşlemler" transform="translate(126.000000, 165.000000)">
                <g id="SİPARİŞ-TABLOSU">
                    <g id="TABLO-SATIR" transform="translate(0.000000, 120.000000)">
                        <g id="Düzenle" transform="translate(714.000000, 0.000000)">
                            <rect id="Rectangle" fill="#FEDFDF" x="0" y="0" width="30" height="30" rx="5"></rect>
                            <g id="pencil-copy" transform="translate(6.000000, 6.000000)" fill-rule="nonzero">
                                <path d="M8.99976,0 C4.02942,0 6.00000028e-05,4.02966 6.00000028e-05,8.99982 C6.00000028e-05,13.96998 4.02942,18 8.99976,18 C13.9701,18 17.99994,13.97022 17.99994,8.99982 C17.99994,4.02942 13.9701,0 8.99976,0 Z" id="Shape" fill="#D0021B"></path>
                                <g id="trash-copy" transform="translate(3.600000, 2.400000)">
                                    <path d="M9.81850781,2.30770313 L7.51080469,2.30770313 C7.51082812,1.03314844 6.47765625,0 5.203125,0 C3.92859375,0 2.89542188,1.03314844 2.89542188,2.30770313 L0.587742187,2.30770313 C0.269039062,2.30770313 0.010828125,2.5659375 0.010828125,2.88461719 C0.010828125,3.20329687 0.2690625,3.46153125 0.587742187,3.46153125 L0.818507812,3.46153125 L0.818507812,10.5 C0.819890625,11.328 1.49050781,11.9986172 2.31850781,12 L8.08774219,12 C8.91574219,11.9986172 9.58635938,11.328 9.58774219,10.5 L9.58774219,3.46153125 L9.81850781,3.46153125 C10.1372109,3.46153125 10.3954219,3.20329688 10.3954219,2.88461719 C10.3954219,2.5659375 10.1372109,2.30770313 9.81850781,2.30770313 Z M5.203125,1.15385156 C5.84027344,1.15385156 6.35697656,1.67055469 6.35697656,2.30770313 L4.04927344,2.30770313 C4.04927344,1.67053125 4.56597656,1.15385156 5.203125,1.15385156 Z M8.43389063,10.5 C8.43389063,10.6910859 8.27880469,10.8461484 8.08774219,10.8461484 L2.31850781,10.8461484 C2.12742188,10.8461484 1.97235937,10.6910625 1.97235937,10.5 L1.97235937,3.46153125 L8.43389063,3.46153125 L8.43389063,10.5 Z" id="Shape" fill="#FFFFFF"></path>
                                    <g id="Group" transform="translate(3.351562, 5.414062)" fill="#FFBBC0">
                                        <path d="M0.582328125,3.47055469 C0.263625,3.47055469 0.0054140625,3.21232031 0.0054140625,2.89364062 L0.0054140625,0.5859375 C0.0054140625,0.267234375 0.263648437,0.0090234375 0.582328125,0.0090234375 C0.901007812,0.0090234375 1.15924219,0.267257812 1.15924219,0.5859375 L1.15924219,2.89364062 C1.15926562,3.21232031 0.90103125,3.47055469 0.582328125,3.47055469 Z" id="Path"></path>
                                        <path d="M3.12079688,3.47055469 C2.80209375,3.47055469 2.54388281,3.21232031 2.54388281,2.89364062 L2.54388281,0.5859375 C2.54388281,0.267234375 2.80211719,0.0090234375 3.12079688,0.0090234375 C3.4395,0.0090234375 3.69771094,0.267257812 3.69771094,0.5859375 L3.69771094,2.89364062 C3.69771094,3.21232031 3.43947656,3.47055469 3.12079688,3.47055469 Z" id="Path"></path>
                                    </g>
                                </g>
                            </g>
                        </g>
                    </g>
                </g>
            </g>
        </g>
    </g>
</svg>