<?xml version="1.0" encoding="UTF-8"?>
<svg width="27px" height="27px" viewBox="0 0 27 27" version="1.1" xmlns="http://www.w3.org/2000/svg" xmlns:xlink="http://www.w3.org/1999/xlink">
    <!-- Generator: Sketch 64 (93537) - https://sketch.com -->
    <title>pencil</title>
    <desc>Created with Sketch.</desc>
    <g id="Page-1" stroke="none" stroke-width="1" fill="none" fill-rule="evenodd">
        <g id="Profil-Sayfası-Copy" transform="translate(-1126.000000, -326.000000)" fill="#FFFFFF" fill-rule="nonzero">
            <g id="PAket-Area" transform="translate(414.000000, 208.000000)">
                <g id="Genel-Kutu">
                    <g id="Düzenle" transform="translate(700.000000, 106.000000)">
                        <g id="pencil" transform="translate(11.333333, 11.666667)">
                            <g id="turkish-lira" transform="translate(0.666667, 0.333333)">
                                <path d="M13.5,0 C6.05659091,0 0,6.05659091 0,13.5 C0,20.9434091 6.05659091,27 13.5,27 C20.9434091,27 27,20.9434091 27,13.5 C27,6.05659091 20.9434091,0 13.5,0 Z M12.1095,19.6253182 C12.0616364,19.6326818 12.0137727,19.6363636 11.9659091,19.6363636 C11.7474545,19.6363636 11.5351364,19.5590455 11.3682273,19.4154545 C11.1632727,19.2411818 11.0454545,18.9846818 11.0454545,18.7159091 L11.0454545,15.3507273 L8.93209091,16.1963182 C8.82040909,16.2405 8.70504545,16.2613636 8.59090909,16.2613636 C8.22518182,16.2613636 7.88031818,16.0429091 7.73672727,15.6820909 C7.54772727,15.2108182 7.77722727,14.6745 8.24972727,14.4855 L11.0454545,13.3674545 L11.0454545,12.2813182 L8.93209091,13.1269091 C8.82040909,13.1723182 8.70504545,13.1931818 8.59090909,13.1931818 C8.22518182,13.1931818 7.88031818,12.9747273 7.73672727,12.6139091 C7.54772727,12.1426364 7.77722727,11.6063182 8.24972727,11.4173182 L11.0454545,10.2992727 L11.0454545,8.28409091 C11.0454545,7.776 11.4578182,7.36363636 11.9659091,7.36363636 C12.474,7.36363636 12.8863636,7.776 12.8863636,8.28409091 L12.8863636,9.56290909 L14.3860909,8.96277273 C14.8561364,8.775 15.3936818,9.00327273 15.5826818,9.47577273 C15.7716818,9.94704545 15.5421818,10.4833636 15.0696818,10.6723636 L12.8863636,11.5461818 L12.8863636,12.6323182 L14.3860909,12.0321818 C14.8561364,11.8444091 15.3936818,12.0726818 15.5826818,12.5451818 C15.7716818,13.0164545 15.5421818,13.5527727 15.0696818,13.7417727 L12.8863636,14.6143636 L12.8863636,17.5585909 C14.3689091,17.1388636 16.875,16.1300455 16.875,14.1136364 C16.875,13.6055455 17.2873636,13.1931818 17.7954545,13.1931818 C18.3035455,13.1931818 18.7159091,13.6055455 18.7159091,14.1136364 C18.7159091,18.5318182 12.3795,19.5823636 12.1095,19.6253182 Z" id="Shape"></path>
                            </g>
                        </g>
                    </g>
                </g>
            </g>
        </g>
    </g>
</svg>