<?xml version="1.0" encoding="UTF-8"?>
<svg width="22px" height="22px" viewBox="0 0 22 22" version="1.1" xmlns="http://www.w3.org/2000/svg" xmlns:xlink="http://www.w3.org/1999/xlink">
    <!-- Generator: Sketch 52.2 (67145) - http://www.bohemiancoding.com/sketch -->
    <title>box</title>
    <desc>Created with Sketch.</desc>
    <g id="Page-1" stroke="none" stroke-width="1" fill="none" fill-rule="evenodd">
        <g id="Ürün-Ekleme" transform="translate(-1264.000000, -97.000000)" fill="#5D6E76" fill-rule="nonzero">
            <g id="vazgeç" transform="translate(1264.000000, 97.000000)">
                <g id="box">
                    <path d="M21.846744,11.4751973 L19.6513485,9.27522809 C19.6429329,9.26679487 19.6323218,9.26166161 19.6231743,9.25396172 C19.6116942,9.24397019 19.5994823,9.23489532 19.5865844,9.22682876 C19.5665057,9.21449977 19.5453292,9.20404991 19.5232838,9.19566253 C19.5148681,9.19236258 19.507916,9.18649599 19.4987686,9.1835627 L13.5382698,7.3656548 L13.5382698,4.03453473 L15.0018668,4.03453473 C15.2039347,4.03448889 15.3677203,3.87031619 15.3677203,3.66782736 C15.3677203,3.55787473 15.3184154,3.45374285 15.233481,3.38407716 L11.2085893,0.0841233208 C11.0738469,-0.0262876347 10.8801033,-0.0262876347 10.7453609,0.0841233208 L6.72046914,3.38407716 C6.56404721,3.51231703 6.54099556,3.7433138 6.66892308,3.90006161 C6.7383982,3.98517292 6.84231359,4.03453473 6.95208336,4.03458056 L8.41568035,4.03458056 L8.41568035,7.36570063 L2.45481571,9.1835627 C2.44566823,9.18649599 2.43835025,9.19272924 2.42920276,9.19602919 C2.40834651,9.20414158 2.38826779,9.21408727 2.36919529,9.22572878 C2.35533685,9.23457449 2.34211874,9.24433685 2.32967817,9.2550617 C2.32089659,9.26239493 2.31065141,9.26716153 2.30260162,9.27522809 L0.10720614,11.4751973 C-0.035723254,11.6183786 -0.0357689914,11.8505212 0.107114665,11.9937484 C0.205084188,12.0919679 0.350026028,12.1262965 0.48152107,12.0823888 L2.19539315,11.5096635 L2.19539315,18.7009962 C2.19543888,18.8569649 2.29395726,18.9957921 2.44091154,19.0471247 L10.8565942,21.980417 L10.8631804,21.980417 C10.8972091,21.991646 10.932747,21.9977876 10.9685594,21.9987501 C10.9714866,21.9987501 10.9740479,21.9987501 10.9769751,21.9987501 C11.019145,21.9982001 11.0608575,21.9902711 11.1002831,21.9752838 C11.103622,21.9748713 11.1069151,21.9742296 11.1101624,21.9734505 L19.5258451,18.6734966 C19.6653899,18.618864 19.7575965,18.4844826 19.758557,18.3343347 L19.758557,12.9444101 L21.734413,12.069189 C21.845189,12.0208355 21.9250465,11.9208286 21.9477322,11.8018927 C21.9699149,11.6829569 21.9321358,11.5607211 21.846744,11.4751973 Z M2.19539315,10.735641 L1.71972412,10.8944054 L2.19539315,10.4177454 L2.19539315,10.735641 Z M18.2122668,9.55755747 L13.5382698,11.1870013 L13.5382698,8.13234407 L18.2122668,9.55755747 Z M8.41568035,8.13234407 L8.41568035,11.1870013 L3.74168337,9.55755747 L8.41568035,8.13234407 Z M6.95208336,11.6156287 L6.95208336,14.1257936 L5.85438562,13.6857997 L5.85438562,11.1760015 L6.95208336,11.6156287 Z M10.6110758,21.1187624 L2.92719164,18.4421332 L2.92719164,11.0084372 L2.92719164,10.0499839 L5.12258713,10.8152065 L5.12258713,13.9343962 C5.12244991,14.0843608 5.21346735,14.2192464 5.35237185,14.2750248 L7.18186809,15.0083479 C7.36943719,15.0836968 7.58243629,14.9923523 7.65762859,14.8043924 C7.6750088,14.760943 7.6839276,14.7145145 7.68388186,14.6677193 L7.68388186,11.7080274 L10.6110758,12.7284464 L10.6110758,21.1187624 Z M10.9769751,12.0794555 L9.13357468,11.4370645 C9.14043529,11.414469 9.1451005,11.3912777 9.14747885,11.3677655 L9.14747885,3.66787319 C9.14747885,3.46538436 8.98364746,3.30121165 8.7815796,3.30121165 L7.97660126,3.30121165 L10.9769751,0.841646058 L13.9773489,3.30121165 L13.1723706,3.30121165 C12.9703027,3.30121165 12.8064713,3.46538436 12.8064713,3.66787319 L12.8064713,11.3677655 C12.8088497,11.3912777 12.8135149,11.414469 12.8203755,11.4370645 L10.9769751,12.0794555 Z M19.0267585,18.0839049 L11.3428743,21.0971294 L11.3428743,13.352871 L13.4625287,15.4769413 C13.5693255,15.5840065 13.7308243,15.6143019 13.8690427,15.5532069 L19.0267585,13.2692722 L19.0267585,18.0839049 Z M13.802815,14.7810177 L11.6484002,12.6217479 L19.2956945,9.95611856 L20.9513886,11.615262 L13.802815,14.7810177 Z" id="Shape"></path>
                </g>
            </g>
        </g>
    </g>
</svg>